<svg width="98" height="99" viewBox="0 0 98 99" fill="none" xmlns="http://www.w3.org/2000/svg">
    <circle cx="48.9649" cy="49.2394" r="48.7355" transform="rotate(-0.256547 48.9649 49.2394)" fill="#AAC50B"
        fill-opacity="0.89" />
    <path
        d="M24.4666 33.0737C24.4666 33.4539 24.3937 33.8107 24.2478 34.144C24.1072 34.4774 23.9119 34.769 23.6619 35.019C23.4119 35.269 23.1202 35.467 22.7869 35.6128C22.4536 35.7534 22.0968 35.8237 21.7166 35.8237H20.9197C20.5395 35.8237 20.1801 35.7534 19.8416 35.6128C19.5082 35.467 19.2166 35.269 18.9666 35.019C18.7166 34.769 18.5187 34.4774 18.3728 34.144C18.2322 33.8107 18.1619 33.4539 18.1619 33.0737V27.0581C18.1619 26.6779 18.2322 26.3211 18.3728 25.9878C18.5187 25.6545 18.7166 25.3628 18.9666 25.1128C19.2166 24.8628 19.5082 24.6675 19.8416 24.5269C20.1801 24.381 20.5395 24.3081 20.9197 24.3081H21.7166C22.0968 24.3081 22.4536 24.381 22.7869 24.5269C23.1202 24.6675 23.4119 24.8628 23.6619 25.1128C23.9119 25.3628 24.1072 25.6545 24.2478 25.9878C24.3937 26.3211 24.4666 26.6779 24.4666 27.0581V27.5112L23.4588 27.6675V27.0581C23.4588 26.8081 23.4119 26.5763 23.3181 26.3628C23.2244 26.144 23.0968 25.9539 22.9353 25.7925C22.7739 25.631 22.5838 25.5034 22.365 25.4097C22.1515 25.3159 21.9197 25.269 21.6697 25.269H20.9666C20.7166 25.269 20.4822 25.3159 20.2635 25.4097C20.0499 25.5034 19.8598 25.631 19.6931 25.7925C19.5317 25.9539 19.4041 26.144 19.3103 26.3628C19.2166 26.5763 19.1697 26.8081 19.1697 27.0581V33.0737C19.1697 33.3237 19.2166 33.5581 19.3103 33.7769C19.4041 33.9904 19.5317 34.1805 19.6931 34.3472C19.8598 34.5086 20.0499 34.6362 20.2635 34.73C20.4822 34.8237 20.7166 34.8706 20.9666 34.8706H21.6697C21.9197 34.8706 22.1515 34.8237 22.365 34.73C22.5838 34.6362 22.7739 34.5086 22.9353 34.3472C23.0968 34.1805 23.2244 33.9904 23.3181 33.7769C23.4119 33.5581 23.4588 33.3237 23.4588 33.0737V32.4644L24.4666 32.6284V33.0737ZM26.7166 35.6675V24.4644H27.6775V35.6675H26.7166ZM30.1697 25.7456V24.4644H31.2869V25.7456H30.1697ZM30.2478 35.6675V27.6675H31.2088V35.6675H30.2478ZM37.8416 38.8706V34.9956C37.6228 35.256 37.3598 35.4591 37.0525 35.605C36.7452 35.7508 36.4119 35.8237 36.0525 35.8237H35.8103C35.4874 35.8237 35.1827 35.7638 34.8963 35.644C34.6098 35.519 34.3598 35.3498 34.1463 35.1362C33.9327 34.9227 33.7635 34.6727 33.6385 34.3862C33.5187 34.0998 33.4588 33.7951 33.4588 33.4722V29.8628C33.4588 29.5399 33.5187 29.2352 33.6385 28.9487C33.7635 28.6623 33.9327 28.4123 34.1463 28.1987C34.3598 27.9852 34.6098 27.8185 34.8963 27.6987C35.1827 27.5737 35.4874 27.5112 35.8103 27.5112H36.0525C36.4431 27.5112 36.8025 27.5998 37.1306 27.7769C37.4588 27.9487 37.7322 28.1831 37.951 28.48L38.4822 27.6675H38.8025V38.8706H37.8416ZM37.8416 29.8081C37.8416 29.6154 37.8051 29.4357 37.7322 29.269C37.6593 29.0972 37.5603 28.9487 37.4353 28.8237C37.3103 28.6987 37.1619 28.5998 36.99 28.5269C36.8234 28.4539 36.6437 28.4175 36.451 28.4175H35.8103C35.6176 28.4175 35.4353 28.4539 35.2635 28.5269C35.0968 28.5998 34.951 28.6987 34.826 28.8237C34.701 28.9487 34.602 29.0972 34.5291 29.269C34.4562 29.4357 34.4197 29.6154 34.4197 29.8081V33.5269C34.4197 33.7196 34.4562 33.9019 34.5291 34.0737C34.602 34.2404 34.701 34.3862 34.826 34.5112C34.951 34.6362 35.0968 34.7352 35.2635 34.8081C35.4353 34.881 35.6176 34.9175 35.8103 34.9175H36.451C36.6437 34.9175 36.8234 34.881 36.99 34.8081C37.1619 34.7352 37.3103 34.6362 37.4353 34.5112C37.5603 34.3862 37.6593 34.2404 37.7322 34.0737C37.8051 33.9019 37.8416 33.7196 37.8416 33.5269V29.8081ZM45.7478 35.6675L45.2166 34.855C44.9978 35.1519 44.7244 35.3888 44.3963 35.5659C44.0681 35.7378 43.7088 35.8237 43.3181 35.8237H43.076C42.753 35.8237 42.4484 35.7638 42.1619 35.644C41.8754 35.519 41.6254 35.3498 41.4119 35.1362C41.1984 34.9227 41.0291 34.6727 40.9041 34.3862C40.7843 34.0998 40.7244 33.7951 40.7244 33.4722V27.6675H41.6853V33.5269C41.6853 33.7196 41.7218 33.9019 41.7947 34.0737C41.8676 34.2404 41.9666 34.3862 42.0916 34.5112C42.2166 34.6362 42.3624 34.7352 42.5291 34.8081C42.701 34.881 42.8832 34.9175 43.076 34.9175H43.7166C43.9093 34.9175 44.089 34.881 44.2556 34.8081C44.4275 34.7352 44.576 34.6362 44.701 34.5112C44.826 34.3862 44.9249 34.2404 44.9978 34.0737C45.0707 33.9019 45.1072 33.7196 45.1072 33.5269V27.6675H46.0681V35.6675H45.7478ZM53.3338 33.4722C53.3338 33.7951 53.2713 34.0998 53.1463 34.3862C53.0265 34.6727 52.8598 34.9227 52.6463 35.1362C52.4327 35.3498 52.1827 35.519 51.8963 35.644C51.6098 35.7638 51.3051 35.8237 50.9822 35.8237H50.3416C50.0187 35.8237 49.714 35.7638 49.4275 35.644C49.1411 35.519 48.8911 35.3498 48.6775 35.1362C48.464 34.9227 48.2947 34.6727 48.1697 34.3862C48.0499 34.0998 47.99 33.7951 47.99 33.4722V29.8628C47.99 29.5399 48.0499 29.2352 48.1697 28.9487C48.2947 28.6623 48.464 28.4123 48.6775 28.1987C48.8911 27.9852 49.1411 27.8185 49.4275 27.6987C49.714 27.5737 50.0187 27.5112 50.3416 27.5112H50.9822C51.3051 27.5112 51.6098 27.5737 51.8963 27.6987C52.1827 27.8185 52.4327 27.9852 52.6463 28.1987C52.8598 28.4123 53.0265 28.6623 53.1463 28.9487C53.2713 29.2352 53.3338 29.5399 53.3338 29.8628V31.7456H48.951V33.5269C48.951 33.7196 48.9874 33.9019 49.0603 34.0737C49.1332 34.2404 49.2322 34.3862 49.3572 34.5112C49.4822 34.6362 49.628 34.7352 49.7947 34.8081C49.9666 34.881 50.1489 34.9175 50.3416 34.9175H50.9822C51.1749 34.9175 51.3546 34.881 51.5213 34.8081C51.6931 34.7352 51.8416 34.6362 51.9666 34.5112C52.0916 34.3862 52.1905 34.2404 52.2635 34.0737C52.3364 33.9019 52.3728 33.7196 52.3728 33.5269V32.9956L53.3338 33.1519V33.4722ZM52.3728 29.8081C52.3728 29.6154 52.3364 29.4357 52.2635 29.269C52.1905 29.0972 52.0916 28.9487 51.9666 28.8237C51.8416 28.6987 51.6931 28.5998 51.5213 28.5269C51.3546 28.4539 51.1749 28.4175 50.9822 28.4175H50.3416C50.1489 28.4175 49.9666 28.4539 49.7947 28.5269C49.628 28.5998 49.4822 28.6987 49.3572 28.8237C49.2322 28.9487 49.1332 29.0972 49.0603 29.269C48.9874 29.4357 48.951 29.6154 48.951 29.8081V30.9956H52.3728V29.8081ZM54.9353 35.6675V35.2378L58.9666 28.5815H55.0916V27.6675H60.2791V28.0972L56.2478 34.7534H60.2791V35.6675H54.9353ZM65.8103 25.7456V24.4644H66.9275V25.7456H65.8103ZM65.8885 35.6675V27.6675H66.8494V35.6675H65.8885ZM74.4431 33.4722C74.4431 33.7951 74.3806 34.0998 74.2556 34.3862C74.1359 34.6727 73.9692 34.9227 73.7556 35.1362C73.5421 35.3498 73.2921 35.519 73.0056 35.644C72.7192 35.7638 72.4145 35.8237 72.0916 35.8237H71.451C71.128 35.8237 70.8234 35.7638 70.5369 35.644C70.2504 35.519 70.0004 35.3498 69.7869 35.1362C69.5734 34.9227 69.4041 34.6727 69.2791 34.3862C69.1593 34.0998 69.0994 33.7951 69.0994 33.4722V29.8628C69.0994 29.5399 69.1593 29.2352 69.2791 28.9487C69.4041 28.6623 69.5734 28.4123 69.7869 28.1987C70.0004 27.9852 70.2504 27.8185 70.5369 27.6987C70.8234 27.5737 71.128 27.5112 71.451 27.5112H72.0916C72.4145 27.5112 72.7192 27.5737 73.0056 27.6987C73.2921 27.8185 73.5421 27.9852 73.7556 28.1987C73.9692 28.4123 74.1359 28.6623 74.2556 28.9487C74.3806 29.2352 74.4431 29.5399 74.4431 29.8628V30.1831L73.4822 30.3394V29.8081C73.4822 29.6154 73.4457 29.4357 73.3728 29.269C73.2999 29.0972 73.201 28.9487 73.076 28.8237C72.951 28.6987 72.8025 28.5998 72.6306 28.5269C72.464 28.4539 72.2843 28.4175 72.0916 28.4175H71.451C71.2582 28.4175 71.076 28.4539 70.9041 28.5269C70.7374 28.5998 70.5916 28.6987 70.4666 28.8237C70.3416 28.9487 70.2426 29.0972 70.1697 29.269C70.0968 29.4357 70.0603 29.6154 70.0603 29.8081V33.5269C70.0603 33.7196 70.0968 33.9019 70.1697 34.0737C70.2426 34.2404 70.3416 34.3862 70.4666 34.5112C70.5916 34.6362 70.7374 34.7352 70.9041 34.8081C71.076 34.881 71.2582 34.9175 71.451 34.9175H72.0916C72.2843 34.9175 72.464 34.881 72.6306 34.8081C72.8025 34.7352 72.951 34.6362 73.076 34.5112C73.201 34.3862 73.2999 34.2404 73.3728 34.0737C73.4457 33.9019 73.4822 33.7196 73.4822 33.5269V32.9956L74.4431 33.1519V33.4722ZM76.6072 25.7456V24.4644H77.7244V25.7456H76.6072ZM76.6853 35.6675V27.6675H77.6463V35.6675H76.6853ZM31.99 53.4722C31.99 53.7951 31.9275 54.0998 31.8025 54.3862C31.6827 54.6727 31.5161 54.9227 31.3025 55.1362C31.089 55.3498 30.839 55.519 30.5525 55.644C30.2661 55.7638 29.9614 55.8237 29.6385 55.8237H29.3963C29.0369 55.8237 28.7036 55.7508 28.3963 55.605C28.089 55.4591 27.826 55.256 27.6072 54.9956V58.8706H26.6463V47.6675H26.9666L27.49 48.48C27.7088 48.1831 27.9822 47.9487 28.3103 47.7769C28.6437 47.5998 29.0056 47.5112 29.3963 47.5112H29.6385C29.9614 47.5112 30.2661 47.5737 30.5525 47.6987C30.839 47.8185 31.089 47.9852 31.3025 48.1987C31.5161 48.4123 31.6827 48.6623 31.8025 48.9487C31.9275 49.2352 31.99 49.5399 31.99 49.8628V53.4722ZM31.0291 49.8081C31.0291 49.6154 30.9926 49.4357 30.9197 49.269C30.8468 49.0972 30.7478 48.9487 30.6228 48.8237C30.4978 48.6987 30.3494 48.5998 30.1775 48.5269C30.0109 48.4539 29.8312 48.4175 29.6385 48.4175H28.9978C28.8051 48.4175 28.6228 48.4539 28.451 48.5269C28.2843 48.5998 28.1385 48.6987 28.0135 48.8237C27.8885 48.9487 27.7895 49.0972 27.7166 49.269C27.6437 49.4357 27.6072 49.6154 27.6072 49.8081V53.5269C27.6072 53.7196 27.6437 53.9019 27.7166 54.0737C27.7895 54.2404 27.8885 54.3862 28.0135 54.5112C28.1385 54.6362 28.2843 54.7352 28.451 54.8081C28.6228 54.881 28.8051 54.9175 28.9978 54.9175H29.6385C29.8312 54.9175 30.0109 54.881 30.1775 54.8081C30.3494 54.7352 30.4978 54.6362 30.6228 54.5112C30.7478 54.3862 30.8468 54.2404 30.9197 54.0737C30.9926 53.9019 31.0291 53.7196 31.0291 53.5269V49.8081ZM39.2556 53.4722C39.2556 53.7951 39.1931 54.0998 39.0681 54.3862C38.9484 54.6727 38.7817 54.9227 38.5681 55.1362C38.3546 55.3498 38.1046 55.519 37.8181 55.644C37.5317 55.7638 37.227 55.8237 36.9041 55.8237H36.2635C35.9405 55.8237 35.6359 55.7638 35.3494 55.644C35.0629 55.519 34.8129 55.3498 34.5994 55.1362C34.3859 54.9227 34.2166 54.6727 34.0916 54.3862C33.9718 54.0998 33.9119 53.7951 33.9119 53.4722V49.8628C33.9119 49.5399 33.9718 49.2352 34.0916 48.9487C34.2166 48.6623 34.3859 48.4123 34.5994 48.1987C34.8129 47.9852 35.0629 47.8185 35.3494 47.6987C35.6359 47.5737 35.9405 47.5112 36.2635 47.5112H36.9041C37.227 47.5112 37.5317 47.5737 37.8181 47.6987C38.1046 47.8185 38.3546 47.9852 38.5681 48.1987C38.7817 48.4123 38.9484 48.6623 39.0681 48.9487C39.1931 49.2352 39.2556 49.5399 39.2556 49.8628V53.4722ZM38.2947 49.8081C38.2947 49.6154 38.2582 49.4357 38.1853 49.269C38.1124 49.0972 38.0135 48.9487 37.8885 48.8237C37.7635 48.6987 37.615 48.5998 37.4431 48.5269C37.2765 48.4539 37.0968 48.4175 36.9041 48.4175H36.2635C36.0707 48.4175 35.8885 48.4539 35.7166 48.5269C35.5499 48.5998 35.4041 48.6987 35.2791 48.8237C35.1541 48.9487 35.0551 49.0972 34.9822 49.269C34.9093 49.4357 34.8728 49.6154 34.8728 49.8081V53.5269C34.8728 53.7196 34.9093 53.9019 34.9822 54.0737C35.0551 54.2404 35.1541 54.3862 35.2791 54.5112C35.4041 54.6362 35.5499 54.7352 35.7166 54.8081C35.8885 54.881 36.0707 54.9175 36.2635 54.9175H36.9041C37.0968 54.9175 37.2765 54.881 37.4431 54.8081C37.615 54.7352 37.7635 54.6362 37.8885 54.5112C38.0135 54.3862 38.1124 54.2404 38.1853 54.0737C38.2582 53.9019 38.2947 53.7196 38.2947 53.5269V49.8081ZM46.201 55.6675L45.6697 54.855C45.451 55.1519 45.1775 55.3888 44.8494 55.5659C44.5213 55.7378 44.1619 55.8237 43.7713 55.8237H43.5291C43.2062 55.8237 42.9015 55.7638 42.615 55.644C42.3286 55.519 42.0786 55.3498 41.865 55.1362C41.6515 54.9227 41.4822 54.6727 41.3572 54.3862C41.2374 54.0998 41.1775 53.7951 41.1775 53.4722V47.6675H42.1385V53.5269C42.1385 53.7196 42.1749 53.9019 42.2478 54.0737C42.3207 54.2404 42.4197 54.3862 42.5447 54.5112C42.6697 54.6362 42.8155 54.7352 42.9822 54.8081C43.1541 54.881 43.3364 54.9175 43.5291 54.9175H44.1697C44.3624 54.9175 44.5421 54.881 44.7088 54.8081C44.8806 54.7352 45.0291 54.6362 45.1541 54.5112C45.2791 54.3862 45.378 54.2404 45.451 54.0737C45.5239 53.9019 45.5603 53.7196 45.5603 53.5269V47.6675H46.5213V55.6675H46.201ZM50.7947 48.5815C50.602 48.5815 50.4197 48.618 50.2478 48.6909C50.0812 48.7638 49.9353 48.8628 49.8103 48.9878C49.6853 49.1128 49.5864 49.2612 49.5135 49.4331C49.4405 49.5998 49.4041 49.7795 49.4041 49.9722V55.6675H48.4431V47.6675H48.7635L49.2869 48.48C49.5056 48.1831 49.7791 47.9487 50.1072 47.7769C50.4405 47.5998 50.8025 47.5112 51.1931 47.5112H51.7556V48.5815H50.7947ZM62.0681 53.4722C62.0681 53.7951 62.0056 54.0998 61.8806 54.3862C61.7609 54.6727 61.5942 54.9227 61.3806 55.1362C61.1671 55.3498 60.9171 55.519 60.6306 55.644C60.3442 55.7638 60.0395 55.8237 59.7166 55.8237H59.076C58.753 55.8237 58.4484 55.7638 58.1619 55.644C57.8754 55.519 57.6254 55.3498 57.4119 55.1362C57.1984 54.9227 57.0291 54.6727 56.9041 54.3862C56.7843 54.0998 56.7244 53.7951 56.7244 53.4722V49.8628C56.7244 49.5399 56.7843 49.2352 56.9041 48.9487C57.0291 48.6623 57.1984 48.4123 57.4119 48.1987C57.6254 47.9852 57.8754 47.8185 58.1619 47.6987C58.4484 47.5737 58.753 47.5112 59.076 47.5112H59.7166C60.0395 47.5112 60.3442 47.5737 60.6306 47.6987C60.9171 47.8185 61.1671 47.9852 61.3806 48.1987C61.5942 48.4123 61.7609 48.6623 61.8806 48.9487C62.0056 49.2352 62.0681 49.5399 62.0681 49.8628V51.7456H57.6853V53.5269C57.6853 53.7196 57.7218 53.9019 57.7947 54.0737C57.8676 54.2404 57.9666 54.3862 58.0916 54.5112C58.2166 54.6362 58.3624 54.7352 58.5291 54.8081C58.701 54.881 58.8832 54.9175 59.076 54.9175H59.7166C59.9093 54.9175 60.089 54.881 60.2556 54.8081C60.4275 54.7352 60.576 54.6362 60.701 54.5112C60.826 54.3862 60.9249 54.2404 60.9978 54.0737C61.0707 53.9019 61.1072 53.7196 61.1072 53.5269V52.9956L62.0681 53.1519V53.4722ZM61.1072 49.8081C61.1072 49.6154 61.0707 49.4357 60.9978 49.269C60.9249 49.0972 60.826 48.9487 60.701 48.8237C60.576 48.6987 60.4275 48.5998 60.2556 48.5269C60.089 48.4539 59.9093 48.4175 59.7166 48.4175H59.076C58.8832 48.4175 58.701 48.4539 58.5291 48.5269C58.3624 48.5998 58.2166 48.6987 58.0916 48.8237C57.9666 48.9487 57.8676 49.0972 57.7947 49.269C57.7218 49.4357 57.6853 49.6154 57.6853 49.8081V50.9956H61.1072V49.8081ZM68.3728 55.6675V49.8081C68.3728 49.6154 68.3364 49.4357 68.2635 49.269C68.1905 49.0972 68.0916 48.9487 67.9666 48.8237C67.8416 48.6987 67.6931 48.5998 67.5213 48.5269C67.3546 48.4539 67.1749 48.4175 66.9822 48.4175H66.3416C66.1489 48.4175 65.9666 48.4539 65.7947 48.5269C65.628 48.5998 65.4822 48.6987 65.3572 48.8237C65.2322 48.9487 65.1332 49.0972 65.0603 49.269C64.9874 49.4357 64.951 49.6154 64.951 49.8081V55.6675H63.99V47.6675H64.3103L64.8338 48.48C65.0525 48.1831 65.326 47.9487 65.6541 47.7769C65.9874 47.5998 66.3494 47.5112 66.74 47.5112H66.9822C67.3051 47.5112 67.6098 47.5737 67.8963 47.6987C68.1827 47.8185 68.4327 47.9852 68.6463 48.1987C68.8598 48.4123 69.0265 48.6623 69.1463 48.9487C69.2713 49.2352 69.3338 49.5399 69.3338 49.8628V55.6675H68.3728ZM21.6697 73.6362C21.6697 73.9591 21.6046 74.256 21.4744 74.5269C21.3442 74.7925 21.1671 75.0216 20.9431 75.2144C20.7192 75.4071 20.4588 75.5581 20.1619 75.6675C19.8702 75.7716 19.5629 75.8237 19.24 75.8237H18.5994C18.2765 75.8237 17.9666 75.7638 17.6697 75.644C17.378 75.519 17.1202 75.3498 16.8963 75.1362C16.6775 74.9227 16.5004 74.6727 16.365 74.3862C16.2348 74.0998 16.1697 73.7951 16.1697 73.4722V73.1519L17.1306 72.9956V73.5269C17.1306 73.7196 17.1697 73.9019 17.2478 74.0737C17.3312 74.2404 17.4405 74.3862 17.576 74.5112C17.7114 74.6362 17.8676 74.7352 18.0447 74.8081C18.2218 74.881 18.4067 74.9175 18.5994 74.9175H19.24C19.4327 74.9175 19.6176 74.8888 19.7947 74.8315C19.9718 74.7743 20.128 74.6935 20.2635 74.5894C20.4041 74.48 20.5135 74.3498 20.5916 74.1987C20.6749 74.0477 20.7166 73.8758 20.7166 73.6831C20.7166 73.3966 20.6541 73.1623 20.5291 72.98C20.4041 72.7977 20.2374 72.6466 20.0291 72.5269C19.826 72.4019 19.5916 72.3003 19.326 72.2222C19.0655 72.1388 18.7973 72.0581 18.5213 71.98C18.2452 71.8966 17.9744 71.8029 17.7088 71.6987C17.4484 71.5946 17.214 71.4591 17.0056 71.2925C16.8025 71.1206 16.6385 70.9071 16.5135 70.6519C16.3885 70.3966 16.326 70.0789 16.326 69.6987C16.326 69.3758 16.3885 69.0815 16.5135 68.8159C16.6385 68.5451 16.8077 68.3133 17.0213 68.1206C17.2348 67.9279 17.4822 67.7795 17.7635 67.6753C18.0499 67.5659 18.3546 67.5112 18.6775 67.5112H19.24C19.5629 67.5112 19.8676 67.5737 20.1541 67.6987C20.4405 67.8185 20.6905 67.9852 20.9041 68.1987C21.1176 68.4123 21.2843 68.6623 21.4041 68.9487C21.5291 69.2352 21.5916 69.5399 21.5916 69.8628V69.894L20.6306 70.0503V69.8081C20.6306 69.6154 20.5942 69.4357 20.5213 69.269C20.4484 69.0972 20.3494 68.9487 20.2244 68.8237C20.0994 68.6987 19.951 68.5998 19.7791 68.5269C19.6124 68.4539 19.4327 68.4175 19.24 68.4175H18.6775C18.4848 68.4175 18.3025 68.4461 18.1306 68.5034C17.964 68.5607 17.8181 68.644 17.6931 68.7534C17.5681 68.8576 17.4692 68.9852 17.3963 69.1362C17.3234 69.2873 17.2869 69.4591 17.2869 69.6519C17.2869 69.9279 17.3494 70.1545 17.4744 70.3315C17.5994 70.5034 17.7635 70.6493 17.9666 70.769C18.1749 70.8888 18.4093 70.9904 18.6697 71.0737C18.9353 71.1519 19.2036 71.2352 19.4744 71.3237C19.7504 71.4071 20.0187 71.5034 20.2791 71.6128C20.5447 71.7222 20.7791 71.8628 20.9822 72.0347C21.1905 72.2065 21.3572 72.4227 21.4822 72.6831C21.6072 72.9383 21.6697 73.256 21.6697 73.6362ZM28.5369 75.6675L28.0056 74.8706C27.7869 75.1571 27.5135 75.3888 27.1853 75.5659C26.8572 75.7378 26.4978 75.8237 26.1072 75.8237H25.865C25.5421 75.8237 25.2374 75.7638 24.951 75.644C24.6645 75.519 24.4145 75.3498 24.201 75.1362C23.9874 74.9227 23.8181 74.6727 23.6931 74.3862C23.5734 74.0998 23.5135 73.7951 23.5135 73.4722V73.394C23.5135 73.0711 23.5734 72.7664 23.6931 72.48C23.8181 72.1935 23.9874 71.9435 24.201 71.73C24.4145 71.5164 24.6645 71.3498 24.951 71.23C25.2374 71.105 25.5421 71.0425 25.865 71.0425H27.8963V69.8081C27.8963 69.6154 27.8598 69.4357 27.7869 69.269C27.714 69.0972 27.615 68.9487 27.49 68.8237C27.365 68.6987 27.2166 68.5998 27.0447 68.5269C26.878 68.4539 26.6984 68.4175 26.5056 68.4175H25.9431C25.7504 68.4175 25.5681 68.4539 25.3963 68.5269C25.2296 68.5998 25.0838 68.6987 24.9588 68.8237C24.8338 68.9487 24.7348 69.0972 24.6619 69.269C24.589 69.4357 24.5525 69.6154 24.5525 69.8081V70.0972L23.5916 69.9409V69.8628C23.5916 69.5399 23.6515 69.2352 23.7713 68.9487C23.8963 68.6623 24.0655 68.4123 24.2791 68.1987C24.4926 67.9852 24.7426 67.8185 25.0291 67.6987C25.3155 67.5737 25.6202 67.5112 25.9431 67.5112H26.5056C26.8286 67.5112 27.1332 67.5737 27.4197 67.6987C27.7062 67.8185 27.9562 67.9852 28.1697 68.1987C28.3832 68.4123 28.5499 68.6623 28.6697 68.9487C28.7947 69.2352 28.8572 69.5399 28.8572 69.8628V75.6675H28.5369ZM27.8963 71.7925H25.865C25.6723 71.7925 25.49 71.8289 25.3181 71.9019C25.1515 71.9748 25.0056 72.0763 24.8806 72.2065C24.7556 72.3315 24.6567 72.48 24.5838 72.6519C24.5109 72.8185 24.4744 72.9982 24.4744 73.1909V73.5269C24.4744 73.7196 24.5109 73.9019 24.5838 74.0737C24.6567 74.2404 24.7556 74.3862 24.8806 74.5112C25.0056 74.6362 25.1515 74.7352 25.3181 74.8081C25.49 74.881 25.6723 74.9175 25.865 74.9175H26.5056C26.6984 74.9175 26.878 74.881 27.0447 74.8081C27.2166 74.7352 27.365 74.6362 27.49 74.5112C27.615 74.3862 27.714 74.2404 27.7869 74.0737C27.8598 73.9019 27.8963 73.7196 27.8963 73.5269V71.7925ZM33.2869 75.6675H32.8103L29.9744 67.6675H30.9353L33.0213 73.73L33.0525 74.144L33.0838 73.73L35.1619 67.6675H36.1228L33.2869 75.6675ZM42.5916 73.4722C42.5916 73.7951 42.5291 74.0998 42.4041 74.3862C42.2843 74.6727 42.1176 74.9227 41.9041 75.1362C41.6905 75.3498 41.4405 75.519 41.1541 75.644C40.8676 75.7638 40.5629 75.8237 40.24 75.8237H39.5994C39.2765 75.8237 38.9718 75.7638 38.6853 75.644C38.3989 75.519 38.1489 75.3498 37.9353 75.1362C37.7218 74.9227 37.5525 74.6727 37.4275 74.3862C37.3077 74.0998 37.2478 73.7951 37.2478 73.4722V69.8628C37.2478 69.5399 37.3077 69.2352 37.4275 68.9487C37.5525 68.6623 37.7218 68.4123 37.9353 68.1987C38.1489 67.9852 38.3989 67.8185 38.6853 67.6987C38.9718 67.5737 39.2765 67.5112 39.5994 67.5112H40.24C40.5629 67.5112 40.8676 67.5737 41.1541 67.6987C41.4405 67.8185 41.6905 67.9852 41.9041 68.1987C42.1176 68.4123 42.2843 68.6623 42.4041 68.9487C42.5291 69.2352 42.5916 69.5399 42.5916 69.8628V73.4722ZM41.6306 69.8081C41.6306 69.6154 41.5942 69.4357 41.5213 69.269C41.4484 69.0972 41.3494 68.9487 41.2244 68.8237C41.0994 68.6987 40.951 68.5998 40.7791 68.5269C40.6124 68.4539 40.4327 68.4175 40.24 68.4175H39.5994C39.4067 68.4175 39.2244 68.4539 39.0525 68.5269C38.8859 68.5998 38.74 68.6987 38.615 68.8237C38.49 68.9487 38.3911 69.0972 38.3181 69.269C38.2452 69.4357 38.2088 69.6154 38.2088 69.8081V73.5269C38.2088 73.7196 38.2452 73.9019 38.3181 74.0737C38.3911 74.2404 38.49 74.3862 38.615 74.5112C38.74 74.6362 38.8859 74.7352 39.0525 74.8081C39.2244 74.881 39.4067 74.9175 39.5994 74.9175H40.24C40.4327 74.9175 40.6124 74.881 40.7791 74.8081C40.951 74.7352 41.0994 74.6362 41.2244 74.5112C41.3494 74.3862 41.4484 74.2404 41.5213 74.0737C41.5942 73.9019 41.6306 73.7196 41.6306 73.5269V69.8081ZM44.7556 65.7456V64.4644H45.8728V65.7456H44.7556ZM44.8338 75.6675V67.6675H45.7947V75.6675H44.8338ZM50.3963 68.5815C50.2036 68.5815 50.0213 68.618 49.8494 68.6909C49.6827 68.7638 49.5369 68.8628 49.4119 68.9878C49.2869 69.1128 49.1879 69.2612 49.115 69.4331C49.0421 69.5998 49.0056 69.7795 49.0056 69.9722V75.6675H48.0447V67.6675H48.365L48.8885 68.48C49.1072 68.1831 49.3806 67.9487 49.7088 67.7769C50.0421 67.5998 50.4041 67.5112 50.7947 67.5112H51.3572V68.5815H50.3963ZM61.6697 73.4722C61.6697 73.7951 61.6072 74.0998 61.4822 74.3862C61.3624 74.6727 61.1957 74.9227 60.9822 75.1362C60.7687 75.3498 60.5187 75.519 60.2322 75.644C59.9457 75.7638 59.6411 75.8237 59.3181 75.8237H59.076C58.7166 75.8237 58.3832 75.7508 58.076 75.605C57.7687 75.4591 57.5056 75.256 57.2869 74.9956V78.8706H56.326V67.6675H56.6463L57.1697 68.48C57.3885 68.1831 57.6619 67.9487 57.99 67.7769C58.3234 67.5998 58.6853 67.5112 59.076 67.5112H59.3181C59.6411 67.5112 59.9457 67.5737 60.2322 67.6987C60.5187 67.8185 60.7687 67.9852 60.9822 68.1987C61.1957 68.4123 61.3624 68.6623 61.4822 68.9487C61.6072 69.2352 61.6697 69.5399 61.6697 69.8628V73.4722ZM60.7088 69.8081C60.7088 69.6154 60.6723 69.4357 60.5994 69.269C60.5265 69.0972 60.4275 68.9487 60.3025 68.8237C60.1775 68.6987 60.0291 68.5998 59.8572 68.5269C59.6905 68.4539 59.5109 68.4175 59.3181 68.4175H58.6775C58.4848 68.4175 58.3025 68.4539 58.1306 68.5269C57.964 68.5998 57.8181 68.6987 57.6931 68.8237C57.5681 68.9487 57.4692 69.0972 57.3963 69.269C57.3234 69.4357 57.2869 69.6154 57.2869 69.8081V73.5269C57.2869 73.7196 57.3234 73.9019 57.3963 74.0737C57.4692 74.2404 57.5681 74.3862 57.6931 74.5112C57.8181 74.6362 57.964 74.7352 58.1306 74.8081C58.3025 74.881 58.4848 74.9175 58.6775 74.9175H59.3181C59.5109 74.9175 59.6905 74.881 59.8572 74.8081C60.0291 74.7352 60.1775 74.6362 60.3025 74.5112C60.4275 74.3862 60.5265 74.2404 60.5994 74.0737C60.6723 73.9019 60.7088 73.7196 60.7088 73.5269V69.8081ZM63.9119 75.6675V64.4644H64.8728V75.6675H63.9119ZM72.1463 75.6675L71.615 74.855C71.3963 75.1519 71.1228 75.3888 70.7947 75.5659C70.4666 75.7378 70.1072 75.8237 69.7166 75.8237H69.4744C69.1515 75.8237 68.8468 75.7638 68.5603 75.644C68.2739 75.519 68.0239 75.3498 67.8103 75.1362C67.5968 74.9227 67.4275 74.6727 67.3025 74.3862C67.1827 74.0998 67.1228 73.7951 67.1228 73.4722V67.6675H68.0838V73.5269C68.0838 73.7196 68.1202 73.9019 68.1931 74.0737C68.2661 74.2404 68.365 74.3862 68.49 74.5112C68.615 74.6362 68.7609 74.7352 68.9275 74.8081C69.0994 74.881 69.2817 74.9175 69.4744 74.9175H70.115C70.3077 74.9175 70.4874 74.881 70.6541 74.8081C70.826 74.7352 70.9744 74.6362 71.0994 74.5112C71.2244 74.3862 71.3234 74.2404 71.3963 74.0737C71.4692 73.9019 71.5056 73.7196 71.5056 73.5269V67.6675H72.4666V75.6675H72.1463ZM79.8885 73.6362C79.8885 73.9591 79.8234 74.256 79.6931 74.5269C79.5629 74.7925 79.3859 75.0216 79.1619 75.2144C78.9379 75.4071 78.6775 75.5581 78.3806 75.6675C78.089 75.7716 77.7817 75.8237 77.4588 75.8237H76.8181C76.4952 75.8237 76.1853 75.7638 75.8885 75.644C75.5968 75.519 75.339 75.3498 75.115 75.1362C74.8963 74.9227 74.7192 74.6727 74.5838 74.3862C74.4536 74.0998 74.3885 73.7951 74.3885 73.4722V73.1519L75.3494 72.9956V73.5269C75.3494 73.7196 75.3885 73.9019 75.4666 74.0737C75.5499 74.2404 75.6593 74.3862 75.7947 74.5112C75.9301 74.6362 76.0864 74.7352 76.2635 74.8081C76.4405 74.881 76.6254 74.9175 76.8181 74.9175H77.4588C77.6515 74.9175 77.8364 74.8888 78.0135 74.8315C78.1905 74.7743 78.3468 74.6935 78.4822 74.5894C78.6228 74.48 78.7322 74.3498 78.8103 74.1987C78.8937 74.0477 78.9353 73.8758 78.9353 73.6831C78.9353 73.3966 78.8728 73.1623 78.7478 72.98C78.6228 72.7977 78.4562 72.6466 78.2478 72.5269C78.0447 72.4019 77.8103 72.3003 77.5447 72.2222C77.2843 72.1388 77.0161 72.0581 76.74 71.98C76.464 71.8966 76.1931 71.8029 75.9275 71.6987C75.6671 71.5946 75.4327 71.4591 75.2244 71.2925C75.0213 71.1206 74.8572 70.9071 74.7322 70.6519C74.6072 70.3966 74.5447 70.0789 74.5447 69.6987C74.5447 69.3758 74.6072 69.0815 74.7322 68.8159C74.8572 68.5451 75.0265 68.3133 75.24 68.1206C75.4536 67.9279 75.701 67.7795 75.9822 67.6753C76.2687 67.5659 76.5734 67.5112 76.8963 67.5112H77.4588C77.7817 67.5112 78.0864 67.5737 78.3728 67.6987C78.6593 67.8185 78.9093 67.9852 79.1228 68.1987C79.3364 68.4123 79.503 68.6623 79.6228 68.9487C79.7478 69.2352 79.8103 69.5399 79.8103 69.8628V69.894L78.8494 70.0503V69.8081C78.8494 69.6154 78.8129 69.4357 78.74 69.269C78.6671 69.0972 78.5681 68.9487 78.4431 68.8237C78.3181 68.6987 78.1697 68.5998 77.9978 68.5269C77.8312 68.4539 77.6515 68.4175 77.4588 68.4175H76.8963C76.7036 68.4175 76.5213 68.4461 76.3494 68.5034C76.1827 68.5607 76.0369 68.644 75.9119 68.7534C75.7869 68.8576 75.6879 68.9852 75.615 69.1362C75.5421 69.2873 75.5056 69.4591 75.5056 69.6519C75.5056 69.9279 75.5681 70.1545 75.6931 70.3315C75.8181 70.5034 75.9822 70.6493 76.1853 70.769C76.3937 70.8888 76.628 70.9904 76.8885 71.0737C77.1541 71.1519 77.4223 71.2352 77.6931 71.3237C77.9692 71.4071 78.2374 71.5034 78.4978 71.6128C78.7635 71.7222 78.9978 71.8628 79.201 72.0347C79.4093 72.2065 79.576 72.4227 79.701 72.6831C79.826 72.9383 79.8885 73.256 79.8885 73.6362Z"
        fill="white" />
</svg>