<svg width="98" height="98" viewBox="0 0 98 98" fill="none" xmlns="http://www.w3.org/2000/svg">
<circle cx="48.7355" cy="48.7355" r="48.7355" fill="#EF941A" fill-opacity="0.9"/>
<path d="M25.6467 27.2012C25.6467 27.5814 25.5738 27.9382 25.428 28.2715C25.2874 28.6048 25.0921 28.8965 24.8421 29.1465C24.5921 29.3965 24.3004 29.5944 23.9671 29.7402C23.6337 29.8809 23.277 29.9512 22.8967 29.9512H22.0999C21.7197 29.9512 21.3603 29.8809 21.0217 29.7402C20.6884 29.5944 20.3967 29.3965 20.1467 29.1465C19.8967 28.8965 19.6988 28.6048 19.553 28.2715C19.4124 27.9382 19.3421 27.5814 19.3421 27.2012V21.1855C19.3421 20.8053 19.4124 20.4486 19.553 20.1152C19.6988 19.7819 19.8967 19.4902 20.1467 19.2402C20.3967 18.9902 20.6884 18.7949 21.0217 18.6543C21.3603 18.5085 21.7197 18.4355 22.0999 18.4355H22.8967C23.277 18.4355 23.6337 18.5085 23.9671 18.6543C24.3004 18.7949 24.5921 18.9902 24.8421 19.2402C25.0921 19.4902 25.2874 19.7819 25.428 20.1152C25.5738 20.4486 25.6467 20.8053 25.6467 21.1855V21.6387L24.6389 21.7949V21.1855C24.6389 20.9355 24.5921 20.7038 24.4983 20.4902C24.4046 20.2715 24.277 20.0814 24.1155 19.9199C23.954 19.7585 23.7639 19.6309 23.5452 19.5371C23.3316 19.4434 23.0999 19.3965 22.8499 19.3965H22.1467C21.8967 19.3965 21.6624 19.4434 21.4436 19.5371C21.2301 19.6309 21.04 19.7585 20.8733 19.9199C20.7118 20.0814 20.5842 20.2715 20.4905 20.4902C20.3967 20.7038 20.3499 20.9355 20.3499 21.1855V27.2012C20.3499 27.4512 20.3967 27.6855 20.4905 27.9043C20.5842 28.1178 20.7118 28.3079 20.8733 28.4746C21.04 28.6361 21.2301 28.7637 21.4436 28.8574C21.6624 28.9512 21.8967 28.998 22.1467 28.998H22.8499C23.0999 28.998 23.3316 28.9512 23.5452 28.8574C23.7639 28.7637 23.954 28.6361 24.1155 28.4746C24.277 28.3079 24.4046 28.1178 24.4983 27.9043C24.5921 27.6855 24.6389 27.4512 24.6389 27.2012V26.5918L25.6467 26.7559V27.2012ZM27.8967 29.7949V18.5918H28.8577V29.7949H27.8967ZM31.3499 19.873V18.5918H32.4671V19.873H31.3499ZM31.428 29.7949V21.7949H32.3889V29.7949H31.428ZM39.0217 32.998V29.123C38.803 29.3835 38.54 29.5866 38.2327 29.7324C37.9254 29.8783 37.5921 29.9512 37.2327 29.9512H36.9905C36.6676 29.9512 36.3629 29.8913 36.0764 29.7715C35.79 29.6465 35.54 29.4772 35.3264 29.2637C35.1129 29.0501 34.9436 28.8001 34.8186 28.5137C34.6988 28.2272 34.6389 27.9225 34.6389 27.5996V23.9902C34.6389 23.6673 34.6988 23.3626 34.8186 23.0762C34.9436 22.7897 35.1129 22.5397 35.3264 22.3262C35.54 22.1126 35.79 21.946 36.0764 21.8262C36.3629 21.7012 36.6676 21.6387 36.9905 21.6387H37.2327C37.6233 21.6387 37.9827 21.7272 38.3108 21.9043C38.6389 22.0762 38.9124 22.3105 39.1311 22.6074L39.6624 21.7949H39.9827V32.998H39.0217ZM39.0217 23.9355C39.0217 23.7428 38.9853 23.5632 38.9124 23.3965C38.8395 23.2246 38.7405 23.0762 38.6155 22.9512C38.4905 22.8262 38.3421 22.7272 38.1702 22.6543C38.0035 22.5814 37.8238 22.5449 37.6311 22.5449H36.9905C36.7978 22.5449 36.6155 22.5814 36.4436 22.6543C36.277 22.7272 36.1311 22.8262 36.0061 22.9512C35.8811 23.0762 35.7822 23.2246 35.7092 23.3965C35.6363 23.5632 35.5999 23.7428 35.5999 23.9355V27.6543C35.5999 27.847 35.6363 28.0293 35.7092 28.2012C35.7822 28.3678 35.8811 28.5137 36.0061 28.6387C36.1311 28.7637 36.277 28.8626 36.4436 28.9355C36.6155 29.0085 36.7978 29.0449 36.9905 29.0449H37.6311C37.8238 29.0449 38.0035 29.0085 38.1702 28.9355C38.3421 28.8626 38.4905 28.7637 38.6155 28.6387C38.7405 28.5137 38.8395 28.3678 38.9124 28.2012C38.9853 28.0293 39.0217 27.847 39.0217 27.6543V23.9355ZM46.928 29.7949L46.3967 28.9824C46.178 29.2793 45.9046 29.5163 45.5764 29.6934C45.2483 29.8652 44.8889 29.9512 44.4983 29.9512H44.2561C43.9332 29.9512 43.6285 29.8913 43.3421 29.7715C43.0556 29.6465 42.8056 29.4772 42.5921 29.2637C42.3785 29.0501 42.2092 28.8001 42.0842 28.5137C41.9645 28.2272 41.9046 27.9225 41.9046 27.5996V21.7949H42.8655V27.6543C42.8655 27.847 42.902 28.0293 42.9749 28.2012C43.0478 28.3678 43.1467 28.5137 43.2717 28.6387C43.3967 28.7637 43.5426 28.8626 43.7092 28.9355C43.8811 29.0085 44.0634 29.0449 44.2561 29.0449H44.8967C45.0895 29.0449 45.2691 29.0085 45.4358 28.9355C45.6077 28.8626 45.7561 28.7637 45.8811 28.6387C46.0061 28.5137 46.1051 28.3678 46.178 28.2012C46.2509 28.0293 46.2874 27.847 46.2874 27.6543V21.7949H47.2483V29.7949H46.928ZM54.5139 27.5996C54.5139 27.9225 54.4514 28.2272 54.3264 28.5137C54.2066 28.8001 54.04 29.0501 53.8264 29.2637C53.6129 29.4772 53.3629 29.6465 53.0764 29.7715C52.79 29.8913 52.4853 29.9512 52.1624 29.9512H51.5217C51.1988 29.9512 50.8941 29.8913 50.6077 29.7715C50.3212 29.6465 50.0712 29.4772 49.8577 29.2637C49.6441 29.0501 49.4749 28.8001 49.3499 28.5137C49.2301 28.2272 49.1702 27.9225 49.1702 27.5996V23.9902C49.1702 23.6673 49.2301 23.3626 49.3499 23.0762C49.4749 22.7897 49.6441 22.5397 49.8577 22.3262C50.0712 22.1126 50.3212 21.946 50.6077 21.8262C50.8941 21.7012 51.1988 21.6387 51.5217 21.6387H52.1624C52.4853 21.6387 52.79 21.7012 53.0764 21.8262C53.3629 21.946 53.6129 22.1126 53.8264 22.3262C54.04 22.5397 54.2066 22.7897 54.3264 23.0762C54.4514 23.3626 54.5139 23.6673 54.5139 23.9902V25.873H50.1311V27.6543C50.1311 27.847 50.1676 28.0293 50.2405 28.2012C50.3134 28.3678 50.4124 28.5137 50.5374 28.6387C50.6624 28.7637 50.8082 28.8626 50.9749 28.9355C51.1467 29.0085 51.329 29.0449 51.5217 29.0449H52.1624C52.3551 29.0449 52.5348 29.0085 52.7014 28.9355C52.8733 28.8626 53.0217 28.7637 53.1467 28.6387C53.2717 28.5137 53.3707 28.3678 53.4436 28.2012C53.5165 28.0293 53.553 27.847 53.553 27.6543V27.123L54.5139 27.2793V27.5996ZM53.553 23.9355C53.553 23.7428 53.5165 23.5632 53.4436 23.3965C53.3707 23.2246 53.2717 23.0762 53.1467 22.9512C53.0217 22.8262 52.8733 22.7272 52.7014 22.6543C52.5348 22.5814 52.3551 22.5449 52.1624 22.5449H51.5217C51.329 22.5449 51.1467 22.5814 50.9749 22.6543C50.8082 22.7272 50.6624 22.8262 50.5374 22.9512C50.4124 23.0762 50.3134 23.2246 50.2405 23.3965C50.1676 23.5632 50.1311 23.7428 50.1311 23.9355V25.123H53.553V23.9355ZM56.1155 29.7949V29.3652L60.1467 22.709H56.2717V21.7949H61.4592V22.2246L57.428 28.8809H61.4592V29.7949H56.1155ZM66.9905 19.873V18.5918H68.1077V19.873H66.9905ZM67.0686 29.7949V21.7949H68.0296V29.7949H67.0686ZM75.6233 27.5996C75.6233 27.9225 75.5608 28.2272 75.4358 28.5137C75.316 28.8001 75.1493 29.0501 74.9358 29.2637C74.7223 29.4772 74.4723 29.6465 74.1858 29.7715C73.8993 29.8913 73.5947 29.9512 73.2717 29.9512H72.6311C72.3082 29.9512 72.0035 29.8913 71.7171 29.7715C71.4306 29.6465 71.1806 29.4772 70.9671 29.2637C70.7535 29.0501 70.5842 28.8001 70.4592 28.5137C70.3395 28.2272 70.2796 27.9225 70.2796 27.5996V23.9902C70.2796 23.6673 70.3395 23.3626 70.4592 23.0762C70.5842 22.7897 70.7535 22.5397 70.9671 22.3262C71.1806 22.1126 71.4306 21.946 71.7171 21.8262C72.0035 21.7012 72.3082 21.6387 72.6311 21.6387H73.2717C73.5947 21.6387 73.8993 21.7012 74.1858 21.8262C74.4723 21.946 74.7223 22.1126 74.9358 22.3262C75.1493 22.5397 75.316 22.7897 75.4358 23.0762C75.5608 23.3626 75.6233 23.6673 75.6233 23.9902V24.3105L74.6624 24.4668V23.9355C74.6624 23.7428 74.6259 23.5632 74.553 23.3965C74.4801 23.2246 74.3811 23.0762 74.2561 22.9512C74.1311 22.8262 73.9827 22.7272 73.8108 22.6543C73.6441 22.5814 73.4645 22.5449 73.2717 22.5449H72.6311C72.4384 22.5449 72.2561 22.5814 72.0842 22.6543C71.9176 22.7272 71.7717 22.8262 71.6467 22.9512C71.5217 23.0762 71.4228 23.2246 71.3499 23.3965C71.277 23.5632 71.2405 23.7428 71.2405 23.9355V27.6543C71.2405 27.847 71.277 28.0293 71.3499 28.2012C71.4228 28.3678 71.5217 28.5137 71.6467 28.6387C71.7717 28.7637 71.9176 28.8626 72.0842 28.9355C72.2561 29.0085 72.4384 29.0449 72.6311 29.0449H73.2717C73.4645 29.0449 73.6441 29.0085 73.8108 28.9355C73.9827 28.8626 74.1311 28.7637 74.2561 28.6387C74.3811 28.5137 74.4801 28.3678 74.553 28.2012C74.6259 28.0293 74.6624 27.847 74.6624 27.6543V27.123L75.6233 27.2793V27.5996ZM77.7874 19.873V18.5918H78.9046V19.873H77.7874ZM77.8655 29.7949V21.7949H78.8264V29.7949H77.8655ZM33.1702 47.5996C33.1702 47.9225 33.1077 48.2272 32.9827 48.5137C32.8629 48.8001 32.6962 49.0501 32.4827 49.2637C32.2691 49.4772 32.0191 49.6465 31.7327 49.7715C31.4462 49.8913 31.1415 49.9512 30.8186 49.9512H30.5764C30.2171 49.9512 29.8837 49.8783 29.5764 49.7324C29.2691 49.5866 29.0061 49.3835 28.7874 49.123V52.998H27.8264V41.7949H28.1467L28.6702 42.6074C28.8889 42.3105 29.1624 42.0762 29.4905 41.9043C29.8238 41.7272 30.1858 41.6387 30.5764 41.6387H30.8186C31.1415 41.6387 31.4462 41.7012 31.7327 41.8262C32.0191 41.946 32.2691 42.1126 32.4827 42.3262C32.6962 42.5397 32.8629 42.7897 32.9827 43.0762C33.1077 43.3626 33.1702 43.6673 33.1702 43.9902V47.5996ZM32.2092 43.9355C32.2092 43.7428 32.1728 43.5632 32.0999 43.3965C32.027 43.2246 31.928 43.0762 31.803 42.9512C31.678 42.8262 31.5296 42.7272 31.3577 42.6543C31.191 42.5814 31.0113 42.5449 30.8186 42.5449H30.178C29.9853 42.5449 29.803 42.5814 29.6311 42.6543C29.4645 42.7272 29.3186 42.8262 29.1936 42.9512C29.0686 43.0762 28.9697 43.2246 28.8967 43.3965C28.8238 43.5632 28.7874 43.7428 28.7874 43.9355V47.6543C28.7874 47.847 28.8238 48.0293 28.8967 48.2012C28.9697 48.3678 29.0686 48.5137 29.1936 48.6387C29.3186 48.7637 29.4645 48.8626 29.6311 48.9355C29.803 49.0085 29.9853 49.0449 30.178 49.0449H30.8186C31.0113 49.0449 31.191 49.0085 31.3577 48.9355C31.5296 48.8626 31.678 48.7637 31.803 48.6387C31.928 48.5137 32.027 48.3678 32.0999 48.2012C32.1728 48.0293 32.2092 47.847 32.2092 47.6543V43.9355ZM40.4358 47.5996C40.4358 47.9225 40.3733 48.2272 40.2483 48.5137C40.1285 48.8001 39.9618 49.0501 39.7483 49.2637C39.5348 49.4772 39.2848 49.6465 38.9983 49.7715C38.7118 49.8913 38.4072 49.9512 38.0842 49.9512H37.4436C37.1207 49.9512 36.816 49.8913 36.5296 49.7715C36.2431 49.6465 35.9931 49.4772 35.7796 49.2637C35.566 49.0501 35.3967 48.8001 35.2717 48.5137C35.152 48.2272 35.0921 47.9225 35.0921 47.5996V43.9902C35.0921 43.6673 35.152 43.3626 35.2717 43.0762C35.3967 42.7897 35.566 42.5397 35.7796 42.3262C35.9931 42.1126 36.2431 41.946 36.5296 41.8262C36.816 41.7012 37.1207 41.6387 37.4436 41.6387H38.0842C38.4072 41.6387 38.7118 41.7012 38.9983 41.8262C39.2848 41.946 39.5348 42.1126 39.7483 42.3262C39.9618 42.5397 40.1285 42.7897 40.2483 43.0762C40.3733 43.3626 40.4358 43.6673 40.4358 43.9902V47.5996ZM39.4749 43.9355C39.4749 43.7428 39.4384 43.5632 39.3655 43.3965C39.2926 43.2246 39.1936 43.0762 39.0686 42.9512C38.9436 42.8262 38.7952 42.7272 38.6233 42.6543C38.4566 42.5814 38.277 42.5449 38.0842 42.5449H37.4436C37.2509 42.5449 37.0686 42.5814 36.8967 42.6543C36.7301 42.7272 36.5842 42.8262 36.4592 42.9512C36.3342 43.0762 36.2353 43.2246 36.1624 43.3965C36.0895 43.5632 36.053 43.7428 36.053 43.9355V47.6543C36.053 47.847 36.0895 48.0293 36.1624 48.2012C36.2353 48.3678 36.3342 48.5137 36.4592 48.6387C36.5842 48.7637 36.7301 48.8626 36.8967 48.9355C37.0686 49.0085 37.2509 49.0449 37.4436 49.0449H38.0842C38.277 49.0449 38.4566 49.0085 38.6233 48.9355C38.7952 48.8626 38.9436 48.7637 39.0686 48.6387C39.1936 48.5137 39.2926 48.3678 39.3655 48.2012C39.4384 48.0293 39.4749 47.847 39.4749 47.6543V43.9355ZM47.3811 49.7949L46.8499 48.9824C46.6311 49.2793 46.3577 49.5163 46.0296 49.6934C45.7014 49.8652 45.3421 49.9512 44.9514 49.9512H44.7092C44.3863 49.9512 44.0816 49.8913 43.7952 49.7715C43.5087 49.6465 43.2587 49.4772 43.0452 49.2637C42.8316 49.0501 42.6624 48.8001 42.5374 48.5137C42.4176 48.2272 42.3577 47.9225 42.3577 47.5996V41.7949H43.3186V47.6543C43.3186 47.847 43.3551 48.0293 43.428 48.2012C43.5009 48.3678 43.5999 48.5137 43.7249 48.6387C43.8499 48.7637 43.9957 48.8626 44.1624 48.9355C44.3342 49.0085 44.5165 49.0449 44.7092 49.0449H45.3499C45.5426 49.0449 45.7223 49.0085 45.8889 48.9355C46.0608 48.8626 46.2092 48.7637 46.3342 48.6387C46.4592 48.5137 46.5582 48.3678 46.6311 48.2012C46.704 48.0293 46.7405 47.847 46.7405 47.6543V41.7949H47.7014V49.7949H47.3811ZM51.9749 42.709C51.7822 42.709 51.5999 42.7454 51.428 42.8184C51.2613 42.8913 51.1155 42.9902 50.9905 43.1152C50.8655 43.2402 50.7665 43.3887 50.6936 43.5605C50.6207 43.7272 50.5842 43.9069 50.5842 44.0996V49.7949H49.6233V41.7949H49.9436L50.4671 42.6074C50.6858 42.3105 50.9592 42.0762 51.2874 41.9043C51.6207 41.7272 51.9827 41.6387 52.3733 41.6387H52.9358V42.709H51.9749ZM63.2483 47.5996C63.2483 47.9225 63.1858 48.2272 63.0608 48.5137C62.941 48.8001 62.7743 49.0501 62.5608 49.2637C62.3473 49.4772 62.0973 49.6465 61.8108 49.7715C61.5243 49.8913 61.2197 49.9512 60.8967 49.9512H60.2561C59.9332 49.9512 59.6285 49.8913 59.3421 49.7715C59.0556 49.6465 58.8056 49.4772 58.5921 49.2637C58.3785 49.0501 58.2092 48.8001 58.0842 48.5137C57.9645 48.2272 57.9046 47.9225 57.9046 47.5996V43.9902C57.9046 43.6673 57.9645 43.3626 58.0842 43.0762C58.2092 42.7897 58.3785 42.5397 58.5921 42.3262C58.8056 42.1126 59.0556 41.946 59.3421 41.8262C59.6285 41.7012 59.9332 41.6387 60.2561 41.6387H60.8967C61.2197 41.6387 61.5243 41.7012 61.8108 41.8262C62.0973 41.946 62.3473 42.1126 62.5608 42.3262C62.7743 42.5397 62.941 42.7897 63.0608 43.0762C63.1858 43.3626 63.2483 43.6673 63.2483 43.9902V45.873H58.8655V47.6543C58.8655 47.847 58.902 48.0293 58.9749 48.2012C59.0478 48.3678 59.1467 48.5137 59.2717 48.6387C59.3967 48.7637 59.5426 48.8626 59.7092 48.9355C59.8811 49.0085 60.0634 49.0449 60.2561 49.0449H60.8967C61.0895 49.0449 61.2691 49.0085 61.4358 48.9355C61.6077 48.8626 61.7561 48.7637 61.8811 48.6387C62.0061 48.5137 62.1051 48.3678 62.178 48.2012C62.2509 48.0293 62.2874 47.847 62.2874 47.6543V47.123L63.2483 47.2793V47.5996ZM62.2874 43.9355C62.2874 43.7428 62.2509 43.5632 62.178 43.3965C62.1051 43.2246 62.0061 43.0762 61.8811 42.9512C61.7561 42.8262 61.6077 42.7272 61.4358 42.6543C61.2691 42.5814 61.0895 42.5449 60.8967 42.5449H60.2561C60.0634 42.5449 59.8811 42.5814 59.7092 42.6543C59.5426 42.7272 59.3967 42.8262 59.2717 42.9512C59.1467 43.0762 59.0478 43.2246 58.9749 43.3965C58.902 43.5632 58.8655 43.7428 58.8655 43.9355V45.123H62.2874V43.9355ZM69.553 49.7949V43.9355C69.553 43.7428 69.5165 43.5632 69.4436 43.3965C69.3707 43.2246 69.2717 43.0762 69.1467 42.9512C69.0217 42.8262 68.8733 42.7272 68.7014 42.6543C68.5348 42.5814 68.3551 42.5449 68.1624 42.5449H67.5217C67.329 42.5449 67.1467 42.5814 66.9749 42.6543C66.8082 42.7272 66.6624 42.8262 66.5374 42.9512C66.4124 43.0762 66.3134 43.2246 66.2405 43.3965C66.1676 43.5632 66.1311 43.7428 66.1311 43.9355V49.7949H65.1702V41.7949H65.4905L66.0139 42.6074C66.2327 42.3105 66.5061 42.0762 66.8342 41.9043C67.1676 41.7272 67.5296 41.6387 67.9202 41.6387H68.1624C68.4853 41.6387 68.79 41.7012 69.0764 41.8262C69.3629 41.946 69.6129 42.1126 69.8264 42.3262C70.04 42.5397 70.2066 42.7897 70.3264 43.0762C70.4514 43.3626 70.5139 43.6673 70.5139 43.9902V49.7949H69.553ZM22.8499 67.7637C22.8499 68.0866 22.7848 68.3835 22.6546 68.6543C22.5243 68.9199 22.3473 69.1491 22.1233 69.3418C21.8993 69.5345 21.6389 69.6855 21.3421 69.7949C21.0504 69.8991 20.7431 69.9512 20.4202 69.9512H19.7796C19.4566 69.9512 19.1467 69.8913 18.8499 69.7715C18.5582 69.6465 18.3004 69.4772 18.0764 69.2637C17.8577 69.0501 17.6806 68.8001 17.5452 68.5137C17.415 68.2272 17.3499 67.9225 17.3499 67.5996V67.2793L18.3108 67.123V67.6543C18.3108 67.847 18.3499 68.0293 18.428 68.2012C18.5113 68.3678 18.6207 68.5137 18.7561 68.6387C18.8915 68.7637 19.0478 68.8626 19.2249 68.9355C19.402 69.0085 19.5868 69.0449 19.7796 69.0449H20.4202C20.6129 69.0449 20.7978 69.0163 20.9749 68.959C21.152 68.9017 21.3082 68.821 21.4436 68.7168C21.5842 68.6074 21.6936 68.4772 21.7717 68.3262C21.8551 68.1751 21.8967 68.0033 21.8967 67.8105C21.8967 67.5241 21.8342 67.2897 21.7092 67.1074C21.5842 66.9251 21.4176 66.7741 21.2092 66.6543C21.0061 66.5293 20.7717 66.4277 20.5061 66.3496C20.2457 66.2663 19.9775 66.1855 19.7014 66.1074C19.4254 66.0241 19.1546 65.9303 18.8889 65.8262C18.6285 65.722 18.3941 65.5866 18.1858 65.4199C17.9827 65.248 17.8186 65.0345 17.6936 64.7793C17.5686 64.5241 17.5061 64.2064 17.5061 63.8262C17.5061 63.5033 17.5686 63.209 17.6936 62.9434C17.8186 62.6725 17.9879 62.4408 18.2014 62.248C18.415 62.0553 18.6624 61.9069 18.9436 61.8027C19.2301 61.6934 19.5348 61.6387 19.8577 61.6387H20.4202C20.7431 61.6387 21.0478 61.7012 21.3342 61.8262C21.6207 61.946 21.8707 62.1126 22.0842 62.3262C22.2978 62.5397 22.4645 62.7897 22.5842 63.0762C22.7092 63.3626 22.7717 63.6673 22.7717 63.9902V64.0215L21.8108 64.1777V63.9355C21.8108 63.7428 21.7743 63.5632 21.7014 63.3965C21.6285 63.2246 21.5296 63.0762 21.4046 62.9512C21.2796 62.8262 21.1311 62.7272 20.9592 62.6543C20.7926 62.5814 20.6129 62.5449 20.4202 62.5449H19.8577C19.665 62.5449 19.4827 62.5736 19.3108 62.6309C19.1441 62.6882 18.9983 62.7715 18.8733 62.8809C18.7483 62.985 18.6493 63.1126 18.5764 63.2637C18.5035 63.4147 18.4671 63.5866 18.4671 63.7793C18.4671 64.0553 18.5296 64.2819 18.6546 64.459C18.7796 64.6309 18.9436 64.7767 19.1467 64.8965C19.3551 65.0163 19.5895 65.1178 19.8499 65.2012C20.1155 65.2793 20.3837 65.3626 20.6546 65.4512C20.9306 65.5345 21.1988 65.6309 21.4592 65.7402C21.7249 65.8496 21.9592 65.9902 22.1624 66.1621C22.3707 66.334 22.5374 66.5501 22.6624 66.8105C22.7874 67.0658 22.8499 67.3835 22.8499 67.7637ZM29.7171 69.7949L29.1858 68.998C28.9671 69.2845 28.6936 69.5163 28.3655 69.6934C28.0374 69.8652 27.678 69.9512 27.2874 69.9512H27.0452C26.7223 69.9512 26.4176 69.8913 26.1311 69.7715C25.8447 69.6465 25.5947 69.4772 25.3811 69.2637C25.1676 69.0501 24.9983 68.8001 24.8733 68.5137C24.7535 68.2272 24.6936 67.9225 24.6936 67.5996V67.5215C24.6936 67.1986 24.7535 66.8939 24.8733 66.6074C24.9983 66.321 25.1676 66.071 25.3811 65.8574C25.5947 65.6439 25.8447 65.4772 26.1311 65.3574C26.4176 65.2324 26.7223 65.1699 27.0452 65.1699H29.0764V63.9355C29.0764 63.7428 29.04 63.5632 28.9671 63.3965C28.8941 63.2246 28.7952 63.0762 28.6702 62.9512C28.5452 62.8262 28.3967 62.7272 28.2249 62.6543C28.0582 62.5814 27.8785 62.5449 27.6858 62.5449H27.1233C26.9306 62.5449 26.7483 62.5814 26.5764 62.6543C26.4098 62.7272 26.2639 62.8262 26.1389 62.9512C26.0139 63.0762 25.915 63.2246 25.8421 63.3965C25.7691 63.5632 25.7327 63.7428 25.7327 63.9355V64.2246L24.7717 64.0684V63.9902C24.7717 63.6673 24.8316 63.3626 24.9514 63.0762C25.0764 62.7897 25.2457 62.5397 25.4592 62.3262C25.6728 62.1126 25.9228 61.946 26.2092 61.8262C26.4957 61.7012 26.8004 61.6387 27.1233 61.6387H27.6858C28.0087 61.6387 28.3134 61.7012 28.5999 61.8262C28.8863 61.946 29.1363 62.1126 29.3499 62.3262C29.5634 62.5397 29.7301 62.7897 29.8499 63.0762C29.9749 63.3626 30.0374 63.6673 30.0374 63.9902V69.7949H29.7171ZM29.0764 65.9199H27.0452C26.8525 65.9199 26.6702 65.9564 26.4983 66.0293C26.3316 66.1022 26.1858 66.2038 26.0608 66.334C25.9358 66.459 25.8368 66.6074 25.7639 66.7793C25.691 66.946 25.6546 67.1257 25.6546 67.3184V67.6543C25.6546 67.847 25.691 68.0293 25.7639 68.2012C25.8368 68.3678 25.9358 68.5137 26.0608 68.6387C26.1858 68.7637 26.3316 68.8626 26.4983 68.9355C26.6702 69.0085 26.8525 69.0449 27.0452 69.0449H27.6858C27.8785 69.0449 28.0582 69.0085 28.2249 68.9355C28.3967 68.8626 28.5452 68.7637 28.6702 68.6387C28.7952 68.5137 28.8941 68.3678 28.9671 68.2012C29.04 68.0293 29.0764 67.847 29.0764 67.6543V65.9199ZM34.4671 69.7949H33.9905L31.1546 61.7949H32.1155L34.2014 67.8574L34.2327 68.2715L34.2639 67.8574L36.3421 61.7949H37.303L34.4671 69.7949ZM43.7717 67.5996C43.7717 67.9225 43.7092 68.2272 43.5842 68.5137C43.4645 68.8001 43.2978 69.0501 43.0842 69.2637C42.8707 69.4772 42.6207 69.6465 42.3342 69.7715C42.0478 69.8913 41.7431 69.9512 41.4202 69.9512H40.7796C40.4566 69.9512 40.152 69.8913 39.8655 69.7715C39.579 69.6465 39.329 69.4772 39.1155 69.2637C38.902 69.0501 38.7327 68.8001 38.6077 68.5137C38.4879 68.2272 38.428 67.9225 38.428 67.5996V63.9902C38.428 63.6673 38.4879 63.3626 38.6077 63.0762C38.7327 62.7897 38.902 62.5397 39.1155 62.3262C39.329 62.1126 39.579 61.946 39.8655 61.8262C40.152 61.7012 40.4566 61.6387 40.7796 61.6387H41.4202C41.7431 61.6387 42.0478 61.7012 42.3342 61.8262C42.6207 61.946 42.8707 62.1126 43.0842 62.3262C43.2978 62.5397 43.4645 62.7897 43.5842 63.0762C43.7092 63.3626 43.7717 63.6673 43.7717 63.9902V67.5996ZM42.8108 63.9355C42.8108 63.7428 42.7743 63.5632 42.7014 63.3965C42.6285 63.2246 42.5296 63.0762 42.4046 62.9512C42.2796 62.8262 42.1311 62.7272 41.9592 62.6543C41.7926 62.5814 41.6129 62.5449 41.4202 62.5449H40.7796C40.5868 62.5449 40.4046 62.5814 40.2327 62.6543C40.066 62.7272 39.9202 62.8262 39.7952 62.9512C39.6702 63.0762 39.5712 63.2246 39.4983 63.3965C39.4254 63.5632 39.3889 63.7428 39.3889 63.9355V67.6543C39.3889 67.847 39.4254 68.0293 39.4983 68.2012C39.5712 68.3678 39.6702 68.5137 39.7952 68.6387C39.9202 68.7637 40.066 68.8626 40.2327 68.9355C40.4046 69.0085 40.5868 69.0449 40.7796 69.0449H41.4202C41.6129 69.0449 41.7926 69.0085 41.9592 68.9355C42.1311 68.8626 42.2796 68.7637 42.4046 68.6387C42.5296 68.5137 42.6285 68.3678 42.7014 68.2012C42.7743 68.0293 42.8108 67.847 42.8108 67.6543V63.9355ZM45.9358 59.873V58.5918H47.053V59.873H45.9358ZM46.0139 69.7949V61.7949H46.9749V69.7949H46.0139ZM51.5764 62.709C51.3837 62.709 51.2014 62.7454 51.0296 62.8184C50.8629 62.8913 50.7171 62.9902 50.5921 63.1152C50.4671 63.2402 50.3681 63.3887 50.2952 63.5605C50.2223 63.7272 50.1858 63.9069 50.1858 64.0996V69.7949H49.2249V61.7949H49.5452L50.0686 62.6074C50.2874 62.3105 50.5608 62.0762 50.8889 61.9043C51.2223 61.7272 51.5842 61.6387 51.9749 61.6387H52.5374V62.709H51.5764ZM62.8499 67.5996C62.8499 67.9225 62.7874 68.2272 62.6624 68.5137C62.5426 68.8001 62.3759 69.0501 62.1624 69.2637C61.9488 69.4772 61.6988 69.6465 61.4124 69.7715C61.1259 69.8913 60.8212 69.9512 60.4983 69.9512H60.2561C59.8967 69.9512 59.5634 69.8783 59.2561 69.7324C58.9488 69.5866 58.6858 69.3835 58.4671 69.123V72.998H57.5061V61.7949H57.8264L58.3499 62.6074C58.5686 62.3105 58.8421 62.0762 59.1702 61.9043C59.5035 61.7272 59.8655 61.6387 60.2561 61.6387H60.4983C60.8212 61.6387 61.1259 61.7012 61.4124 61.8262C61.6988 61.946 61.9488 62.1126 62.1624 62.3262C62.3759 62.5397 62.5426 62.7897 62.6624 63.0762C62.7874 63.3626 62.8499 63.6673 62.8499 63.9902V67.5996ZM61.8889 63.9355C61.8889 63.7428 61.8525 63.5632 61.7796 63.3965C61.7066 63.2246 61.6077 63.0762 61.4827 62.9512C61.3577 62.8262 61.2092 62.7272 61.0374 62.6543C60.8707 62.5814 60.691 62.5449 60.4983 62.5449H59.8577C59.665 62.5449 59.4827 62.5814 59.3108 62.6543C59.1441 62.7272 58.9983 62.8262 58.8733 62.9512C58.7483 63.0762 58.6493 63.2246 58.5764 63.3965C58.5035 63.5632 58.4671 63.7428 58.4671 63.9355V67.6543C58.4671 67.847 58.5035 68.0293 58.5764 68.2012C58.6493 68.3678 58.7483 68.5137 58.8733 68.6387C58.9983 68.7637 59.1441 68.8626 59.3108 68.9355C59.4827 69.0085 59.665 69.0449 59.8577 69.0449H60.4983C60.691 69.0449 60.8707 69.0085 61.0374 68.9355C61.2092 68.8626 61.3577 68.7637 61.4827 68.6387C61.6077 68.5137 61.7066 68.3678 61.7796 68.2012C61.8525 68.0293 61.8889 67.847 61.8889 67.6543V63.9355ZM65.0921 69.7949V58.5918H66.053V69.7949H65.0921ZM73.3264 69.7949L72.7952 68.9824C72.5764 69.2793 72.303 69.5163 71.9749 69.6934C71.6467 69.8652 71.2874 69.9512 70.8967 69.9512H70.6546C70.3316 69.9512 70.027 69.8913 69.7405 69.7715C69.454 69.6465 69.204 69.4772 68.9905 69.2637C68.777 69.0501 68.6077 68.8001 68.4827 68.5137C68.3629 68.2272 68.303 67.9225 68.303 67.5996V61.7949H69.2639V67.6543C69.2639 67.847 69.3004 68.0293 69.3733 68.2012C69.4462 68.3678 69.5452 68.5137 69.6702 68.6387C69.7952 68.7637 69.941 68.8626 70.1077 68.9355C70.2796 69.0085 70.4618 69.0449 70.6546 69.0449H71.2952C71.4879 69.0449 71.6676 69.0085 71.8342 68.9355C72.0061 68.8626 72.1546 68.7637 72.2796 68.6387C72.4046 68.5137 72.5035 68.3678 72.5764 68.2012C72.6493 68.0293 72.6858 67.847 72.6858 67.6543V61.7949H73.6467V69.7949H73.3264ZM81.0686 67.7637C81.0686 68.0866 81.0035 68.3835 80.8733 68.6543C80.7431 68.9199 80.566 69.1491 80.3421 69.3418C80.1181 69.5345 79.8577 69.6855 79.5608 69.7949C79.2691 69.8991 78.9618 69.9512 78.6389 69.9512H77.9983C77.6754 69.9512 77.3655 69.8913 77.0686 69.7715C76.777 69.6465 76.5191 69.4772 76.2952 69.2637C76.0764 69.0501 75.8993 68.8001 75.7639 68.5137C75.6337 68.2272 75.5686 67.9225 75.5686 67.5996V67.2793L76.5296 67.123V67.6543C76.5296 67.847 76.5686 68.0293 76.6467 68.2012C76.7301 68.3678 76.8395 68.5137 76.9749 68.6387C77.1103 68.7637 77.2665 68.8626 77.4436 68.9355C77.6207 69.0085 77.8056 69.0449 77.9983 69.0449H78.6389C78.8316 69.0449 79.0165 69.0163 79.1936 68.959C79.3707 68.9017 79.527 68.821 79.6624 68.7168C79.803 68.6074 79.9124 68.4772 79.9905 68.3262C80.0738 68.1751 80.1155 68.0033 80.1155 67.8105C80.1155 67.5241 80.053 67.2897 79.928 67.1074C79.803 66.9251 79.6363 66.7741 79.428 66.6543C79.2249 66.5293 78.9905 66.4277 78.7249 66.3496C78.4645 66.2663 78.1962 66.1855 77.9202 66.1074C77.6441 66.0241 77.3733 65.9303 77.1077 65.8262C76.8473 65.722 76.6129 65.5866 76.4046 65.4199C76.2014 65.248 76.0374 65.0345 75.9124 64.7793C75.7874 64.5241 75.7249 64.2064 75.7249 63.8262C75.7249 63.5033 75.7874 63.209 75.9124 62.9434C76.0374 62.6725 76.2066 62.4408 76.4202 62.248C76.6337 62.0553 76.8811 61.9069 77.1624 61.8027C77.4488 61.6934 77.7535 61.6387 78.0764 61.6387H78.6389C78.9618 61.6387 79.2665 61.7012 79.553 61.8262C79.8395 61.946 80.0895 62.1126 80.303 62.3262C80.5165 62.5397 80.6832 62.7897 80.803 63.0762C80.928 63.3626 80.9905 63.6673 80.9905 63.9902V64.0215L80.0296 64.1777V63.9355C80.0296 63.7428 79.9931 63.5632 79.9202 63.3965C79.8473 63.2246 79.7483 63.0762 79.6233 62.9512C79.4983 62.8262 79.3499 62.7272 79.178 62.6543C79.0113 62.5814 78.8316 62.5449 78.6389 62.5449H78.0764C77.8837 62.5449 77.7014 62.5736 77.5296 62.6309C77.3629 62.6882 77.2171 62.7715 77.0921 62.8809C76.9671 62.985 76.8681 63.1126 76.7952 63.2637C76.7223 63.4147 76.6858 63.5866 76.6858 63.7793C76.6858 64.0553 76.7483 64.2819 76.8733 64.459C76.9983 64.6309 77.1624 64.7767 77.3655 64.8965C77.5738 65.0163 77.8082 65.1178 78.0686 65.2012C78.3342 65.2793 78.6025 65.3626 78.8733 65.4512C79.1493 65.5345 79.4176 65.6309 79.678 65.7402C79.9436 65.8496 80.178 65.9902 80.3811 66.1621C80.5895 66.334 80.7561 66.5501 80.8811 66.8105C81.0061 67.0658 81.0686 67.3835 81.0686 67.7637Z" fill="white"/>
</svg>
