<svg width="266" height="317" viewBox="0 0 266 317" fill="none" xmlns="http://www.w3.org/2000/svg">
<path d="M47.4652 291.96V296.16H53.1052V298.824H47.4652V303.264H53.8252V306H44.1052V289.224H53.8252V291.96H47.4652ZM61.9667 306.216C60.8787 306.216 59.9027 306.024 59.0387 305.64C58.1747 305.24 57.4867 304.704 56.9747 304.032C56.4787 303.36 56.2067 302.616 56.1587 301.8H59.5427C59.6067 302.312 59.8547 302.736 60.2867 303.072C60.7347 303.408 61.2867 303.576 61.9427 303.576C62.5827 303.576 63.0787 303.448 63.4307 303.192C63.7987 302.936 63.9827 302.608 63.9827 302.208C63.9827 301.776 63.7587 301.456 63.3107 301.248C62.8787 301.024 62.1827 300.784 61.2227 300.528C60.2307 300.288 59.4147 300.04 58.7747 299.784C58.1507 299.528 57.6067 299.136 57.1427 298.608C56.6947 298.08 56.4707 297.368 56.4707 296.472C56.4707 295.736 56.6787 295.064 57.0947 294.456C57.5267 293.848 58.1347 293.368 58.9187 293.016C59.7187 292.664 60.6547 292.488 61.7267 292.488C63.3107 292.488 64.5747 292.888 65.5187 293.688C66.4627 294.472 66.9827 295.536 67.0787 296.88H63.8627C63.8147 296.352 63.5907 295.936 63.1907 295.632C62.8067 295.312 62.2867 295.152 61.6307 295.152C61.0227 295.152 60.5507 295.264 60.2147 295.488C59.8947 295.712 59.7347 296.024 59.7347 296.424C59.7347 296.872 59.9587 297.216 60.4067 297.456C60.8547 297.68 61.5507 297.912 62.4947 298.152C63.4547 298.392 64.2467 298.64 64.8707 298.896C65.4947 299.152 66.0307 299.552 66.4787 300.096C66.9427 300.624 67.1827 301.328 67.1987 302.208C67.1987 302.976 66.9827 303.664 66.5507 304.272C66.1347 304.88 65.5267 305.36 64.7267 305.712C63.9427 306.048 63.0227 306.216 61.9667 306.216ZM73.3168 294.624C73.7488 294.016 74.3408 293.512 75.0928 293.112C75.8608 292.696 76.7328 292.488 77.7088 292.488C78.8448 292.488 79.8688 292.768 80.7808 293.328C81.7088 293.888 82.4368 294.688 82.9648 295.728C83.5088 296.752 83.7808 297.944 83.7808 299.304C83.7808 300.664 83.5088 301.872 82.9648 302.928C82.4368 303.968 81.7088 304.776 80.7808 305.352C79.8688 305.928 78.8448 306.216 77.7088 306.216C76.7328 306.216 75.8688 306.016 75.1168 305.616C74.3808 305.216 73.7808 304.712 73.3168 304.104V312.336H69.9568V292.704H73.3168V294.624ZM80.3488 299.304C80.3488 298.504 80.1808 297.816 79.8448 297.24C79.5248 296.648 79.0928 296.2 78.5488 295.896C78.0208 295.592 77.4448 295.44 76.8208 295.44C76.2128 295.44 75.6368 295.6 75.0928 295.92C74.5648 296.224 74.1328 296.672 73.7968 297.264C73.4768 297.856 73.3168 298.552 73.3168 299.352C73.3168 300.152 73.4768 300.848 73.7968 301.44C74.1328 302.032 74.5648 302.488 75.0928 302.808C75.6368 303.112 76.2128 303.264 76.8208 303.264C77.4448 303.264 78.0208 303.104 78.5488 302.784C79.0928 302.464 79.5248 302.008 79.8448 301.416C80.1808 300.824 80.3488 300.12 80.3488 299.304ZM89.5824 294.768C90.0144 294.064 90.5744 293.512 91.2624 293.112C91.9664 292.712 92.7664 292.512 93.6624 292.512V296.04H92.7744C91.7184 296.04 90.9184 296.288 90.3744 296.784C89.8464 297.28 89.5824 298.144 89.5824 299.376V306H86.2224V292.704H89.5824V294.768ZM97.6295 291.12C97.0375 291.12 96.5415 290.936 96.1415 290.568C95.7575 290.184 95.5655 289.712 95.5655 289.152C95.5655 288.592 95.7575 288.128 96.1415 287.76C96.5415 287.376 97.0375 287.184 97.6295 287.184C98.2215 287.184 98.7095 287.376 99.0935 287.76C99.4935 288.128 99.6935 288.592 99.6935 289.152C99.6935 289.712 99.4935 290.184 99.0935 290.568C98.7095 290.936 98.2215 291.12 97.6295 291.12ZM99.2855 292.704V306H95.9255V292.704H99.2855ZM106.517 295.464V301.896C106.517 302.344 106.621 302.672 106.829 302.88C107.053 303.072 107.421 303.168 107.933 303.168H109.493V306H107.381C104.549 306 103.133 304.624 103.133 301.872V295.464H101.549V292.704H103.133V289.416H106.517V292.704H109.493V295.464H106.517ZM116.765 299.304C116.765 297.96 117.029 296.768 117.557 295.728C118.101 294.688 118.837 293.888 119.765 293.328C120.693 292.768 121.725 292.488 122.861 292.488C123.725 292.488 124.549 292.68 125.333 293.064C126.117 293.432 126.741 293.928 127.205 294.552V288.24H130.613V306H127.205V304.032C126.789 304.688 126.205 305.216 125.453 305.616C124.701 306.016 123.829 306.216 122.837 306.216C121.717 306.216 120.693 305.928 119.765 305.352C118.837 304.776 118.101 303.968 117.557 302.928C117.029 301.872 116.765 300.664 116.765 299.304ZM127.229 299.352C127.229 298.536 127.069 297.84 126.749 297.264C126.429 296.672 125.997 296.224 125.453 295.92C124.909 295.6 124.325 295.44 123.701 295.44C123.077 295.44 122.501 295.592 121.973 295.896C121.445 296.2 121.013 296.648 120.677 297.24C120.357 297.816 120.197 298.504 120.197 299.304C120.197 300.104 120.357 300.808 120.677 301.416C121.013 302.008 121.445 302.464 121.973 302.784C122.517 303.104 123.093 303.264 123.701 303.264C124.325 303.264 124.909 303.112 125.453 302.808C125.997 302.488 126.429 302.04 126.749 301.464C127.069 300.872 127.229 300.168 127.229 299.352ZM134.566 289.248H138.094L135.502 295.296H133.198L134.566 289.248ZM152.864 299.064C152.864 299.544 152.832 299.976 152.768 300.36H143.048C143.128 301.32 143.464 302.072 144.056 302.616C144.648 303.16 145.376 303.432 146.24 303.432C147.488 303.432 148.376 302.896 148.904 301.824H152.528C152.144 303.104 151.408 304.16 150.32 304.992C149.232 305.808 147.896 306.216 146.312 306.216C145.032 306.216 143.88 305.936 142.856 305.376C141.848 304.8 141.056 303.992 140.48 302.952C139.92 301.912 139.64 300.712 139.64 299.352C139.64 297.976 139.92 296.768 140.48 295.728C141.04 294.688 141.824 293.888 142.832 293.328C143.84 292.768 145 292.488 146.312 292.488C147.576 292.488 148.704 292.76 149.696 293.304C150.704 293.848 151.48 294.624 152.024 295.632C152.584 296.624 152.864 297.768 152.864 299.064ZM149.384 298.104C149.368 297.24 149.056 296.552 148.448 296.04C147.84 295.512 147.096 295.248 146.216 295.248C145.384 295.248 144.68 295.504 144.104 296.016C143.544 296.512 143.2 297.208 143.072 298.104H149.384ZM148.88 289.2L143.36 291.72V289.32L148.88 286.464V289.2ZM154.452 299.328C154.452 298 154.724 296.824 155.268 295.8C155.828 294.76 156.58 293.952 157.524 293.376C158.468 292.8 159.508 292.512 160.644 292.512C161.588 292.512 162.42 292.696 163.14 293.064C163.876 293.416 164.468 293.872 164.916 294.432V292.704H168.3V312.336H164.916V304.176C164.468 304.752 163.868 305.232 163.116 305.616C162.364 306 161.516 306.192 160.572 306.192C159.452 306.192 158.42 305.904 157.476 305.328C156.548 304.736 155.812 303.92 155.268 302.88C154.724 301.84 154.452 300.656 154.452 299.328ZM164.916 299.352C164.916 298.536 164.748 297.832 164.412 297.24C164.076 296.648 163.636 296.2 163.092 295.896C162.564 295.592 161.996 295.44 161.388 295.44C160.796 295.44 160.228 295.592 159.684 295.896C159.156 296.2 158.724 296.648 158.388 297.24C158.052 297.816 157.884 298.512 157.884 299.328C157.884 300.144 158.052 300.856 158.388 301.464C158.724 302.056 159.156 302.504 159.684 302.808C160.228 303.112 160.796 303.264 161.388 303.264C161.996 303.264 162.564 303.112 163.092 302.808C163.636 302.504 164.076 302.056 164.412 301.464C164.748 300.872 164.916 300.168 164.916 299.352ZM184.134 292.704V306H180.75V304.32C180.318 304.896 179.75 305.352 179.046 305.688C178.358 306.008 177.606 306.168 176.79 306.168C175.75 306.168 174.83 305.952 174.03 305.52C173.23 305.072 172.598 304.424 172.134 303.576C171.686 302.712 171.462 301.688 171.462 300.504V292.704H174.822V300.024C174.822 301.08 175.086 301.896 175.614 302.472C176.142 303.032 176.862 303.312 177.774 303.312C178.702 303.312 179.43 303.032 179.958 302.472C180.486 301.896 180.75 301.08 180.75 300.024V292.704H184.134ZM189.153 291.12C188.561 291.12 188.065 290.936 187.665 290.568C187.281 290.184 187.089 289.712 187.089 289.152C187.089 288.592 187.281 288.128 187.665 287.76C188.065 287.376 188.561 287.184 189.153 287.184C189.745 287.184 190.233 287.376 190.617 287.76C191.017 288.128 191.217 288.592 191.217 289.152C191.217 289.712 191.017 290.184 190.617 290.568C190.233 290.936 189.745 291.12 189.153 291.12ZM190.809 292.704V306H187.449V292.704H190.809ZM197.489 294.624C197.921 294.016 198.513 293.512 199.265 293.112C200.033 292.696 200.905 292.488 201.881 292.488C203.017 292.488 204.041 292.768 204.953 293.328C205.881 293.888 206.609 294.688 207.137 295.728C207.681 296.752 207.953 297.944 207.953 299.304C207.953 300.664 207.681 301.872 207.137 302.928C206.609 303.968 205.881 304.776 204.953 305.352C204.041 305.928 203.017 306.216 201.881 306.216C200.905 306.216 200.041 306.016 199.289 305.616C198.553 305.216 197.953 304.712 197.489 304.104V312.336H194.129V292.704H197.489V294.624ZM204.521 299.304C204.521 298.504 204.353 297.816 204.017 297.24C203.697 296.648 203.265 296.2 202.721 295.896C202.193 295.592 201.617 295.44 200.993 295.44C200.385 295.44 199.809 295.6 199.265 295.92C198.737 296.224 198.305 296.672 197.969 297.264C197.649 297.856 197.489 298.552 197.489 299.352C197.489 300.152 197.649 300.848 197.969 301.44C198.305 302.032 198.737 302.488 199.265 302.808C199.809 303.112 200.385 303.264 200.993 303.264C201.617 303.264 202.193 303.104 202.721 302.784C203.265 302.464 203.697 302.008 204.017 301.416C204.353 300.824 204.521 300.12 204.521 299.304ZM222.754 299.064C222.754 299.544 222.722 299.976 222.658 300.36H212.938C213.018 301.32 213.354 302.072 213.946 302.616C214.538 303.16 215.266 303.432 216.13 303.432C217.378 303.432 218.266 302.896 218.794 301.824H222.418C222.034 303.104 221.298 304.16 220.21 304.992C219.122 305.808 217.786 306.216 216.202 306.216C214.922 306.216 213.77 305.936 212.746 305.376C211.738 304.8 210.946 303.992 210.37 302.952C209.81 301.912 209.53 300.712 209.53 299.352C209.53 297.976 209.81 296.768 210.37 295.728C210.93 294.688 211.714 293.888 212.722 293.328C213.73 292.768 214.89 292.488 216.202 292.488C217.466 292.488 218.594 292.76 219.586 293.304C220.594 293.848 221.37 294.624 221.914 295.632C222.474 296.624 222.754 297.768 222.754 299.064ZM219.274 298.104C219.258 297.24 218.946 296.552 218.338 296.04C217.73 295.512 216.986 295.248 216.106 295.248C215.274 295.248 214.57 295.504 213.994 296.016C213.434 296.512 213.09 297.208 212.962 298.104H219.274Z" fill="#0F253E"/>
<path d="M71.2357 15.209C91.0206 4.82624 113.093 -0.396014 135.419 0.023411C157.745 0.442836 179.606 6.49042 198.99 17.609C218.373 28.7277 234.655 44.5597 246.334 63.6465C258.014 82.7333 264.716 104.461 265.823 126.828C266.059 131.549 266.059 136.279 265.823 141L262.997 140.83C263.237 136.166 263.237 131.492 262.997 126.828C261.31 92.2483 245.995 59.7568 220.422 36.5013C194.848 13.2458 161.111 1.1313 126.63 2.8227C92.1503 4.51409 59.7523 19.8729 36.5637 45.5204C13.3752 71.1679 1.29547 105.003 2.982 139.583H0.155751C-1.07027 114.171 4.96184 88.9365 17.5431 66.8444C30.1244 44.7523 48.7317 26.7208 71.1791 14.8689L71.2357 15.209Z" fill="#0F253E"/>
<path d="M127.104 12.1439C103.2 13.31 80.1785 21.5386 60.9512 35.7891C41.7239 50.0396 27.1547 69.6719 19.0854 92.203C11.0162 114.734 9.80926 139.152 15.6181 162.369C21.427 185.586 33.9907 206.559 51.7196 222.635C69.4484 238.712 91.5465 249.169 115.219 252.686C138.892 256.203 163.075 252.621 184.712 242.393C206.349 232.165 224.467 215.75 236.774 195.225C249.082 174.699 255.026 150.985 253.855 127.081C252.285 95.0323 238.051 64.9192 214.281 43.3649C190.511 21.8107 159.153 10.5804 127.104 12.1439Z" fill="#0F253E"/>
<path d="M209.242 112.883C208.11 112.611 206.917 112.761 205.89 113.307C205.333 113.655 204.861 114.122 204.507 114.674C204.153 115.225 203.927 115.848 203.844 116.496C203.05 114.479 202.1 112.525 201.003 110.653C203.141 110.658 205.21 109.898 206.829 108.511C208.449 107.124 209.511 105.204 209.822 103.102C210.133 101 209.671 98.8572 208.521 97.0662C207.37 95.2753 205.609 93.9559 203.559 93.3501C202.444 93.0093 201.271 92.8936 200.11 93.01C198.949 93.1263 197.822 93.4723 196.798 94.0275C196.579 94.1425 196.37 94.2747 196.173 94.4227C194.017 86.7838 189.905 79.8303 184.239 74.2406C179.38 69.5831 167.845 61.1715 163.271 64.841C162.398 65.6145 161.842 66.6792 161.708 67.833C161.632 68.3826 161.721 68.9423 161.964 69.442C160.827 69.1315 159.691 68.8773 158.526 68.6515C159.823 67.2209 160.607 65.4041 160.756 63.4842C160.905 61.5644 160.41 59.6495 159.349 58.0382C158.706 57.0558 157.872 56.2105 156.896 55.5514C155.921 54.8924 154.823 54.4328 153.667 54.1994C151.357 53.7044 148.945 54.1397 146.958 55.4097C144.971 56.6797 143.573 58.6808 143.069 60.9739C143.055 61.2183 143.055 61.4634 143.069 61.7078C135.815 58.3827 127.815 56.9914 119.856 57.6712C113.122 58.3487 99.2282 61.6231 99.0862 67.466C99.0938 68.6344 99.5519 69.7554 100.365 70.5992C100.65 70.9067 100.998 71.1477 101.388 71.3049C100.45 71.9541 99.5409 72.6316 98.5465 73.3373C98.3481 71.8533 97.7708 70.4443 96.8699 69.2444C95.4382 67.3728 93.3168 66.1428 90.9723 65.8252C88.6278 65.5076 86.2525 66.1283 84.3686 67.5506C82.4847 68.973 81.247 71.0807 80.9273 73.4098C80.6076 75.739 81.2318 78.099 82.6636 79.9705C82.8341 80.1964 83.0335 80.3375 83.204 80.5351C75.9454 83.8674 69.6798 89.012 65.0195 95.4671C61.1553 101.112 54.6208 113.645 59.0248 117.541C59.9028 118.279 61.0285 118.662 62.1782 118.613C62.7279 118.576 63.2639 118.426 63.7528 118.174C64.2417 117.921 64.6729 117.571 65.0195 117.145C64.8291 118.926 64.7537 120.718 64.7926 122.509C63.4824 121.748 61.9915 121.348 60.4738 121.351C58.1837 121.479 56.0292 122.473 54.4535 124.13C52.8778 125.786 52 127.978 52 130.257C52 132.536 52.8778 134.728 54.4535 136.384C56.0292 138.04 58.1837 139.034 60.4738 139.162H61.2126C59.4844 146.978 59.8068 155.104 62.1497 162.76C64.1386 168.942 69.8785 181.107 75.4474 181.107H76.1577C77.314 180.845 78.3285 180.16 78.9989 179.188C79.5192 178.344 79.7015 177.337 79.5102 176.366C80.9314 177.65 82.4309 178.848 83.9996 179.95C82.7737 180.52 81.6944 181.36 80.8448 182.407C79.9952 183.453 79.3975 184.679 79.0967 185.99C78.796 187.301 78.8001 188.662 79.1092 189.971C79.4184 191.28 80.0239 192.502 80.8802 193.543C81.7364 194.584 82.8207 195.417 84.0502 195.979C85.2797 196.541 86.622 196.817 87.975 196.786C89.328 196.754 90.6565 196.417 91.8582 195.798C93.0599 195.18 94.1033 194.297 94.9096 193.217C95.0587 193.011 95.1921 192.794 95.3078 192.568C100.595 198.542 107.334 203.071 114.884 205.722C119.686 207.292 124.69 208.166 129.744 208.318C133.608 208.318 136.847 207.5 137.927 205.213C138.359 204.135 138.359 202.933 137.927 201.855C137.732 201.333 137.41 200.867 136.989 200.499C138.154 200.302 139.319 200.048 140.455 199.766C140.084 201.22 140.084 202.743 140.455 204.197C140.919 206.108 142.008 207.811 143.55 209.042C145.092 210.273 147.001 210.961 148.979 211C149.678 211 150.375 210.915 151.053 210.746C152.189 210.477 153.261 209.989 154.207 209.309C155.153 208.628 155.956 207.77 156.568 206.781C157.18 205.793 157.59 204.695 157.775 203.549C157.959 202.404 157.915 201.233 157.645 200.104C157.645 199.85 157.474 199.625 157.417 199.399C165.418 199.289 173.252 197.109 180.147 193.076C185.83 189.604 197.053 180.684 194.638 175.349C194.124 174.302 193.231 173.485 192.138 173.063C191.739 172.913 191.313 172.846 190.888 172.865C191.456 171.849 191.939 170.777 192.45 169.732C193.297 171.018 194.461 172.068 195.831 172.781C197.934 173.847 200.376 174.041 202.622 173.318C204.868 172.596 206.734 171.016 207.807 168.928C208.881 166.839 209.076 164.412 208.349 162.181C207.621 159.95 206.032 158.097 203.929 157.03C203.703 156.912 203.465 156.817 203.219 156.748C208.308 150.631 211.714 143.308 213.106 135.493C214.527 128.718 214.896 114.52 209.242 112.883ZM198.474 96.7091C199.349 96.2528 200.326 96.02 201.315 96.0317C202.703 95.8252 204.119 96.1363 205.289 96.9051C206.46 97.674 207.303 98.8461 207.656 100.196C208.009 101.545 207.847 102.977 207.201 104.214C206.554 105.452 205.47 106.408 204.156 106.899C203.486 107.267 202.748 107.497 201.986 107.574C201.225 107.652 200.456 107.576 199.724 107.351C198.993 107.128 198.312 106.764 197.722 106.279C197.132 105.795 196.644 105.2 196.286 104.528C195.567 103.171 195.415 101.587 195.862 100.119C196.308 98.6509 197.318 97.4159 198.673 96.6808L198.474 96.7091ZM164.976 68.3411C165.004 67.9464 165.176 67.5754 165.458 67.2967C167.334 65.7724 176.028 70.4864 182.335 76.4987C187.987 82.1293 191.986 89.1854 193.899 96.9067C193.373 97.6368 192.97 98.4471 192.706 99.3059C192.36 100.417 192.239 101.586 192.351 102.744C192.463 103.902 192.806 105.027 193.36 106.052C194.2 107.594 195.473 108.859 197.024 109.694C197.075 109.9 197.152 110.099 197.252 110.286C201.053 116.107 203.167 122.855 203.361 129.791C203.414 131.775 203.28 133.759 202.963 135.719C202.949 135.841 202.949 135.964 202.963 136.086C202.812 137.476 202.287 138.8 201.442 139.918C200.597 141.035 199.463 141.906 198.161 142.437L197.081 142.719C196.723 142.736 196.367 142.648 196.059 142.465C195.462 141.929 195.888 139.642 196.286 137.61C196.541 136.368 196.797 134.957 196.996 133.461C197.358 130.367 197.253 127.237 196.684 124.174C196.614 123.784 196.394 123.436 196.071 123.204C195.747 122.972 195.345 122.875 194.95 122.932C192.175 123.396 189.453 124.134 186.825 125.134C184.894 125.841 182.92 126.425 180.915 126.884C179.376 118.763 175.61 111.223 170.032 105.093C171.817 102.945 174.021 101.178 176.511 99.8987C179.863 97.8946 183.33 95.7776 184.523 91.6283C185.972 86.4627 182.989 82.5957 179.835 79.7166C178.899 78.7171 177.902 77.7745 176.852 76.8939C174.517 74.9879 171.961 73.3673 169.237 72.067C167.135 70.6839 165.089 69.1032 164.976 68.3411ZM164.606 163.522C166.539 165.495 168.671 167.264 170.97 168.801C172.739 170.02 174.428 171.35 176.028 172.781C174.301 174.321 172.393 175.648 170.345 176.732C169.067 177.41 167.816 177.946 166.68 178.454C164.872 179.068 163.202 180.027 161.765 181.277C161.367 180.233 160.998 179.132 160.628 177.946C159.879 174.367 158.194 171.047 155.741 168.321C155.514 168.097 155.221 167.95 154.906 167.899C154.59 167.849 154.266 167.897 153.98 168.038C146.378 172.148 137.696 173.862 129.09 172.95C128.889 172.922 128.685 172.934 128.489 172.988C128.294 173.041 128.112 173.134 127.954 173.261C127.788 173.386 127.65 173.542 127.547 173.722C127.445 173.902 127.38 174.1 127.357 174.305C127.072 177.045 127.072 179.807 127.357 182.547C127.551 184.63 127.617 186.723 127.556 188.814C125.26 188.52 123.009 187.951 120.851 187.12C119.515 186.583 118.293 185.991 117.185 185.454C115.575 184.56 113.828 183.93 112.014 183.591C112.525 182.688 113.122 181.728 113.776 180.769C116.027 177.857 117.476 174.414 117.981 170.777C118.006 170.464 117.932 170.151 117.769 169.883C117.606 169.614 117.362 169.404 117.072 169.281C108.99 166.179 102.053 160.704 97.1827 153.586C96.9625 153.244 96.6154 153 96.2165 152.909C95.8043 152.828 95.3766 152.908 95.0234 153.135C92.7575 154.723 90.6544 156.529 88.7443 158.526C87.2946 160.037 85.7369 161.443 84.0842 162.732C82.8085 160.805 81.7783 158.729 81.0161 156.55C80.5615 155.167 80.2202 153.728 79.9076 152.683C79.5618 150.733 78.8066 148.877 77.6914 147.235C79.0842 147.023 80.4889 146.891 81.8971 146.84C85.5923 146.926 89.2457 146.05 92.4949 144.3C92.761 144.127 92.9661 143.878 93.0832 143.584C93.2002 143.291 93.2234 142.969 93.1484 142.663C90.8779 134.292 91.2143 125.435 94.114 117.258C94.2688 116.878 94.2688 116.453 94.114 116.073C93.9431 115.71 93.6383 115.427 93.2621 115.282C90.6305 114.401 87.9181 113.777 85.1643 113.419C83.0723 113.14 81.0027 112.716 78.9705 112.149C79.7911 109.974 80.8787 107.907 82.2092 105.996C83.0332 104.81 83.8859 103.738 84.653 102.806C85.7882 101.55 86.7443 100.144 87.4943 98.6285C88.2898 99.4188 89.0849 100.294 89.8805 101.254C92.08 104.224 95.0167 106.578 98.4043 108.085C98.7054 108.191 99.0323 108.205 99.3414 108.124C99.6506 108.044 99.928 107.872 100.138 107.633C105.376 100.777 112.606 95.6839 120.851 93.0396C121.048 92.9857 121.233 92.8929 121.394 92.7669C121.555 92.6408 121.689 92.4841 121.788 92.3057C121.943 91.9255 121.943 91.5004 121.788 91.1202C120.889 88.513 119.737 85.9983 118.35 83.6118C117.272 81.7981 116.322 79.9117 115.509 77.9664C117.725 77.3054 120.016 76.9261 122.328 76.8374C123.777 76.8374 125.169 76.8374 126.363 76.8374C128.27 77.0434 130.2 76.8805 132.045 76.3576C132.045 77.4867 131.79 78.644 131.591 79.886C130.718 83.4478 130.796 87.1742 131.818 90.6967C131.932 90.9868 132.131 91.2361 132.389 91.4122C132.648 91.5884 132.953 91.6835 133.267 91.6848C141.908 91.2215 150.485 93.3984 157.844 97.9228C158.097 98.0878 158.393 98.1761 158.696 98.1769H159.037C159.236 98.1362 159.425 98.0549 159.591 97.9383C159.758 97.8218 159.898 97.6724 160.003 97.4995C161.426 95.1388 162.606 92.6423 163.527 90.0476C164.24 88.1111 165.084 86.2249 166.055 84.4022C167.993 85.6467 169.769 87.1259 171.34 88.8056C172.334 89.8782 173.187 90.9227 173.954 91.8824C174.98 93.3523 176.248 94.6403 177.704 95.693L174.863 97.4995C171.569 99.1406 168.766 101.613 166.737 104.669C166.58 104.943 166.512 105.258 166.543 105.571C166.573 105.884 166.701 106.181 166.907 106.419C172.857 112.638 176.744 120.519 178.045 129.001C178.104 129.411 178.317 129.785 178.642 130.045C178.807 130.166 178.996 130.253 179.196 130.302C179.396 130.35 179.604 130.359 179.807 130.327C182.538 129.886 185.214 129.157 187.79 128.154C189.778 127.437 191.809 126.843 193.871 126.376C194.155 128.653 194.155 130.957 193.871 133.235C193.701 134.674 193.445 136.057 193.218 137.187C192.783 138.882 192.601 140.632 192.678 142.38C191.402 141.937 190.15 141.429 188.927 140.856C185.682 139.123 182.042 138.248 178.358 138.316C178.04 138.35 177.739 138.479 177.496 138.685C177.252 138.892 177.078 139.166 176.994 139.473C175.234 147.893 170.92 155.577 164.634 161.49C164.483 161.621 164.36 161.782 164.272 161.961C164.184 162.14 164.134 162.335 164.123 162.534C164.183 162.9 164.375 163.231 164.663 163.466L164.606 163.522ZM146.394 61.6796C146.673 60.3872 147.389 59.2286 148.423 58.3967C149.456 57.5648 150.746 57.1096 152.076 57.1068C152.492 57.0653 152.91 57.0653 153.326 57.1068C154.071 57.2623 154.776 57.5648 155.401 57.9963C156.026 58.4279 156.557 58.9796 156.963 59.6189C157.388 60.251 157.68 60.9619 157.821 61.7088C157.963 62.4558 157.951 63.2236 157.787 63.9659C157.445 65.4642 156.527 66.7705 155.23 67.6071C154.591 68.0244 153.875 68.3095 153.123 68.4453C152.371 68.5811 151.599 68.5649 150.854 68.3976C150.104 68.2456 149.394 67.9446 148.764 67.5129C148.134 67.0812 147.598 66.5277 147.189 65.8853C146.389 64.6164 146.105 63.0926 146.394 61.6231V61.6796ZM102.922 68.6233C102.622 68.354 102.439 67.9796 102.411 67.5789C102.411 65.1514 111.701 61.6513 120.396 60.7763C128.369 60.102 136.375 61.636 143.524 65.2079C143.759 66.0842 144.122 66.9213 144.603 67.6919C145.413 68.9353 146.524 69.9566 147.835 70.6619C149.146 71.3672 150.614 71.734 152.105 71.7283C153.214 71.7212 154.311 71.5106 155.343 71.1073C155.534 71.224 155.747 71.3008 155.968 71.3331C160.188 71.9348 164.283 73.2022 168.101 75.0873L171.425 77.2326C172.732 78.0512 173.982 78.8132 174.522 79.2366L175.147 79.7729C175.971 80.4222 176.824 81.1278 177.648 81.89C178.188 82.3984 178.7 82.9355 179.182 83.4989H179.409C180.696 84.5367 181.548 86.0131 181.801 87.6409C182.053 89.2687 181.686 90.9315 180.772 92.3057C180.563 92.5986 180.265 92.8165 179.921 92.9268C179.154 92.9268 177.704 91.2895 176.341 89.6241C175.545 88.6079 174.664 87.5072 173.499 86.4064C171.365 84.17 168.903 82.2667 166.197 80.761C165.848 80.5598 165.435 80.5002 165.043 80.5949C164.651 80.6896 164.311 80.9312 164.095 81.269C162.647 83.6739 161.448 86.2178 160.515 88.8621C159.813 90.7902 158.997 92.6753 158.071 94.5075C150.849 90.3889 142.613 88.3554 134.29 88.6362C133.802 85.8937 133.869 83.082 134.488 80.3658C135.113 76.4987 135.739 72.5469 133.324 68.9339C132.291 67.4747 130.894 66.3069 129.27 65.5449C127.647 64.7829 125.852 64.4527 124.061 64.5868C123.838 64.5282 123.603 64.5282 123.379 64.5868C121.207 64.6137 119.041 64.8119 116.901 65.1797C113.485 65.8106 110.169 66.8929 107.042 68.3976C105.707 68.8075 104.287 68.8659 102.922 68.5669V68.6233ZM86.5564 70.0629C87.4712 69.3689 88.5723 68.9596 89.721 68.8869C90.8696 68.8141 92.0143 69.0812 93.0103 69.6542C94.0064 70.2272 94.8092 71.0805 95.3175 72.1065C95.8257 73.1324 96.0167 74.285 95.8662 75.4186C95.7156 76.5523 95.2306 77.6163 94.4719 78.4762C93.7132 79.336 92.7144 79.9532 91.6029 80.25C90.4913 80.5467 89.3165 80.5098 88.2261 80.1435C87.1357 79.7773 86.1787 79.0982 85.4764 78.1922C84.5283 76.964 84.11 75.4123 84.3124 73.8776C84.5149 72.3429 85.3218 70.9506 86.5564 70.0065V70.0629ZM62.5479 115.593C62.1491 115.614 61.7527 115.516 61.411 115.311C59.5926 113.702 62.9169 104.415 67.8892 97.2737C72.5483 90.8032 78.9212 85.7421 86.3005 82.6521C87.4905 83.2118 88.7914 83.501 90.108 83.4989C92.0575 83.4969 93.9528 82.8625 95.5061 81.6923C96.9095 80.6319 97.9592 79.1762 98.5181 77.5148C98.7218 77.4396 98.9131 77.335 99.0862 77.2044C101.821 74.7884 104.87 72.7472 108.15 71.1355C109.883 70.7403 111.787 70.1475 113.833 69.4983C115.31 69.0184 116.674 68.5951 117.384 68.4539H118.179C122.555 67.6636 128.011 66.6474 130.795 70.7403C130.992 71.0506 131.172 71.371 131.335 71.7001C131.293 71.8954 131.293 72.0975 131.335 72.2929C131.45 72.6317 131.45 72.9985 131.335 73.3373C130.88 74.0147 128.664 73.9301 126.505 73.8736C125.198 73.8736 123.664 73.8736 122.243 73.8736C119.112 74.0142 116.02 74.6135 113.066 75.6519C112.687 75.7868 112.375 76.0616 112.195 76.4191C112.015 76.7766 111.981 77.1894 112.099 77.5713C113 80.2234 114.171 82.777 115.594 85.1925C116.607 87.0189 117.508 88.9041 118.293 90.8378C110.479 93.6283 103.595 98.5131 98.4043 104.951C95.9782 103.503 93.8716 101.583 92.2105 99.3059C90.5638 97.1673 88.5423 95.3411 86.2436 93.9146C85.9838 93.6766 85.6984 93.4684 85.3918 93.2937C85.0793 93.184 84.738 93.184 84.4255 93.2937C83.8622 93.1119 83.281 92.9889 82.692 92.9268C75.7593 92.1646 72.0946 98.3744 69.708 102.496L69.3098 103.173C68.8552 103.964 68.3158 105.262 67.6054 106.871C66.4974 108.931 63.8833 115.169 62.5479 115.536V115.593ZM54.9613 130.299C54.9781 129.158 55.3343 128.048 55.9844 127.108C56.6346 126.167 57.5498 125.439 58.6155 125.014C59.6812 124.589 60.8494 124.486 61.9736 124.719C63.0977 124.952 64.1281 125.509 64.9341 126.322C65.7402 127.135 66.2867 128.166 66.5046 129.286C66.7225 130.406 66.6017 131.565 66.1585 132.617C65.7152 133.67 64.9689 134.568 64.0129 135.201C63.057 135.833 61.9343 136.17 60.786 136.17C60.0101 136.167 59.2431 136.01 58.5288 135.709C57.8145 135.408 57.1674 134.969 56.6254 134.417C56.0834 133.866 55.6568 133.213 55.3712 132.496C55.0856 131.779 54.9462 131.013 54.9613 130.243V130.299ZM76.7827 177.297C76.5869 177.649 76.2607 177.913 75.8733 178.031C73.4866 178.624 68.0884 170.184 65.3892 161.829C63.0768 154.134 62.8996 145.961 64.8772 138.174C66.3249 137.422 67.538 136.291 68.3844 134.902C69.2309 133.514 69.6789 131.922 69.6795 130.299C69.6907 128.539 69.1656 126.817 68.1736 125.359C68.2164 125.145 68.2164 124.924 68.1736 124.71C67.5842 117.719 68.9299 110.701 72.0657 104.415C72.9801 102.635 74.045 100.935 75.2483 99.3342C75.3314 99.2015 75.3984 99.0594 75.4474 98.9109C76.1956 97.8679 77.1979 97.0307 78.3608 96.4777C79.5236 95.9248 80.8085 95.6742 82.0955 95.7495C82.8683 95.8278 83.6198 96.0479 84.3117 96.3986C84.3117 96.3986 84.4824 96.5398 84.5108 96.6245C84.7949 97.4148 83.374 99.1649 82.0101 100.859C81.1862 101.846 80.2772 102.976 79.3964 104.218C77.6069 106.821 76.2185 109.675 75.2767 112.686C75.1477 113.06 75.1701 113.47 75.3398 113.828C75.5095 114.186 75.8133 114.465 76.1861 114.605C78.8584 115.52 81.6198 116.154 84.4255 116.496C86.4677 116.78 88.489 117.194 90.4771 117.738C87.9513 125.708 87.6865 134.214 89.7106 142.324C87.1129 143.37 84.3301 143.888 81.5274 143.848C77.6064 144.074 73.5438 144.3 70.532 147.433C69.1702 148.976 68.2658 150.864 67.9197 152.887C67.5736 154.911 67.7988 156.989 68.571 158.893C68.571 159.09 68.7133 159.26 68.7701 159.458C68.969 160.107 69.1962 160.728 69.4235 161.32L69.8495 162.421C70.0199 162.788 70.1624 163.155 70.3045 163.494L70.6167 164.228C71.1833 165.466 71.8193 166.673 72.5208 167.841C73.913 169.958 77.3225 175.97 76.7827 177.24V177.297ZM92.7218 191.41C91.774 192.564 90.417 193.313 88.9302 193.502C87.4434 193.69 85.9403 193.305 84.7307 192.426C83.5212 191.546 82.6974 190.239 82.4291 188.774C82.1609 187.309 82.4689 185.798 83.2893 184.551C83.7338 183.93 84.2997 183.405 84.9541 183.007C85.6084 182.609 86.3371 182.347 87.0961 182.237H87.9771C89.2238 182.238 90.4375 182.634 91.4433 183.366C92.064 183.813 92.5899 184.378 92.9902 185.028C93.3906 185.678 93.6573 186.4 93.7761 187.153C93.8949 187.905 93.8634 188.674 93.6825 189.414C93.5015 190.155 93.1748 190.852 92.7218 191.467V191.41ZM135.341 203.915C134.289 206.117 124.373 205.552 116.077 202.814C108.483 200.189 101.775 195.517 96.7 189.322C96.8589 188.387 96.8589 187.433 96.7 186.499C96.5225 185.345 96.117 184.237 95.5075 183.24C94.8981 182.242 94.0966 181.373 93.1484 180.684C91.7277 179.645 90.0248 179.054 88.2615 178.99C88.1396 178.813 87.985 178.66 87.8064 178.539C81.8201 174.898 76.9553 169.694 73.7423 163.494C73.373 162.788 73.0601 162.026 72.7192 161.264L72.2364 159.994C72.0659 159.542 71.8956 159.062 71.7536 158.582C71.0087 157.122 70.7058 155.478 70.8823 153.849C71.0588 152.221 71.7067 150.679 72.7476 149.409L72.9182 149.268C73.1962 149.351 73.4928 149.351 73.7708 149.268C74.086 149.079 74.4587 149.008 74.8217 149.07C75.5888 149.296 76.1575 151.441 76.7258 153.53C77.0383 154.772 77.4075 156.155 77.9189 157.595C78.9289 160.544 80.3853 163.323 82.2377 165.837C82.4673 166.162 82.8155 166.385 83.2081 166.459C83.6008 166.532 84.0069 166.451 84.3402 166.232C86.6551 164.63 88.7974 162.795 90.733 160.756C92.1543 159.273 93.6835 157.896 95.3078 156.635C100.231 163.333 106.929 168.541 114.656 171.68C113.986 174.38 112.768 176.916 111.076 179.132C108.945 182.406 106.73 185.793 107.44 190.056C108.378 195.249 112.64 197.479 116.674 198.749C118.02 199.263 119.396 199.697 120.794 200.048C123.788 200.776 126.86 201.136 129.943 201.121C131.82 201.212 133.646 201.765 135.255 202.729C135.428 203.069 135.487 203.455 135.426 203.83L135.341 203.915ZM150.656 207.782C149.535 208.052 148.36 207.986 147.277 207.592C146.195 207.198 145.255 206.494 144.576 205.568C143.896 204.643 143.508 203.538 143.461 202.394C143.415 201.25 143.711 200.118 144.312 199.141C144.913 198.164 145.792 197.386 146.839 196.905C147.885 196.425 149.052 196.264 150.191 196.443C151.329 196.622 152.389 197.132 153.235 197.91C154.082 198.687 154.677 199.697 154.946 200.81C155.267 202.268 155.008 203.792 154.224 205.065C153.441 206.338 152.193 207.26 150.741 207.641L150.656 207.782ZM191.172 175.886C191.549 176.022 191.869 176.28 192.081 176.619C193.104 178.821 186.398 185.963 178.812 190.479C171.917 194.465 164.058 196.504 156.082 196.378C155.023 195.157 153.647 194.248 152.104 193.751C150.561 193.253 148.91 193.186 147.331 193.556C145.609 193.961 144.047 194.865 142.842 196.153C142.637 196.097 142.422 196.097 142.217 196.153C138.339 197.376 134.295 198.004 130.226 198.015L125.681 197.423C124.146 197.253 122.697 197.112 122.015 196.943L121.22 196.745C120.14 196.491 118.975 196.209 117.839 195.842L115.992 195.136H115.793C114.5 194.74 113.336 194.007 112.422 193.015C111.508 192.023 110.877 190.806 110.593 189.491C110.537 189.003 110.537 188.511 110.593 188.023C110.658 187.918 110.706 187.804 110.736 187.685C110.807 187.338 110.986 187.022 111.247 186.781C111.929 186.358 114.089 187.289 115.907 188.221C117.072 188.785 118.35 189.406 119.771 189.942C122.686 191.097 125.761 191.801 128.891 192.031C129.288 192.056 129.679 191.93 129.985 191.678C130.291 191.426 130.489 191.068 130.539 190.676C130.83 187.861 130.83 185.024 130.539 182.208C130.335 180.173 130.259 178.128 130.312 176.083C138.615 176.693 146.927 175.003 154.321 171.2C155.935 173.467 157.084 176.028 157.702 178.736C158.838 182.491 159.974 186.329 163.725 188.559C165.383 189.472 167.258 189.924 169.152 189.869C171.047 189.815 172.891 189.255 174.493 188.249H174.692C176.676 187.307 178.577 186.203 180.375 184.947C183.053 182.992 185.469 180.706 187.563 178.144C188.589 177.068 189.854 176.247 191.257 175.745L191.172 175.886ZM205.378 167.417C204.849 168.388 204.044 169.182 203.065 169.703C202.085 170.224 200.973 170.448 199.867 170.348C198.761 170.248 197.708 169.828 196.84 169.14C195.971 168.452 195.325 167.526 194.98 166.476C194.636 165.427 194.609 164.3 194.902 163.236C195.195 162.171 195.796 161.216 196.63 160.487C197.465 159.758 198.496 159.288 199.596 159.135C200.696 158.982 201.817 159.153 202.821 159.627C204.193 160.322 205.235 161.527 205.719 162.98C206.203 164.434 206.091 166.018 205.407 167.389L205.378 167.417ZM210.379 134.9C208.96 142.727 205.413 150.018 200.122 155.986C198.872 155.985 197.637 156.247 196.497 156.756C195.357 157.264 194.338 158.007 193.508 158.936C192.679 159.864 192.057 160.956 191.683 162.141C191.31 163.326 191.193 164.576 191.342 165.809C191.193 165.969 191.069 166.149 190.973 166.345C189.536 169.773 187.624 172.984 185.29 175.886C183.955 176.986 182.449 178.257 181 179.696C180.099 180.565 179.15 181.385 178.159 182.152L177.505 182.632C173.897 185.229 169.407 188.475 165.146 185.963C164.837 185.759 164.551 185.522 164.294 185.257C164.257 185.059 164.168 184.874 164.038 184.721C163.814 184.438 163.684 184.092 163.668 183.733C163.668 182.942 165.828 182.039 167.788 181.164C168.982 180.656 170.288 180.063 171.624 179.357C174.396 177.862 176.926 175.959 179.125 173.712C179.403 173.423 179.558 173.039 179.558 172.639C179.558 172.24 179.403 171.856 179.125 171.567C177.165 169.565 175.004 167.768 172.675 166.204C170.983 165.028 169.361 163.755 167.817 162.393C173.664 156.5 177.755 149.114 179.636 141.054C182.427 141.303 185.141 142.099 187.62 143.397C190.486 144.966 193.725 145.736 196.996 145.626C197.681 145.553 198.358 145.411 199.014 145.203C205.634 142.917 206.174 135.747 206.543 131.089V130.299C206.543 129.396 206.543 128.013 206.543 126.234C206.401 123.722 206.088 116.976 207.111 116.073C207.449 115.861 207.854 115.78 208.248 115.847C210.748 116.524 211.8 126.291 210.407 134.872L210.379 134.9Z" fill="white"/>
<path d="M149.758 212C147.627 212.005 145.556 211.29 143.884 209.97C142.212 208.65 141.037 206.805 140.55 204.733C140.264 203.486 140.264 202.191 140.55 200.944L139.02 201.284C139.183 201.527 139.307 201.794 139.388 202.075C139.889 203.289 139.889 204.651 139.388 205.864C138.312 208.155 135.393 209.314 130.69 209.314C125.594 209.155 120.548 208.27 115.703 206.684C108.321 204.107 101.699 199.734 96.4375 193.96C95.6933 194.964 94.7578 195.813 93.6852 196.456C92.6126 197.1 91.4237 197.527 90.1859 197.712C88.9481 197.897 87.6861 197.837 86.4715 197.535C85.2569 197.234 84.1135 196.696 83.1071 195.954C82.1007 195.211 81.251 194.278 80.6059 193.207C79.9609 192.137 79.5332 190.95 79.3477 189.714C79.1622 188.479 79.2225 187.219 79.5248 186.007C79.8271 184.795 80.3653 183.654 81.1095 182.649C81.8711 181.626 82.8354 180.769 83.9427 180.133C83.0077 179.455 82.1012 178.719 81.2513 177.984C81.1859 178.654 80.9521 179.295 80.5713 179.85C79.8176 180.935 78.6869 181.701 77.3985 181.999H76.5768C70.2021 181.999 64.3087 168.087 62.7221 163.224C60.4617 155.7 60.0922 147.737 61.6458 140.038C60.2229 140.052 58.8145 139.749 57.524 139.151C56.2335 138.552 55.0936 137.673 54.1873 136.578C53.2809 135.483 52.6312 134.2 52.2858 132.822C51.9403 131.445 51.9075 130.007 52.1903 128.615C52.4731 127.223 53.0643 125.912 53.9203 124.778C54.7762 123.643 55.8752 122.714 57.1373 122.058C58.3994 121.402 59.7927 121.035 61.2149 120.986C62.6371 120.936 64.0526 121.205 65.3575 121.771C65.3575 120.791 65.3575 119.801 65.3575 118.802C64.7673 119.215 64.0667 119.442 63.346 119.453C62.0349 119.522 60.747 119.087 59.7478 118.237C54.6764 113.741 62.5805 99.8574 65.612 95.3332C70.1616 89.01 76.2181 83.9177 83.2344 80.5166C82.4791 79.527 81.9265 78.3987 81.6082 77.196C81.2898 75.9932 81.2122 74.7397 81.3792 73.507C81.7166 71.0173 83.031 68.7634 85.0335 67.241C87.036 65.7187 89.5624 65.0526 92.0569 65.3894C94.5515 65.7261 96.8101 67.038 98.3355 69.0366C99.1079 70.0411 99.6585 71.1975 99.9506 72.4297L101.169 71.5249L100.801 71.129C99.8932 70.1748 99.3863 68.91 99.3841 67.5945C99.5257 60.8365 115.165 57.7545 120.633 57.2172C128.385 56.5487 136.18 57.8421 143.299 60.9778C143.502 59.707 143.962 58.4909 144.652 57.4038C145.342 56.3166 146.248 55.3812 147.312 54.6545C148.376 53.9279 149.577 53.4253 150.842 53.1774C152.107 52.9295 153.41 52.9415 154.671 53.2128C155.931 53.484 157.124 54.0086 158.174 54.7548C159.225 55.501 160.111 56.4531 160.781 57.5529C161.451 58.6526 161.889 59.8769 162.069 61.1512C162.249 62.4256 162.166 63.7232 161.827 64.9648C161.573 66.2116 161.052 67.3885 160.298 68.4144L161.799 68.7537C161.757 68.4726 161.757 68.1866 161.799 67.9055C161.95 66.5999 162.587 65.3986 163.584 64.5406C168.825 60.2709 181.319 70.1959 185.286 73.9849C190.814 79.4976 194.876 86.3013 197.101 93.7781C199.319 92.6035 201.913 92.3516 204.317 93.0772C206.721 93.8028 208.741 95.4471 209.935 97.6519C211.112 99.8662 211.364 102.455 210.637 104.854C209.91 107.253 208.263 109.269 206.053 110.461C204.926 111.052 203.694 111.417 202.427 111.535C203.05 112.704 203.617 113.892 204.127 115.098C204.488 114.235 205.139 113.525 205.968 113.09C207.12 112.464 208.469 112.302 209.737 112.638C216.253 114.504 215.233 130.396 214.354 135.796C212.995 143.457 209.743 150.659 204.892 156.749C207.124 157.896 208.809 159.88 209.579 162.264C210.349 164.649 210.141 167.241 209 169.473C207.85 171.7 205.865 173.383 203.477 174.156C201.089 174.929 198.492 174.73 196.251 173.601C195.159 172.979 194.197 172.154 193.417 171.17C193.191 171.65 192.964 172.159 192.709 172.64L193.219 172.809C194.459 173.272 195.474 174.194 196.052 175.383C198.885 181.547 186.079 191.076 181.376 193.904C174.664 197.85 167.064 200.048 159.277 200.294C159.824 202.722 159.394 205.267 158.08 207.382C156.766 209.497 154.673 211.013 152.251 211.604C151.441 211.843 150.603 211.976 149.758 212ZM142.136 199.304L141.854 200.294C141.487 201.655 141.487 203.089 141.854 204.451C142.276 206.263 143.302 207.878 144.764 209.034C146.225 210.189 148.035 210.816 149.899 210.813C150.548 210.809 151.195 210.733 151.826 210.586C153.962 210.076 155.807 208.742 156.96 206.877C158.112 205.011 158.477 202.767 157.974 200.633C157.974 200.633 157.974 200.379 157.974 200.266C157.986 200.172 157.986 200.077 157.974 199.983L157.747 199.219H158.541C166.4 199.103 174.093 196.95 180.867 192.97C187.808 188.757 197.101 180.444 195.033 176.005C194.573 175.09 193.784 174.382 192.823 174.025C192.526 173.904 192.208 173.846 191.887 173.856H190.754L191.293 172.951C191.743 172.193 192.15 171.409 192.511 170.604L193.332 168.907L193.899 169.784C194.682 170.985 195.766 171.959 197.044 172.612C198.2 173.209 199.482 173.519 200.783 173.516C202.637 173.503 204.434 172.871 205.886 171.721C207.338 170.57 208.362 168.968 208.796 167.169C209.229 165.37 209.047 163.478 208.278 161.794C207.509 160.111 206.197 158.733 204.552 157.88H204.184H203.9L203.163 157.569L203.673 156.947C208.675 150.887 212.023 143.64 213.392 135.909C214.695 127.935 214.383 115.466 209.623 114.109C209.108 113.949 208.564 113.909 208.031 113.989C207.498 114.07 206.99 114.271 206.545 114.575C206.101 114.88 205.732 115.281 205.465 115.749C205.198 116.217 205.041 116.739 205.005 117.275L204.552 119.227L203.843 117.36C203.035 115.41 202.088 113.521 201.01 111.705L200.5 110.828H201.662C202.917 110.823 204.154 110.533 205.279 109.98C206.405 109.427 207.391 108.625 208.16 107.636C208.93 106.647 209.464 105.497 209.722 104.271C209.98 103.045 209.956 101.777 209.65 100.563C209.345 99.348 208.767 98.2185 207.96 97.2598C207.152 96.3011 206.137 95.5382 204.991 95.029C203.845 94.5197 202.597 94.2772 201.343 94.3202C200.089 94.3631 198.861 94.6902 197.752 95.2766L197.412 95.5029L196.506 96.0967L196.279 95.3332C194.14 87.7828 190.091 80.9083 184.521 75.3704C178.684 69.7152 168.259 62.9006 164.406 66.011C163.652 66.6822 163.178 67.6099 163.074 68.6124C163.023 69.0558 163.091 69.5048 163.272 69.9131L163.726 71.0441L162.564 70.7048C161.544 70.422 160.439 70.1676 159.192 69.9414L158.173 69.7435L158.853 68.9517C160.053 67.6101 160.778 65.9117 160.917 64.1183C161.055 62.3248 160.599 60.5358 159.618 59.0267C158.424 57.2215 156.57 55.9538 154.453 55.4941C152.335 55.0345 150.122 55.4194 148.285 56.5667C147.369 57.152 146.579 57.9136 145.961 58.8069C145.343 59.7002 144.91 60.7074 144.687 61.7696C144.687 61.911 144.687 62.0524 144.687 62.1655V63.2681L143.922 62.9288C136.785 59.647 128.915 58.2732 121.086 58.942C113.011 59.762 101.027 63.24 100.913 68.16C100.91 69.2134 101.317 70.2269 102.047 70.9876C102.277 71.2333 102.557 71.4263 102.869 71.5532L103.832 72.0055L102.954 72.5994C102.132 73.1649 101.253 73.7869 100.262 74.6069L99.4408 75.2573L99.299 74.211C99.0924 72.8191 98.5475 71.4989 97.7123 70.3655C96.3451 68.7088 94.3871 67.6464 92.2506 67.4019C90.1142 67.1573 87.966 67.7497 86.2585 69.0543C84.5509 70.359 83.4176 72.2741 83.0967 74.3963C82.7758 76.5185 83.2926 78.6822 84.5382 80.4317L84.7928 80.658L85.0196 80.9125L85.5578 81.5062L84.8495 81.8738C77.7076 85.174 71.54 90.2581 66.9435 96.634C62.3254 103.307 57.1977 114.702 60.8808 117.982C61.6774 118.629 62.6891 118.952 63.714 118.887C64.1748 118.845 64.622 118.707 65.0268 118.483C65.4316 118.259 65.7853 117.954 66.0658 117.586L67.2838 116.314L67.1137 118.067C66.9398 119.824 66.8646 121.589 66.8875 123.355V124.429L65.9807 123.892C64.872 123.297 63.6419 122.961 62.3839 122.91C61.1259 122.859 59.8727 123.094 58.7192 123.598C57.5658 124.101 56.5424 124.86 55.7263 125.817C54.9101 126.774 54.3223 127.903 54.0081 129.12C53.6939 130.337 53.6615 131.609 53.9127 132.84C54.1638 134.072 54.6921 135.23 55.4579 136.227C56.2237 137.225 57.2073 138.035 58.3333 138.597C59.4593 139.159 60.6981 139.459 61.9571 139.472H62.3541H63.4588L63.2893 140.264C61.5972 148 61.9087 156.038 64.1954 163.62C66.5186 170.858 72.1566 181.575 76.888 181.575H77.4836C78.4853 181.346 79.3585 180.738 79.9198 179.878C80.3552 179.147 80.4974 178.278 80.3168 177.447L80.0899 175.807L81.308 176.938C82.7105 178.21 84.1864 179.4 85.7279 180.501L86.6064 181.094L85.6428 181.519C84.3602 182.095 83.2482 182.99 82.4133 184.12C81.2444 185.895 80.8031 188.05 81.1807 190.141C81.5583 192.231 82.7256 194.097 84.4421 195.352C86.1585 196.608 88.2928 197.158 90.4038 196.888C92.5148 196.619 94.4416 195.55 95.7859 193.904C95.8685 193.801 95.9348 193.687 95.9837 193.564L96.5509 192.631L97.089 193.225C102.3 199.136 108.943 203.614 116.383 206.232C121.11 207.77 126.033 208.628 131.002 208.777C133.835 208.777 137.547 208.324 138.623 205.949C138.969 205.038 138.969 204.032 138.623 203.122C138.457 202.708 138.195 202.34 137.858 202.047L136.952 201.227L138.17 201.001C139.275 200.803 140.408 200.577 141.57 200.266L142.136 199.304ZM149.758 208.946C148.322 208.922 146.934 208.428 145.807 207.539C144.681 206.65 143.879 205.415 143.525 204.026C143.23 202.798 143.306 201.51 143.745 200.325C144.183 199.14 144.964 198.111 145.988 197.368C147.012 196.626 148.233 196.203 149.498 196.152C150.762 196.102 152.013 196.427 153.093 197.086C154.173 197.746 155.033 198.709 155.564 199.856C156.095 201.003 156.274 202.28 156.078 203.528C155.881 204.776 155.319 205.938 154.461 206.867C153.604 207.796 152.489 208.451 151.259 208.749C150.77 208.881 150.265 208.948 149.758 208.946ZM149.758 197.353C149.363 197.312 148.963 197.312 148.568 197.353C147.563 197.586 146.65 198.114 145.947 198.867C145.244 199.621 144.782 200.567 144.621 201.585C144.46 202.602 144.606 203.644 145.042 204.578C145.477 205.512 146.182 206.294 147.066 206.826C147.641 207.189 148.285 207.431 148.957 207.538C149.629 207.645 150.316 207.614 150.976 207.448C152.244 207.181 153.365 206.451 154.12 205.401C154.875 204.351 155.209 203.057 155.057 201.774C154.904 200.49 154.276 199.31 153.295 198.466C152.314 197.622 151.053 197.174 149.758 197.212V197.353ZM130.634 206.26C125.815 206.131 121.042 205.292 116.468 203.772C108.865 201.112 102.134 196.429 97.004 190.228L96.8054 190.001V189.747C97.0577 188.251 96.8865 186.715 96.3109 185.311C95.7352 183.907 94.7782 182.692 93.5476 181.801C92.2179 180.834 90.6299 180.283 88.9858 180.218H88.5044L88.3342 179.963C88.2718 179.851 88.185 179.754 88.0797 179.681C82.0533 175.96 77.1561 170.672 73.9137 164.383C73.5454 163.648 73.2051 162.857 72.8935 162.093L72.3837 160.82L71.8732 159.378C71.1428 157.8 70.8651 156.05 71.0702 154.323C71.2752 152.596 71.9553 150.96 73.0353 149.595L73.3749 149.284H73.6869C73.8632 149.331 74.0486 149.331 74.225 149.284C74.6681 149.021 75.1926 148.931 75.6983 149.029C76.7466 149.34 77.2567 151.093 77.9934 153.921C78.305 155.08 78.6731 156.523 79.1831 157.965C80.173 160.866 81.5962 163.602 83.4045 166.08C83.4725 166.179 83.5599 166.264 83.6611 166.329C83.7624 166.395 83.8758 166.439 83.9945 166.46C84.1133 166.481 84.2352 166.479 84.3528 166.452C84.4705 166.426 84.5811 166.376 84.6793 166.306C86.9655 164.738 89.075 162.927 90.9696 160.905C92.4124 159.408 93.955 158.01 95.5874 156.721L96.0688 156.353L96.4375 156.862C101.325 163.452 107.916 168.593 115.505 171.735L115.929 171.933V172.385C115.245 175.161 114.001 177.768 112.275 180.048C110.206 183.243 108.053 186.523 108.733 190.595C109.274 192.652 110.385 194.515 111.938 195.97C113.492 197.426 115.425 198.415 117.516 198.824C121.689 200.399 126.116 201.195 130.578 201.17C135.111 201.906 136.046 202.528 136.244 203.065C136.443 203.574 136.443 204.139 136.244 204.648C135.819 205.751 133.609 206.26 130.634 206.26ZM97.9391 189.492C102.904 195.516 109.431 200.064 116.808 202.641C125.647 205.468 134.572 205.468 135.309 204.055C135.358 203.85 135.358 203.637 135.309 203.433C133.794 202.663 132.133 202.22 130.436 202.132C127.354 202.13 124.283 201.769 121.285 201.057C119.861 200.698 118.461 200.255 117.092 199.728C114.783 199.278 112.653 198.175 110.955 196.551C109.258 194.926 108.063 192.849 107.515 190.567C106.75 186.043 109.045 182.565 111.227 179.256C112.754 177.203 113.905 174.896 114.626 172.442C107.207 169.307 100.74 164.286 95.871 157.88C94.4713 159.039 93.1371 160.276 91.8757 161.584C89.9142 163.677 87.7504 165.571 85.416 167.239C84.9608 167.515 84.4196 167.613 83.8963 167.514C83.373 167.415 82.9048 167.125 82.5828 166.702C80.7005 164.106 79.2118 161.248 78.1635 158.219C77.6819 156.749 77.2848 155.391 76.9731 154.147C76.7374 152.711 76.2379 151.331 75.4998 150.076C75.2809 150.078 75.0663 150.136 74.8766 150.245C74.606 150.386 74.3032 150.454 73.9981 150.443C72.1849 152.423 71.9305 155.052 73.2055 158.926C73.3471 159.378 73.5169 159.831 73.6869 160.312L74.1683 161.556C74.4799 162.291 74.7919 163.054 75.1602 163.761C78.3137 169.868 83.0859 174.993 88.9575 178.578L89.4112 178.945C91.1882 179.093 92.8919 179.718 94.3409 180.755C96.3672 182.242 97.7214 184.468 98.1086 186.947C98.1745 187.799 98.1178 188.657 97.9391 189.492ZM130.662 199.106C129.189 198.908 127.687 198.71 126.044 198.541C124.401 198.371 123.012 198.173 122.333 198.003L121.539 197.806C120.491 197.551 119.301 197.268 118.139 196.929H117.8L116.213 196.307C114.809 195.894 113.542 195.112 112.545 194.042C111.548 192.972 110.858 191.655 110.547 190.228C110.487 189.701 110.487 189.17 110.547 188.644V188.39V188.192C110.582 187.939 110.668 187.696 110.799 187.478C110.931 187.259 111.105 187.069 111.312 186.919C112.218 186.354 113.889 186.919 116.524 188.333C117.686 188.898 118.961 189.492 120.349 190.058C123.195 191.179 126.194 191.866 129.245 192.094C129.489 192.118 129.733 192.045 129.924 191.892C130.115 191.739 130.237 191.517 130.266 191.274C130.536 188.519 130.536 185.744 130.266 182.989C130.05 180.923 129.974 178.844 130.039 176.768V176.09H130.662C138.835 176.7 147.018 175.026 154.291 171.254L154.716 171.056L154.999 171.396C156.675 173.716 157.861 176.352 158.484 179.143C159.589 182.819 160.694 186.552 164.15 188.672C165.714 189.531 167.481 189.955 169.265 189.901C171.049 189.846 172.785 189.314 174.293 188.361H174.576C179.411 185.993 183.667 182.595 187.043 178.408C189.876 176.005 190.924 175.75 191.463 175.807H191.632C192.153 175.979 192.59 176.343 192.851 176.825C194.126 179.652 186.533 187.117 179.393 191.472C172.419 195.535 164.463 197.618 156.387 197.494H156.105L155.878 197.268C155.123 196.386 154.189 195.674 153.138 195.178C152.087 194.683 150.943 194.416 149.78 194.394C148.618 194.373 147.465 194.598 146.397 195.054C145.328 195.511 144.368 196.188 143.581 197.042L143.384 197.268H143.072C142.941 197.24 142.806 197.24 142.675 197.268C138.784 198.462 134.733 199.063 130.662 199.05V199.106ZM116.496 195.034H116.694L118.196 195.628H118.536C119.641 195.968 120.803 196.25 121.823 196.505L122.616 196.703C123.296 196.873 124.883 197.042 126.186 197.183L130.775 197.777C134.737 197.759 138.673 197.14 142.448 195.939C142.636 195.91 142.827 195.91 143.015 195.939C143.914 195.025 144.99 194.302 146.179 193.817C147.367 193.332 148.643 193.094 149.926 193.118C151.21 193.142 152.475 193.427 153.645 193.956C154.814 194.485 155.863 195.246 156.728 196.194C164.509 196.29 172.168 194.267 178.883 190.341C186.787 185.562 192.567 178.776 191.887 177.221C191.751 177.058 191.576 176.931 191.378 176.853C190.12 177.386 188.975 178.153 188.006 179.115C185.91 181.693 183.492 183.993 180.81 185.958C179.015 187.23 177.12 188.355 175.144 189.323H174.86C173.17 190.384 171.222 190.966 169.225 191.006C167.229 191.046 165.259 190.542 163.527 189.549C159.617 187.202 158.428 183.244 157.266 179.398C156.722 176.918 155.765 174.548 154.433 172.385C147.263 175.99 139.273 177.657 131.257 177.221C131.235 179.014 131.31 180.808 131.484 182.593C131.763 185.414 131.763 188.255 131.484 191.076C131.413 191.621 131.136 192.118 130.709 192.465C130.282 192.812 129.738 192.983 129.189 192.942C126.012 192.702 122.889 191.987 119.925 190.821C118.508 190.256 117.091 189.634 116.071 189.096C115.051 188.559 112.473 187.372 111.992 187.598C111.992 187.598 111.85 187.768 111.736 188.135C111.717 188.267 111.668 188.392 111.595 188.503C111.55 188.897 111.55 189.296 111.595 189.69C111.86 190.901 112.448 192.017 113.295 192.923C114.143 193.829 115.22 194.49 116.412 194.837L116.496 195.034ZM88.5611 194.78C87.195 194.78 85.8645 194.344 84.7644 193.536C84.0789 193.046 83.4996 192.422 83.0614 191.703C82.6233 190.984 82.3355 190.184 82.2148 189.351C82.012 188.099 82.1885 186.816 82.7218 185.665C83.2551 184.514 84.1208 183.548 85.2078 182.892C86.2947 182.236 87.5537 181.919 88.8226 181.981C90.0915 182.044 91.3126 182.483 92.3295 183.243C93.0141 183.734 93.5943 184.356 94.0366 185.072C94.4789 185.788 94.7743 186.585 94.906 187.416C95.0378 188.247 95.0028 189.096 94.8037 189.913C94.6045 190.731 94.2454 191.501 93.7461 192.178C93.2503 192.858 92.6245 193.433 91.9048 193.87C91.1851 194.307 90.3857 194.597 89.553 194.723L88.5611 194.78ZM88.5611 183.187H87.7394C86.3815 183.411 85.1632 184.15 84.3397 185.251C83.9322 185.801 83.6398 186.428 83.4792 187.093C83.3186 187.759 83.2929 188.449 83.4045 189.125C83.6209 190.487 84.3675 191.708 85.4817 192.524C86.5959 193.339 87.9879 193.683 89.3545 193.479C90.0345 193.379 90.6875 193.145 91.276 192.791C91.8646 192.436 92.3767 191.969 92.7825 191.415C93.5812 190.303 93.9165 188.924 93.7177 187.57C93.518 186.343 92.8913 185.225 91.9484 184.414C91.0054 183.602 89.8063 183.147 88.5611 183.13V183.187ZM128.565 190.001H127.914C125.573 189.705 123.279 189.116 121.086 188.248C119.698 187.711 118.423 187.089 117.403 186.58C115.862 185.713 114.186 185.111 112.445 184.798H111.51L111.963 183.979C112.502 183.046 113.125 182.084 113.748 181.151C115.953 178.338 117.371 174.991 117.857 171.452C117.868 171.258 117.819 171.064 117.718 170.898C117.617 170.731 117.467 170.599 117.289 170.519C109.095 167.378 102.057 161.814 97.1174 154.572C97.0503 154.469 96.9631 154.381 96.8608 154.312C96.7585 154.244 96.6434 154.198 96.5225 154.176C96.401 154.151 96.2755 154.151 96.1539 154.175C96.0323 154.2 95.917 154.248 95.8142 154.317C93.5827 155.879 91.5131 157.66 89.6374 159.633C88.1712 161.174 86.5897 162.601 84.9062 163.902L84.3964 164.298L84.0561 163.761C82.7537 161.79 81.707 159.661 80.94 157.427C80.4867 156.042 80.118 154.6 79.8063 153.525C79.488 151.657 78.7837 149.876 77.7381 148.294L77.0298 147.474L78.0785 147.305C79.4957 147.091 80.9241 146.959 82.3566 146.909C85.9314 146.992 89.466 146.144 92.6124 144.449C92.7801 144.351 92.9122 144.202 92.9887 144.024C93.0652 143.846 93.0825 143.648 93.0378 143.459C90.7403 134.954 91.0756 125.954 94.0006 117.643C94.0505 117.527 94.0767 117.402 94.0767 117.275C94.0767 117.149 94.0505 117.024 94.0006 116.908C93.9487 116.795 93.874 116.694 93.7813 116.612C93.6887 116.529 93.5804 116.466 93.4625 116.427C90.8898 115.54 88.2308 114.924 85.5294 114.589C83.4119 114.317 81.3187 113.882 79.2682 113.288L78.645 113.119L78.8718 112.525C79.7151 110.302 80.8179 108.185 82.1581 106.219C83.008 105.032 83.8576 103.957 84.6226 103.024C85.7326 101.79 86.6843 100.422 87.4558 98.9525L87.7961 98.1042L88.4193 98.7547C89.2126 99.5464 89.9778 100.423 90.8278 101.413C92.9268 104.301 95.737 106.599 98.9871 108.086C99.1695 108.153 99.3691 108.163 99.557 108.112C99.7449 108.061 99.9122 107.953 100.036 107.803C105.359 100.852 112.684 95.692 121.029 93.0146C121.146 92.9819 121.255 92.9247 121.348 92.8467C121.44 92.7686 121.515 92.6716 121.567 92.5622C121.665 92.3269 121.665 92.0624 121.567 91.827C120.675 89.2544 119.537 86.7736 118.168 84.4187C117.106 82.5943 116.16 80.7056 115.335 78.7635L115.108 78.1414L115.732 77.9717C117.991 77.3048 120.32 76.9062 122.673 76.7842C124.004 76.7842 125.251 76.7842 126.356 76.7842H126.752C128.567 76.9677 130.4 76.8239 132.164 76.36L133.042 75.9924V76.9538C133.042 78.0566 132.759 79.1877 132.561 80.5166C131.722 83.9818 131.79 87.604 132.759 91.0352C132.827 91.2144 132.946 91.3695 133.103 91.4803C133.259 91.5911 133.445 91.6528 133.637 91.6574C142.382 91.1828 151.064 93.3932 158.512 97.9912C158.614 98.0619 158.73 98.111 158.852 98.1353C158.974 98.1596 159.099 98.1587 159.221 98.1325C159.465 98.0694 159.677 97.9184 159.816 97.7085C161.215 95.3717 162.373 92.8989 163.272 90.3283C163.981 88.3283 164.834 86.3817 165.822 84.5035L166.133 83.9379L166.701 84.2774C168.673 85.5607 170.481 87.08 172.083 88.8015C173.075 89.9042 173.953 90.9504 174.69 91.8835C175.689 93.2969 176.903 94.5468 178.288 95.5878L179.053 96.0684L178.316 96.6057C177.495 97.1712 176.56 97.7651 175.483 98.4154C172.296 100.01 169.581 102.408 167.607 105.371C167.496 105.528 167.437 105.716 167.437 105.908C167.437 106.101 167.496 106.288 167.607 106.446C173.661 112.776 177.618 120.811 178.94 129.462C178.982 129.708 179.113 129.929 179.308 130.084C179.408 130.16 179.522 130.214 179.644 130.243C179.766 130.273 179.893 130.276 180.017 130.254C182.688 129.814 185.308 129.103 187.836 128.133C189.841 127.383 191.895 126.769 193.984 126.296H194.636V126.946C194.919 129.284 194.919 131.648 194.636 133.987C194.466 135.372 194.211 136.814 193.984 137.86C193.568 139.533 193.387 141.256 193.446 142.978V143.911L192.539 143.629C191.264 143.205 189.905 142.611 188.715 142.102C185.578 140.401 182.056 139.534 178.487 139.585C178.294 139.607 178.113 139.686 177.966 139.812C177.82 139.938 177.715 140.106 177.665 140.292C175.874 148.84 171.504 156.635 165.142 162.63C164.972 162.808 164.862 163.036 164.83 163.28C164.827 163.539 164.918 163.79 165.086 163.987C167.006 165.913 169.102 167.655 171.347 169.19C173.1 170.402 174.766 171.734 176.333 173.177L176.815 173.601L176.333 174.054C174.609 175.618 172.707 176.974 170.667 178.097C169.364 178.776 168.089 179.341 166.984 179.822C165.251 180.459 163.655 181.419 162.281 182.649L161.601 183.385L161.26 182.452C160.892 181.49 160.524 180.388 160.127 179.087C159.392 175.602 157.762 172.366 155.396 169.699C155.26 169.558 155.08 169.465 154.886 169.435C154.692 169.404 154.493 169.438 154.319 169.53C146.637 173.709 137.859 175.445 129.161 174.506C128.917 174.48 128.673 174.552 128.481 174.704C128.376 174.773 128.288 174.864 128.224 174.972C128.161 175.08 128.122 175.201 128.112 175.326C127.827 178.024 127.827 180.744 128.112 183.441C128.319 185.565 128.385 187.7 128.311 189.832L128.565 190.001ZM113.437 183.639C114.99 184.067 116.491 184.664 117.913 185.421C118.933 185.901 120.179 186.523 121.539 187.061C123.436 187.813 125.414 188.344 127.432 188.644C127.464 186.755 127.378 184.867 127.177 182.989C126.901 180.168 126.901 177.327 127.177 174.506C127.207 174.222 127.295 173.947 127.437 173.699C127.578 173.451 127.769 173.235 127.999 173.064C128.453 172.725 129.022 172.573 129.586 172.64C138.042 173.545 146.573 171.848 154.036 167.777C154.432 167.577 154.881 167.507 155.319 167.578C155.757 167.65 156.161 167.857 156.473 168.172C159.001 170.972 160.75 174.384 161.544 178.069C161.799 178.974 162.054 179.794 162.337 180.529C163.698 179.536 165.184 178.728 166.757 178.125C167.862 177.645 169.08 177.107 170.355 176.429C172.156 175.479 173.839 174.321 175.37 172.979C173.973 171.764 172.508 170.631 170.979 169.586C168.669 167.993 166.515 166.185 164.547 164.185C164.351 163.985 164.2 163.745 164.102 163.482C164.004 163.219 163.963 162.938 163.98 162.658C163.993 162.374 164.063 162.096 164.184 161.838C164.306 161.581 164.477 161.35 164.689 161.16C170.864 155.316 175.104 147.73 176.843 139.416C176.951 138.988 177.189 138.604 177.524 138.315C177.858 138.027 178.274 137.849 178.713 137.804C182.494 137.73 186.23 138.626 189.564 140.405C190.442 140.801 191.434 141.225 192.397 141.593C192.457 140.098 192.656 138.611 192.992 137.153C193.219 135.909 193.474 134.609 193.644 133.223C193.886 131.204 193.886 129.163 193.644 127.144C191.861 127.6 190.102 128.148 188.374 128.784C185.745 129.791 183.021 130.53 180.243 130.989C179.673 131.075 179.093 130.933 178.628 130.593C178.181 130.234 177.888 129.719 177.807 129.151C176.531 120.752 172.704 112.945 166.842 106.785C166.551 106.45 166.373 106.033 166.333 105.591C166.292 105.15 166.391 104.707 166.616 104.325C168.697 101.183 171.556 98.631 174.917 96.9167C175.653 96.502 176.333 96.0778 176.956 95.6442C175.787 94.6015 174.725 93.446 173.784 92.1946C173.047 91.2615 172.197 90.2153 171.233 89.1691C169.848 87.6804 168.299 86.3523 166.616 85.2104C165.766 86.8504 165.114 88.5469 164.406 90.3C163.492 92.9509 162.305 95.5 160.864 97.9063C160.713 98.1455 160.513 98.3517 160.28 98.512C160.046 98.6724 159.782 98.7838 159.504 98.8394C158.937 98.9486 158.349 98.8374 157.861 98.5284C150.625 94.0623 142.187 91.9296 133.694 92.4207C133.253 92.4224 132.823 92.2873 132.462 92.034C132.102 91.7807 131.829 91.4217 131.682 91.0069C130.603 87.3931 130.505 83.5583 131.399 79.8945C131.399 78.9331 131.682 78.0848 131.767 77.2931C130.131 77.5754 128.465 77.6515 126.809 77.5194H126.412C125.307 77.5194 124.09 77.5194 122.815 77.5194C120.775 77.6107 118.751 77.9235 116.78 78.4524C117.519 80.1552 118.352 81.8166 119.273 83.429C120.677 85.8529 121.834 88.4104 122.73 91.0635C122.816 91.3345 122.848 91.62 122.822 91.9033C122.795 92.1866 122.712 92.4618 122.577 92.7124C122.443 92.963 122.259 93.1841 122.036 93.3623C121.814 93.5406 121.559 93.6723 121.285 93.7498C113.183 96.3627 106.075 101.384 100.913 108.142C100.633 108.483 100.252 108.727 99.8247 108.838C99.3973 108.95 98.9458 108.924 98.534 108.764C95.0795 107.237 92.0892 104.828 89.8643 101.78L88.1081 99.7726C87.3625 101.015 86.5189 102.197 85.5861 103.307C84.7928 104.268 83.9716 105.315 83.15 106.474C82.002 108.17 81.0515 109.992 80.3168 111.903C82.1139 112.38 83.9404 112.739 85.7846 112.977C88.5706 113.334 91.3134 113.968 93.9723 114.872C94.5121 115.073 94.9506 115.48 95.191 116.003C95.3033 116.262 95.3612 116.541 95.3612 116.823C95.3612 117.105 95.3033 117.384 95.191 117.643C92.349 125.738 92.0327 134.502 94.2842 142.78C94.3816 143.208 94.3437 143.655 94.1763 144.06C94.0089 144.465 93.7199 144.808 93.349 145.043C90.0281 146.86 86.2839 147.767 82.4977 147.672C81.3644 147.672 80.3165 147.672 79.3249 147.927C80.1176 149.463 80.6993 151.099 81.0534 152.79C81.3651 153.949 81.7048 155.25 82.1864 156.607C82.8333 158.542 83.708 160.393 84.7928 162.121C86.208 160.969 87.552 159.732 88.8163 158.417C90.7652 156.322 92.9191 154.427 95.2471 152.762C95.482 152.605 95.7459 152.498 96.0231 152.444C96.3004 152.391 96.5858 152.393 96.8622 152.451C97.1439 152.507 97.4108 152.621 97.6452 152.787C97.8795 152.952 98.0759 153.165 98.222 153.412C103.045 160.441 109.892 165.844 117.857 168.907C118.26 169.082 118.599 169.377 118.827 169.751C119.055 170.126 119.162 170.562 119.131 171C118.633 174.737 117.158 178.277 114.853 181.264L113.437 183.639ZM168.797 188.022C167.541 188.013 166.309 187.671 165.227 187.032C164.985 186.874 164.757 186.695 164.547 186.495L164.292 186.269H164.15V186.071C164.173 185.959 164.173 185.844 164.15 185.732C163.816 185.338 163.644 184.833 163.669 184.318C163.811 183.243 165.454 182.452 168.146 181.292C169.392 180.727 170.638 180.161 171.913 179.483C174.613 178.042 177.086 176.213 179.252 174.054C179.339 173.969 179.408 173.868 179.456 173.757C179.503 173.645 179.528 173.525 179.528 173.403C179.528 173.282 179.503 173.162 179.456 173.05C179.408 172.938 179.339 172.837 179.252 172.753C177.331 170.762 175.203 168.98 172.905 167.437C171.205 166.243 169.578 164.95 168.032 163.563L167.578 163.139L168.032 162.687C173.753 156.851 177.769 149.567 179.648 141.621V141.169H180.13C182.988 141.42 185.77 142.226 188.318 143.544C191.07 145.069 194.18 145.831 197.327 145.749C197.981 145.681 198.626 145.549 199.254 145.354C205.487 143.205 206.025 136.249 206.365 131.668V130.876C206.365 130 206.365 128.614 206.365 126.889C206.025 119.962 206.365 116.993 207.13 116.201H207.271C207.743 115.932 208.293 115.832 208.83 115.918C211.805 116.795 212.598 127.426 211.267 135.711C209.84 143.659 206.252 151.064 200.897 157.116L200.727 157.343H200.444C199.282 157.347 198.134 157.596 197.076 158.073C196.017 158.551 195.072 159.246 194.301 160.114C193.531 160.981 192.953 162.002 192.605 163.108C192.258 164.214 192.148 165.381 192.284 166.532V166.843L192.058 167.041C191.95 167.117 191.87 167.226 191.831 167.352C190.351 170.851 188.386 174.126 185.994 177.079C184.748 178.097 183.444 179.285 181.659 180.953C180.767 181.839 179.821 182.67 178.826 183.441L178.175 183.922C175.518 186.166 172.255 187.573 168.797 187.965V188.022ZM165.227 185.477H165.368C165.511 185.61 165.663 185.732 165.822 185.845C169.76 188.163 174.038 185.025 177.495 182.537L178.146 182.056C179.135 181.308 180.081 180.506 180.979 179.652C182.793 177.956 184.124 176.825 185.286 175.807C187.585 172.964 189.491 169.825 190.952 166.476C191.019 166.292 191.115 166.12 191.236 165.967C191.079 164.193 191.423 162.41 192.228 160.82C193.001 159.328 194.159 158.069 195.584 157.174C197.009 156.279 198.647 155.78 200.33 155.731C205.447 149.873 208.874 142.739 210.246 135.089C211.72 125.984 210.246 117.191 208.66 116.71C208.454 116.716 208.251 116.764 208.065 116.851C207.753 117.247 207.357 119.085 207.725 126.522C207.725 128.331 207.867 129.717 207.725 130.678V131.47C207.329 136.39 206.762 143.798 199.792 146.202C199.104 146.434 198.391 146.586 197.667 146.654C194.289 146.788 190.938 145.995 187.978 144.364C185.707 143.18 183.24 142.413 180.696 142.102C178.8 149.881 174.892 157.027 169.364 162.828C170.695 164.016 172.197 165.034 173.614 166.136C176.001 167.781 178.205 169.677 180.187 171.792C180.535 172.18 180.728 172.684 180.728 173.205C180.728 173.727 180.535 174.23 180.187 174.619C177.939 176.869 175.371 178.774 172.565 180.274C171.262 180.953 169.987 181.519 168.712 182.084C167.437 182.65 165.114 183.696 164.944 184.205C164.985 184.407 165.083 184.594 165.227 184.742C165.241 184.968 165.241 185.195 165.227 185.421V185.477ZM76.2365 179.143C73.205 179.143 67.9641 170.321 65.4425 162.489C63.0812 154.673 62.9043 146.362 64.9321 138.454V138.2L65.1589 138.058C66.51 137.362 67.6423 136.307 68.4321 135.01C69.2218 133.713 69.6385 132.224 69.6356 130.707C69.6339 129.059 69.1515 127.448 68.2474 126.069L68.0772 125.815V125.532C68.1032 125.411 68.1032 125.286 68.0772 125.164C67.4785 118.054 68.8401 110.916 72.015 104.523C72.9327 102.704 74.0141 100.972 75.2453 99.3484V99.0657V98.8677C76.0458 97.7406 77.1219 96.8369 78.3717 96.2429C79.6216 95.6489 81.0036 95.3844 82.385 95.4746C83.2329 95.5805 84.0564 95.8291 84.8211 96.2098H85.0196C85.1395 96.3325 85.2359 96.4763 85.3032 96.634C85.6715 97.6802 84.5662 99.1223 82.7246 101.384C81.9596 102.346 81.0249 103.505 80.1466 104.778C78.3834 107.308 77.0174 110.092 76.0954 113.034C76.0553 113.147 76.038 113.267 76.0449 113.387C76.0517 113.507 76.082 113.624 76.1348 113.732C76.1875 113.84 76.2616 113.936 76.352 114.016C76.4424 114.095 76.5478 114.155 76.6619 114.193C79.2782 115.104 81.985 115.73 84.736 116.06C86.8009 116.341 88.8456 116.756 90.8562 117.304L91.451 117.502L91.2525 118.095C88.8007 125.975 88.546 134.372 90.5159 142.385V142.837L90.0911 143.063C87.4398 144.148 84.5988 144.696 81.7334 144.675C77.9086 144.873 73.9988 145.099 71.1373 148.068C68.2758 151.037 67.9637 154.232 69.3236 158.954V159.181C69.3353 159.284 69.3353 159.388 69.3236 159.492C69.522 160.114 69.7486 160.736 69.9752 161.301L70.4006 162.404L71.1373 164.214C71.7105 165.423 72.3438 166.602 73.0353 167.748C76.4918 173.828 77.6533 176.627 77.2 177.729C76.9188 178.205 76.4607 178.551 75.9252 178.691L76.2365 179.143ZM66.0374 138.991C64.1308 146.61 64.3166 154.6 66.5755 162.121C69.4087 170.887 74.4232 177.956 76.1797 177.956C76.1797 177.956 76.4636 177.956 76.6902 177.532C76.9169 177.108 76.3214 175.213 72.5815 168.681C71.7316 167.154 70.9951 165.853 70.6268 164.977L69.8901 163.168C69.7485 162.828 69.6071 162.489 69.4938 162.149C69.3805 161.81 68.9838 160.82 68.7855 160.17V159.916C68.7733 159.803 68.7733 159.689 68.7855 159.576V159.322C67.9892 157.333 67.766 155.162 68.1415 153.053C68.517 150.944 69.4762 148.982 70.9104 147.389C74.1119 144.081 78.2767 143.855 82.2432 143.629C84.8037 143.648 87.3465 143.207 89.7508 142.328C87.8879 134.45 88.1223 126.223 90.4308 118.463C88.6742 118.011 86.9463 117.728 85.1047 117.417C82.2113 117.078 79.3622 116.433 76.6051 115.494C76.0881 115.302 75.6642 114.919 75.4216 114.425C75.1791 113.93 75.1367 113.361 75.302 112.836C76.2833 109.817 77.7058 106.958 79.5234 104.353C80.43 103.024 81.3931 101.865 82.1297 100.932C83.1335 99.882 83.9485 98.6673 84.5382 97.3409C83.9418 97.0524 83.2989 96.8706 82.6395 96.8036C81.4747 96.7154 80.3069 96.9293 79.2495 97.4248C78.1921 97.9202 77.2812 98.6804 76.6051 99.6312C76.5358 99.7993 76.4502 99.9602 76.3499 100.112C75.1635 101.69 74.112 103.364 73.2055 105.117C70.1473 111.324 68.8349 118.243 69.4087 125.136C69.4355 125.324 69.4355 125.514 69.4087 125.702C70.1002 126.791 70.5613 128.009 70.7645 129.282C70.9676 130.555 70.9084 131.857 70.5901 133.106C70.2719 134.355 69.7012 135.527 68.9135 136.549C68.1257 137.57 67.1376 138.421 66.009 139.048L66.0374 138.991ZM200.444 171.678C199.458 171.661 198.489 171.419 197.611 170.971C196.855 170.593 196.182 170.069 195.632 169.428C195.083 168.787 194.666 168.043 194.409 167.239C194.089 166.24 194.02 165.178 194.208 164.146C194.396 163.115 194.837 162.145 195.489 161.323C196.142 160.501 196.987 159.852 197.95 159.434C198.913 159.015 199.966 158.839 201.013 158.922C202.06 159.004 203.071 159.343 203.956 159.908C204.841 160.473 205.574 161.247 206.089 162.161C206.604 163.075 206.886 164.101 206.909 165.15C206.932 166.198 206.697 167.236 206.224 168.172C205.444 169.684 204.101 170.831 202.484 171.367C201.82 171.554 201.133 171.64 200.444 171.622V171.678ZM200.444 160.085C199.622 160.08 198.811 160.271 198.077 160.64C197.343 161.01 196.707 161.548 196.223 162.211C195.739 162.874 195.419 163.642 195.291 164.453C195.163 165.263 195.23 166.092 195.486 166.872C195.808 167.843 196.41 168.698 197.216 169.33C198.023 169.962 198.998 170.343 200.02 170.424C201.042 170.505 202.065 170.285 202.962 169.789C203.859 169.292 204.589 168.543 205.061 167.635C205.686 166.408 205.798 164.985 205.373 163.676C204.949 162.367 204.022 161.279 202.795 160.651C202.078 160.272 201.283 160.059 200.472 160.029L200.444 160.085ZM197.242 143.742C196.751 143.776 196.266 143.625 195.882 143.318C195.089 142.611 195.372 140.801 195.882 137.917C196.109 136.758 196.364 135.344 196.562 133.789C196.916 130.756 196.821 127.688 196.279 124.684C196.225 124.447 196.085 124.238 195.887 124.097C195.688 123.956 195.444 123.893 195.202 123.92C192.469 124.359 189.791 125.089 187.213 126.098C185.264 126.828 183.266 127.423 181.235 127.879L180.64 128.02V127.398C179.121 119.365 175.404 111.908 169.902 105.852L169.618 105.484L169.873 105.117C171.702 102.891 173.968 101.063 176.532 99.7443C179.762 97.7932 183.133 95.7574 184.266 91.7987C185.683 86.6808 182.368 82.8918 179.761 80.4883C178.656 79.3856 177.721 78.5373 176.928 77.6607C174.623 75.7996 172.114 74.2059 169.449 72.9104C165.539 70.2524 164.944 69.2627 164.859 68.6407C164.908 68.0949 165.148 67.584 165.539 67.1986C167.947 65.2475 177.155 70.6766 183.161 76.4732C188.911 82.1659 192.962 89.3417 194.862 97.1994V97.4539L194.692 97.6802C194.216 98.3665 193.844 99.1191 193.588 99.9139C193.266 100.953 193.155 102.047 193.262 103.13C193.369 104.212 193.692 105.263 194.211 106.219C194.993 107.653 196.174 108.832 197.611 109.613H197.894V109.895C197.924 110.024 197.971 110.148 198.035 110.263C201.874 116.172 204.02 123.017 204.24 130.056C204.268 132.081 204.126 134.106 203.815 136.107V136.475C203.654 137.974 203.086 139.401 202.172 140.602C201.259 141.803 200.035 142.732 198.631 143.289C198.253 143.42 197.864 143.515 197.469 143.572L197.242 143.742ZM195.401 122.704C195.901 122.704 196.386 122.879 196.769 123.2C197.153 123.52 197.41 123.966 197.497 124.458C198.079 127.591 198.184 130.794 197.809 133.958C197.611 135.513 197.327 136.984 197.101 138.143C196.71 139.54 196.575 140.996 196.704 142.441C196.9 142.482 197.102 142.482 197.299 142.441C197.598 142.392 197.892 142.317 198.177 142.215C199.372 141.736 200.413 140.941 201.187 139.914C201.961 138.887 202.439 137.668 202.569 136.39C202.54 136.25 202.54 136.106 202.569 135.966C202.87 134.039 203.002 132.09 202.965 130.141C202.774 123.293 200.696 116.631 196.959 110.885C196.872 110.721 196.796 110.551 196.732 110.376C194.87 109.307 193.424 107.642 192.628 105.652C191.831 103.661 191.729 101.46 192.34 99.405C192.619 98.5786 193 97.7902 193.474 97.058C191.568 89.5555 187.65 82.7129 182.141 77.2648C175.455 70.8744 167.437 67.0006 166.105 68.0751C166.105 68.0751 166.106 68.2165 165.879 68.669C165.652 69.1214 166.53 69.7434 169.845 72.0055C172.577 73.3111 175.144 74.9342 177.495 76.8408C178.43 77.6325 179.393 78.5091 180.498 79.6684C183.331 82.2698 186.929 86.4263 185.314 92.1663C184.068 96.5774 180.498 98.7546 177.07 100.819C174.809 102.011 172.776 103.59 171.063 105.484C176.378 111.491 180.022 118.784 181.632 126.635C183.387 126.188 185.117 125.65 186.816 125.023C189.487 123.988 192.26 123.24 195.089 122.789L195.401 122.704ZM61.3906 137.182C60.1039 137.199 58.8414 136.833 57.7633 136.132C56.6853 135.431 55.8403 134.425 55.3362 133.244C54.832 132.062 54.6916 130.758 54.9322 129.496C55.1729 128.234 55.7838 127.073 56.6877 126.159C57.5916 125.245 58.7478 124.619 60.0086 124.363C61.2694 124.106 62.5781 124.229 63.7686 124.717C64.9591 125.204 65.9778 126.034 66.6945 127.1C67.4113 128.167 67.7935 129.422 67.7936 130.707C67.7863 132.397 67.1142 134.017 65.9219 135.217C64.7296 136.418 63.1125 137.103 61.4189 137.125L61.3906 137.182ZM61.3906 125.447C60.346 125.436 59.3221 125.735 58.4481 126.306C57.5741 126.877 56.8899 127.694 56.4823 128.654C56.0747 129.614 55.9617 130.674 56.1586 131.698C56.3555 132.721 56.853 133.664 57.5876 134.405C58.3223 135.146 59.2615 135.653 60.2853 135.86C61.309 136.068 62.3715 135.967 63.3377 135.571C64.3039 135.174 65.13 134.5 65.7116 133.634C66.2932 132.768 66.6038 131.749 66.6039 130.707C66.6191 129.317 66.0821 127.977 65.1105 126.981C64.139 125.985 62.8116 125.413 61.4189 125.391L61.3906 125.447ZM63.2042 116.597V116.003V116.597C62.6898 116.611 62.1839 116.463 61.7593 116.173C59.4644 114.109 63.3458 104.184 68.1056 97.3126C72.822 90.7478 79.2637 85.6107 86.7198 82.4677H86.9744H87.2296C88.6002 83.0795 90.1088 83.3182 91.6018 83.1592C93.0948 83.0003 94.5187 82.4494 95.7292 81.5628C97.0413 80.5722 98.0277 79.2136 98.5624 77.6607V77.378H98.8453C98.9707 77.3354 99.0866 77.2681 99.1856 77.1801C101.953 74.7216 105.041 72.6481 108.365 71.0159C109.98 70.6201 111.737 70.111 114.173 69.3193H114.343C115.817 68.8386 117.176 68.4427 117.771 68.3014H118.565C123.126 67.4814 128.764 66.4352 131.767 70.8463C131.994 71.2139 132.164 71.5532 132.334 71.8925V72.0621V72.2601C132.305 72.3809 132.305 72.5067 132.334 72.6275C132.466 73.1308 132.405 73.6651 132.164 74.1262C131.569 75.0028 129.784 75.0027 126.923 74.9462C125.506 74.9462 124.089 74.9462 122.616 74.9462C119.551 75.0779 116.524 75.6689 113.635 76.6993C113.404 76.7769 113.212 76.9416 113.101 77.1582C112.99 77.3747 112.968 77.6262 113.04 77.8587C113.931 80.4816 115.08 83.0104 116.468 85.4083C117.535 87.2298 118.482 89.1189 119.301 91.0635L119.528 91.6574L118.933 91.8553C111.224 94.6884 104.443 99.5787 99.3274 105.993L99.0154 106.333L98.5907 106.135C96.1176 104.692 93.9597 102.769 92.2444 100.479C90.6907 98.398 88.7707 96.6159 86.578 95.2202L86.2661 94.9656C86.1004 94.8241 85.9201 94.7009 85.7279 94.598C85.5361 94.5265 85.3249 94.5265 85.1331 94.598H84.9913C84.4547 94.4364 83.9046 94.3229 83.3478 94.2587C76.8598 93.5518 73.3187 99.5463 70.9955 103.561L70.5984 104.24C69.9888 105.404 69.4501 106.603 68.984 107.831C66.1508 114.25 64.7622 116.851 63.6289 117.191L63.2042 116.597ZM86.8326 83.6552C79.6732 86.7008 73.4897 91.6499 68.9557 97.9629C63.6859 105.569 61.1359 114.108 62.4108 115.239C62.6261 115.281 62.8472 115.281 63.0624 115.239C63.4874 114.985 64.6492 113.458 67.5391 106.757C68.0354 105.459 68.6122 104.194 69.2669 102.968L69.664 102.261C71.9588 98.274 75.8404 91.5726 83.1783 92.3926C83.7634 92.4537 84.3415 92.5673 84.9062 92.7319C85.3164 92.6921 85.7291 92.7705 86.0959 92.958C86.3555 93.117 86.6019 93.2967 86.8326 93.4952L87.0311 93.6367C89.3557 95.0897 91.4001 96.9477 93.0661 99.1223C94.6343 101.167 96.5527 102.919 98.7325 104.297C103.838 98.0916 110.479 93.3252 117.998 90.4697C117.289 88.8014 116.44 87.2463 115.561 85.6063C114.118 83.1516 112.931 80.5555 112.02 77.8587C111.865 77.3261 111.919 76.7545 112.171 76.2606C112.424 75.7666 112.857 75.3875 113.38 75.2007C116.379 74.1376 119.521 73.5276 122.701 73.391C124.231 73.391 125.534 73.391 126.979 73.391C128.42 73.5729 129.882 73.477 131.286 73.1083C131.286 73.1083 131.286 72.9103 131.286 72.4862C131.272 72.2885 131.272 72.0902 131.286 71.8925C131.182 71.6422 131.048 71.405 130.889 71.1856C128.339 67.4249 123.126 68.3579 118.933 69.1496L118.139 69.291C117.516 69.291 116.213 69.8283 114.853 70.2524H114.683C112.218 71.0441 110.433 71.553 109.017 71.9206C105.832 73.4919 102.877 75.4898 100.233 77.8587L99.7521 78.1697C99.1333 79.8399 98.0531 81.3008 96.636 82.3828C95.2671 83.4445 93.6362 84.1179 91.9158 84.3319C90.1955 84.5459 88.449 84.2925 86.8609 83.5986L86.8326 83.6552ZM201.436 108.623C200.801 108.626 200.17 108.531 199.565 108.34C198.76 108.103 198.009 107.708 197.357 107.179C196.706 106.65 196.166 105.997 195.769 105.258C194.977 103.752 194.803 101.997 195.287 100.366C195.789 98.7521 196.909 97.4008 198.404 96.6057C199.325 96.1029 200.358 95.8403 201.407 95.8422C202.833 95.8429 204.217 96.3186 205.341 97.1935C206.465 98.0685 207.264 99.2928 207.612 100.672C207.961 102.052 207.837 103.508 207.262 104.81C206.687 106.112 205.694 107.185 204.438 107.859C203.521 108.338 202.499 108.581 201.464 108.566L201.436 108.623ZM198.97 97.6519C198.366 97.9729 197.832 98.4107 197.399 98.9399C196.966 99.469 196.643 100.079 196.449 100.734C196.054 102.054 196.196 103.477 196.846 104.693C197.501 105.895 198.598 106.797 199.906 107.209C200.623 107.428 201.38 107.489 202.123 107.389C202.867 107.288 203.58 107.029 204.214 106.629C204.848 106.228 205.388 105.696 205.797 105.068C206.206 104.44 206.474 103.731 206.583 102.99C206.693 102.25 206.641 101.494 206.43 100.775C206.22 100.056 205.857 99.3908 205.365 98.8249C204.874 98.259 204.266 97.8057 203.583 97.4959C202.9 97.186 202.158 97.027 201.407 97.0297C200.557 97.0378 199.72 97.2513 198.97 97.6519ZM158.711 95.6442L158.173 95.3332C151.033 91.3572 142.942 89.4018 134.771 89.678H134.288V89.2257C133.791 86.4129 133.859 83.5295 134.487 80.7429C135.082 76.9822 135.706 73.1083 133.439 69.7152C132.47 68.3308 131.154 67.2239 129.623 66.5046C128.092 65.7853 126.399 65.4786 124.713 65.6151H124.486C124.355 65.5876 124.22 65.5876 124.089 65.6151C121.942 65.6398 119.801 65.8384 117.686 66.209C114.329 66.8256 111.069 67.8908 107.996 69.3759C104.568 70.2241 103.662 69.9979 103.208 69.7152C103.01 69.5294 102.851 69.3063 102.739 69.0588C102.627 68.8114 102.565 68.5444 102.557 68.2731C102.557 65.191 112.7 61.713 121.029 60.8648C129.096 60.1804 137.196 61.7364 144.432 65.3607H144.658V65.6434C145.038 67.1077 145.82 68.4369 146.916 69.4811C148.012 70.5254 149.38 71.243 150.863 71.5532C152.467 71.8745 154.129 71.7272 155.651 71.129H155.934L156.189 71.2986C156.301 71.3699 156.427 71.4179 156.558 71.44C160.823 72.0586 164.964 73.347 168.826 75.2573L172.225 77.4345C173.299 78.0691 174.338 78.7582 175.341 79.4987L175.993 80.0077C176.815 80.6863 177.665 81.3932 178.515 82.1567C179.365 82.9201 179.592 83.2594 180.073 83.8249H180.215C181.262 84.7971 182.031 86.0294 182.444 87.3956C182.857 88.7618 182.899 90.2129 182.566 91.6008C182.369 92.2407 182.083 92.8499 181.716 93.4105C181.423 93.7985 181.002 94.0693 180.526 94.174C179.478 94.3437 178.288 92.9581 176.418 90.6395C175.568 89.5933 174.718 88.5188 173.585 87.4443C171.495 85.2096 169.078 83.303 166.417 81.7891C166.205 81.6705 165.955 81.6366 165.718 81.6943C165.482 81.752 165.276 81.897 165.142 82.1001C163.729 84.4776 162.553 86.9871 161.629 89.5931C160.913 91.5265 160.08 93.415 159.136 95.2483L158.711 95.6442ZM135.252 88.349C143.276 88.1851 151.202 90.1357 158.229 94.0042C159.03 92.3859 159.739 90.7246 160.354 89.0277C161.302 86.3263 162.526 83.7298 164.009 81.28C164.301 80.8231 164.758 80.4954 165.285 80.3639C165.812 80.2324 166.368 80.3072 166.842 80.5731C169.605 82.1642 172.116 84.1559 174.293 86.4828C175.313 87.5856 176.192 88.6884 176.985 89.678C177.778 90.6677 179.507 92.7884 180.045 92.8449C180.24 92.7619 180.407 92.6244 180.526 92.449C180.825 92.0056 181.054 91.5193 181.206 91.0069C181.484 89.8293 181.445 88.5992 181.091 87.4419C180.738 86.2845 180.084 85.2414 179.195 84.4187C179.195 84.4187 179.053 84.4187 178.968 84.4187C178.486 83.8532 177.976 83.3442 177.466 82.807C176.956 82.2697 175.823 81.3932 175.03 80.7429L174.407 80.2338C173.869 79.8096 172.622 79.018 171.375 78.2546L168.032 76.1056C164.306 74.2597 160.307 73.0188 156.189 72.4297C155.992 72.4035 155.801 72.3463 155.622 72.2601C153.607 72.9976 151.399 73.0268 149.365 72.3431C147.33 71.6593 145.59 70.3034 144.432 68.4993C143.971 67.7614 143.618 66.9615 143.384 66.1241C136.409 62.6683 128.617 61.1913 120.859 61.8543C111.651 62.7875 103.492 66.4068 103.464 68.1034C103.507 68.3049 103.605 68.4907 103.747 68.6407C104.994 68.7375 106.249 68.5738 107.43 68.16C110.563 66.665 113.877 65.5815 117.289 64.9365C119.462 64.568 121.659 64.3694 123.863 64.3426C124.123 64.278 124.395 64.278 124.656 64.3426C126.525 64.208 128.396 64.5624 130.086 65.3707C131.775 66.1791 133.223 67.4133 134.288 68.9517C136.838 72.7689 136.187 76.869 135.536 80.8276C135 83.328 134.914 85.9034 135.28 88.4339L135.252 88.349ZM90.6293 81.3649H89.7508C88.9192 81.2537 88.1181 80.9791 87.3935 80.5568C86.6689 80.1346 86.0352 79.5731 85.5294 78.9049C85.0174 78.2385 84.6421 77.4779 84.4248 76.6666C84.2075 75.8554 84.1524 75.0094 84.2629 74.177C84.3734 73.3445 84.6473 72.5419 85.0687 71.8152C85.4902 71.0884 86.0516 70.4517 86.7198 69.9414C87.8468 69.0953 89.219 68.6386 90.6293 68.6407C91.5405 68.6452 92.4406 68.843 93.2695 69.2209C94.0984 69.5988 94.8372 70.148 95.4373 70.8325C96.0373 71.5169 96.4849 72.3208 96.7501 73.1908C97.0154 74.0609 97.092 74.9773 96.9756 75.8793C96.8648 76.7134 96.59 77.5176 96.167 78.2454C95.744 78.9733 95.1815 79.6105 94.5111 80.1207C93.3866 80.9168 92.0361 81.3329 90.6576 81.3083L90.6293 81.3649ZM87.4558 70.8463C86.3606 71.6865 85.6425 72.9241 85.4568 74.2902C85.2711 75.6563 85.6333 77.0403 86.4646 78.1414C87.3106 79.23 88.5524 79.9416 89.921 80.1216C91.2896 80.3016 92.6747 79.9355 93.7744 79.1028C94.8754 78.2635 95.5985 77.0231 95.7859 75.6531C95.9574 74.2878 95.5915 72.9094 94.7656 71.8076C94.2759 71.1774 93.6493 70.6667 92.9326 70.314C92.216 69.9613 91.4283 69.7759 90.6293 69.7718C89.4805 69.763 88.362 70.1416 87.4558 70.8463ZM152.45 69.5738C151.997 69.6155 151.542 69.6155 151.09 69.5738C149.432 69.2081 147.987 68.2033 147.069 66.7785C146.151 65.3537 145.834 63.6243 146.188 61.9676C146.365 61.142 146.706 60.3606 147.193 59.6705C147.68 58.9804 148.302 58.3959 149.022 57.9522C150.446 57.0362 152.176 56.7214 153.833 57.0766C155.49 57.4317 156.939 58.4279 157.861 59.8469C158.487 60.8103 158.842 61.9244 158.887 63.0719C158.933 64.2195 158.667 65.358 158.119 66.3679C157.572 67.3778 156.761 68.2216 155.773 68.8107C154.785 69.3997 153.657 69.7121 152.506 69.7152L152.45 69.5738ZM152.45 57.9805C151.441 57.9726 150.454 58.2683 149.616 58.829C149.039 59.191 148.54 59.6656 148.151 60.2243C147.761 60.783 147.489 61.4143 147.35 62.0806C147.095 63.3623 147.327 64.6929 148.001 65.8131C148.369 66.3913 148.849 66.8898 149.414 67.2785C149.979 67.6671 150.616 67.938 151.288 68.0751C151.953 68.2293 152.643 68.2462 153.316 68.1246C153.988 68.0031 154.629 67.7457 155.198 67.3682C155.772 67.0025 156.268 66.5269 156.657 65.9687C157.046 65.4106 157.321 64.7811 157.464 64.1166C157.746 62.7643 157.492 61.3557 156.756 60.1862C156.384 59.6153 155.901 59.1239 155.337 58.7404C154.773 58.357 154.138 58.089 153.469 57.9522C153.131 57.9076 152.79 57.8983 152.45 57.9241V57.9805Z" fill="white"/>
</svg>
