<svg width="256" height="295" viewBox="0 0 256 295" fill="none" xmlns="http://www.w3.org/2000/svg">
<path d="M37.1449 269.96V274.16H42.7849V276.824H37.1449V281.264H43.5049V284H33.7849V267.224H43.5049V269.96H37.1449ZM53.9263 270.512C55.5103 270.512 56.7903 271.016 57.7663 272.024C58.7423 273.016 59.2303 274.408 59.2303 276.2V284H55.8703V276.656C55.8703 275.6 55.6063 274.792 55.0783 274.232C54.5503 273.656 53.8303 273.368 52.9183 273.368C51.9903 273.368 51.2543 273.656 50.7103 274.232C50.1823 274.792 49.9183 275.6 49.9183 276.656V284H46.5583V270.704H49.9183V272.36C50.3663 271.784 50.9343 271.336 51.6223 271.016C52.3263 270.68 53.0943 270.512 53.9263 270.512ZM66.3375 273.464V279.896C66.3375 280.344 66.4415 280.672 66.6495 280.88C66.8735 281.072 67.2415 281.168 67.7535 281.168H69.3135V284H67.2015C64.3695 284 62.9535 282.624 62.9535 279.872V273.464H61.3695V270.704H62.9535V267.416H66.3375V270.704H69.3135V273.464H66.3375ZM75.0902 272.768C75.5222 272.064 76.0822 271.512 76.7702 271.112C77.4742 270.712 78.2742 270.512 79.1702 270.512V274.04H78.2822C77.2262 274.04 76.4262 274.288 75.8822 274.784C75.3542 275.28 75.0902 276.144 75.0902 277.376V284H71.7302V270.704H75.0902V272.768ZM93.7933 277.064C93.7933 277.544 93.7613 277.976 93.6973 278.36H83.9773C84.0573 279.32 84.3933 280.072 84.9853 280.616C85.5773 281.16 86.3053 281.432 87.1693 281.432C88.4173 281.432 89.3053 280.896 89.8333 279.824H93.4573C93.0733 281.104 92.3373 282.16 91.2493 282.992C90.1613 283.808 88.8253 284.216 87.2413 284.216C85.9613 284.216 84.8093 283.936 83.7853 283.376C82.7773 282.8 81.9853 281.992 81.4093 280.952C80.8493 279.912 80.5693 278.712 80.5693 277.352C80.5693 275.976 80.8493 274.768 81.4093 273.728C81.9693 272.688 82.7533 271.888 83.7613 271.328C84.7693 270.768 85.9293 270.488 87.2413 270.488C88.5053 270.488 89.6333 270.76 90.6253 271.304C91.6333 271.848 92.4093 272.624 92.9533 273.632C93.5133 274.624 93.7933 275.768 93.7933 277.064ZM90.3133 276.104C90.2973 275.24 89.9853 274.552 89.3773 274.04C88.7693 273.512 88.0253 273.248 87.1453 273.248C86.3133 273.248 85.6093 273.504 85.0333 274.016C84.4733 274.512 84.1293 275.208 84.0013 276.104H90.3133ZM99.6058 272.624C100.038 272.016 100.63 271.512 101.382 271.112C102.15 270.696 103.022 270.488 103.998 270.488C105.134 270.488 106.158 270.768 107.07 271.328C107.998 271.888 108.726 272.688 109.254 273.728C109.798 274.752 110.07 275.944 110.07 277.304C110.07 278.664 109.798 279.872 109.254 280.928C108.726 281.968 107.998 282.776 107.07 283.352C106.158 283.928 105.134 284.216 103.998 284.216C103.022 284.216 102.158 284.016 101.406 283.616C100.67 283.216 100.07 282.712 99.6058 282.104V290.336H96.2458V270.704H99.6058V272.624ZM106.638 277.304C106.638 276.504 106.47 275.816 106.134 275.24C105.814 274.648 105.382 274.2 104.838 273.896C104.31 273.592 103.734 273.44 103.11 273.44C102.502 273.44 101.926 273.6 101.382 273.92C100.854 274.224 100.422 274.672 100.086 275.264C99.7658 275.856 99.6058 276.552 99.6058 277.352C99.6058 278.152 99.7658 278.848 100.086 279.44C100.422 280.032 100.854 280.488 101.382 280.808C101.926 281.112 102.502 281.264 103.11 281.264C103.734 281.264 104.31 281.104 104.838 280.784C105.382 280.464 105.814 280.008 106.134 279.416C106.47 278.824 106.638 278.12 106.638 277.304ZM115.871 272.768C116.303 272.064 116.863 271.512 117.551 271.112C118.255 270.712 119.055 270.512 119.951 270.512V274.04H119.063C118.007 274.04 117.207 274.288 116.663 274.784C116.135 275.28 115.871 276.144 115.871 277.376V284H112.511V270.704H115.871V272.768ZM134.575 277.064C134.575 277.544 134.543 277.976 134.479 278.36H124.759C124.839 279.32 125.175 280.072 125.767 280.616C126.359 281.16 127.087 281.432 127.951 281.432C129.199 281.432 130.087 280.896 130.615 279.824H134.239C133.855 281.104 133.119 282.16 132.031 282.992C130.943 283.808 129.607 284.216 128.023 284.216C126.743 284.216 125.591 283.936 124.567 283.376C123.559 282.8 122.767 281.992 122.191 280.952C121.631 279.912 121.351 278.712 121.351 277.352C121.351 275.976 121.631 274.768 122.191 273.728C122.751 272.688 123.535 271.888 124.543 271.328C125.551 270.768 126.711 270.488 128.023 270.488C129.287 270.488 130.415 270.76 131.407 271.304C132.415 271.848 133.191 272.624 133.735 273.632C134.295 274.624 134.575 275.768 134.575 277.064ZM131.095 276.104C131.079 275.24 130.767 274.552 130.159 274.04C129.551 273.512 128.807 273.248 127.927 273.248C127.095 273.248 126.391 273.504 125.815 274.016C125.255 274.512 124.911 275.208 124.783 276.104H131.095ZM144.395 270.512C145.979 270.512 147.259 271.016 148.235 272.024C149.211 273.016 149.699 274.408 149.699 276.2V284H146.339V276.656C146.339 275.6 146.075 274.792 145.547 274.232C145.019 273.656 144.299 273.368 143.387 273.368C142.459 273.368 141.723 273.656 141.179 274.232C140.651 274.792 140.387 275.6 140.387 276.656V284H137.027V270.704H140.387V272.36C140.835 271.784 141.403 271.336 142.091 271.016C142.795 270.68 143.563 270.512 144.395 270.512ZM165.254 277.064C165.254 277.544 165.222 277.976 165.158 278.36H155.438C155.518 279.32 155.854 280.072 156.446 280.616C157.038 281.16 157.766 281.432 158.63 281.432C159.878 281.432 160.766 280.896 161.294 279.824H164.918C164.534 281.104 163.798 282.16 162.71 282.992C161.622 283.808 160.286 284.216 158.702 284.216C157.422 284.216 156.27 283.936 155.246 283.376C154.238 282.8 153.446 281.992 152.87 280.952C152.31 279.912 152.03 278.712 152.03 277.352C152.03 275.976 152.31 274.768 152.87 273.728C153.43 272.688 154.214 271.888 155.222 271.328C156.23 270.768 157.39 270.488 158.702 270.488C159.966 270.488 161.094 270.76 162.086 271.304C163.094 271.848 163.87 272.624 164.414 273.632C164.974 274.624 165.254 275.768 165.254 277.064ZM161.774 276.104C161.758 275.24 161.446 274.552 160.838 274.04C160.23 273.512 159.486 273.248 158.606 273.248C157.774 273.248 157.07 273.504 156.494 274.016C155.934 274.512 155.59 275.208 155.462 276.104H161.774ZM180.259 270.704V284H176.875V282.32C176.443 282.896 175.875 283.352 175.171 283.688C174.483 284.008 173.731 284.168 172.915 284.168C171.875 284.168 170.955 283.952 170.155 283.52C169.355 283.072 168.723 282.424 168.259 281.576C167.811 280.712 167.587 279.688 167.587 278.504V270.704H170.947V278.024C170.947 279.08 171.211 279.896 171.739 280.472C172.267 281.032 172.987 281.312 173.899 281.312C174.827 281.312 175.555 281.032 176.083 280.472C176.611 279.896 176.875 279.08 176.875 278.024V270.704H180.259ZM186.934 272.768C187.366 272.064 187.926 271.512 188.614 271.112C189.318 270.712 190.118 270.512 191.014 270.512V274.04H190.126C189.07 274.04 188.27 274.288 187.726 274.784C187.198 275.28 186.934 276.144 186.934 277.376V284H183.574V270.704H186.934V272.768ZM194.981 269.12C194.389 269.12 193.893 268.936 193.493 268.568C193.109 268.184 192.917 267.712 192.917 267.152C192.917 266.592 193.109 266.128 193.493 265.76C193.893 265.376 194.389 265.184 194.981 265.184C195.573 265.184 196.061 265.376 196.445 265.76C196.845 266.128 197.045 266.592 197.045 267.152C197.045 267.712 196.845 268.184 196.445 268.568C196.061 268.936 195.573 269.12 194.981 269.12ZM196.637 270.704V284H193.277V270.704H196.637ZM199.093 277.304C199.093 275.96 199.357 274.768 199.885 273.728C200.429 272.688 201.157 271.888 202.069 271.328C202.997 270.768 204.029 270.488 205.165 270.488C206.157 270.488 207.021 270.688 207.757 271.088C208.509 271.488 209.109 271.992 209.557 272.6V270.704H212.941V284H209.557V282.056C209.125 282.68 208.525 283.2 207.757 283.616C207.005 284.016 206.133 284.216 205.141 284.216C204.021 284.216 202.997 283.928 202.069 283.352C201.157 282.776 200.429 281.968 199.885 280.928C199.357 279.872 199.093 278.664 199.093 277.304ZM209.557 277.352C209.557 276.536 209.397 275.84 209.077 275.264C208.757 274.672 208.325 274.224 207.781 273.92C207.237 273.6 206.653 273.44 206.029 273.44C205.405 273.44 204.829 273.592 204.301 273.896C203.773 274.2 203.341 274.648 203.005 275.24C202.685 275.816 202.525 276.504 202.525 277.304C202.525 278.104 202.685 278.808 203.005 279.416C203.341 280.008 203.773 280.464 204.301 280.784C204.845 281.104 205.421 281.264 206.029 281.264C206.653 281.264 207.237 281.112 207.781 280.808C208.325 280.488 208.757 280.04 209.077 279.464C209.397 278.872 209.557 278.168 209.557 277.352ZM220.134 273.464V279.896C220.134 280.344 220.238 280.672 220.446 280.88C220.67 281.072 221.038 281.168 221.55 281.168H223.11V284H220.998C218.166 284 216.75 282.624 216.75 279.872V273.464H215.166V270.704H216.75V267.416H220.134V270.704H223.11V273.464H220.134Z" fill="#0F253E"/>
<path d="M188.373 229.01C169.388 239.094 148.169 244.246 126.67 243.991C105.17 243.736 84.0804 238.082 65.34 227.551C46.5996 217.019 30.8108 201.947 19.426 183.721C8.04129 165.496 1.42674 144.702 0.190074 123.253C-0.063358 118.723 -0.063358 114.183 0.190074 109.653H2.91224C2.68085 114.129 2.68085 118.614 2.91224 123.09C4.76047 156.239 19.7112 187.296 44.4758 209.43C69.2405 231.564 101.79 242.961 134.965 241.114C168.139 239.267 199.22 224.328 221.371 199.582C243.522 174.837 254.928 142.312 253.079 109.163L255.802 109C257.159 133.37 251.528 157.621 239.57 178.904C227.611 200.186 209.821 217.616 188.292 229.146L188.373 229.01Z" fill="#0F253E"/>
<path d="M134.404 231.824C157.317 230.558 179.339 222.523 197.685 208.737C216.031 194.951 229.876 176.034 237.468 154.378C245.06 132.722 246.058 109.301 240.336 87.0773C234.614 64.8539 222.43 44.827 205.324 29.5302C188.217 14.2333 166.958 4.35392 144.236 1.14196C121.514 -2.07001 98.3493 1.52975 77.6735 11.4858C56.9976 21.4418 39.7395 37.3068 28.0821 57.0735C16.4248 76.8402 10.8919 99.6205 12.1841 122.532C13.9222 153.224 27.7689 181.971 50.684 202.463C73.5991 222.954 103.709 233.514 134.404 231.824Z" fill="#0F253E"/>
<path d="M101 97.1532C101.064 99.019 101.515 100.85 102.323 102.529C103.131 104.207 104.279 105.695 105.691 106.896C107.289 107.859 109.093 108.418 110.95 108.523C112.807 108.629 114.661 108.279 116.356 107.503L130.184 102.701C132.123 108.172 135.897 112.781 140.849 115.727C143.838 117.328 147.177 118.144 150.559 118.101C153.945 118.053 157.3 117.437 160.487 116.279C160.933 116.122 161.3 115.794 161.509 115.366C161.718 114.937 161.753 114.442 161.605 113.989C161.444 113.535 161.115 113.163 160.687 112.952C160.259 112.74 159.766 112.706 159.314 112.857C156.66 114.007 153.795 114.574 150.908 114.522C148.022 114.47 145.179 113.799 142.567 112.554C137.954 109.7 134.552 105.215 133.021 99.9683C132.955 99.7243 132.841 99.4961 132.686 99.2971C132.531 99.098 132.339 98.9321 132.121 98.8091C131.896 98.7134 131.655 98.6642 131.411 98.6642C131.168 98.6642 130.927 98.7134 130.702 98.8091L115.128 104.329C113.963 104.899 112.68 105.182 111.386 105.153C110.092 105.124 108.822 104.785 107.682 104.163C106.047 102.765 104.995 100.794 104.736 98.6435L140.385 86.1963C143.021 85.2884 145.905 85.477 148.404 86.7207L150.259 87.6315C153.669 89.2971 157.593 89.5254 161.169 88.2662L163.105 87.5762L178.434 132.756C178.503 132.981 178.615 133.189 178.765 133.37C178.915 133.55 179.099 133.698 179.307 133.805C179.556 133.915 179.826 133.971 180.098 133.97C180.296 134.01 180.5 134.01 180.698 133.97L199.79 127.402C200.238 127.239 200.606 126.905 200.815 126.472C201.024 126.039 201.057 125.541 200.908 125.083L184.98 78.165C184.813 77.7249 184.493 77.3617 184.08 77.1439C183.86 77.049 183.624 77 183.385 77C183.146 77 182.909 77.049 182.689 77.1439L163.76 83.6572C163.595 83.718 163.439 83.8017 163.297 83.9057L160.132 85.0648C158.807 85.5441 157.4 85.7496 155.994 85.669C154.589 85.5884 153.213 85.2234 151.95 84.5956L150.095 83.6848C146.686 82.022 142.767 81.784 139.185 83.0225L102.145 95.9388C101.872 96.0334 101.626 96.1931 101.426 96.4044C101.227 96.6158 101.081 96.8726 101 97.1532ZM166.46 86.1136L166.814 85.9203L182.007 80.6765L196.735 124.2L181.161 129.72L166.46 86.1136Z" fill="white"/>
<path d="M56.0089 124.202L73.7486 132.905L81.5298 140.107C87.7441 145.826 94.7448 150.622 102.317 154.348L136.763 171.235C138.573 172.113 140.654 172.24 142.558 171.59C144.463 170.927 146.029 169.534 146.911 167.716C147.567 166.449 147.832 165.015 147.673 163.596L150.938 165.233C151.968 165.749 153.106 166.011 154.257 165.997C155.358 166.001 156.445 165.764 157.444 165.301C158.443 164.839 159.329 164.162 160.04 163.32C160.75 162.478 161.268 161.49 161.557 160.425C161.846 159.361 161.899 158.245 161.712 157.158H162.719C164.225 157.163 165.698 156.717 166.95 155.877C168.202 155.037 169.175 153.842 169.744 152.444C170.314 151.046 170.455 149.509 170.149 148.031C169.843 146.552 169.103 145.199 168.025 144.145C169.426 143.414 170.553 142.246 171.235 140.817C171.671 139.918 171.927 138.941 171.986 137.943C172.046 136.945 171.909 135.944 171.583 134.999C171.257 134.054 170.748 133.183 170.087 132.435C169.425 131.687 168.622 131.078 167.725 130.641L154.611 124.175C154.398 124.065 154.164 123.999 153.924 123.981C153.685 123.963 153.445 123.993 153.217 124.07C152.989 124.146 152.78 124.268 152.6 124.428C152.42 124.587 152.274 124.781 152.17 124.998C152.066 125.216 152.007 125.451 151.996 125.692C151.985 125.932 152.021 126.173 152.104 126.398C152.187 126.624 152.315 126.831 152.479 127.007C152.643 127.183 152.841 127.324 153.06 127.422L166.175 133.86C167.131 134.335 167.864 135.168 168.215 136.179C168.394 136.674 168.469 137.201 168.436 137.726C168.403 138.252 168.263 138.765 168.025 139.234C167.562 140.192 166.74 140.927 165.739 141.28C165.245 141.459 164.72 141.535 164.196 141.502C163.672 141.469 163.16 141.329 162.692 141.089L153.822 136.752L137.96 128.949C137.529 128.751 137.039 128.728 136.592 128.886C136.145 129.044 135.777 129.37 135.566 129.795C135.358 130.222 135.328 130.714 135.481 131.164C135.633 131.614 135.957 131.984 136.381 132.196L161.114 144.336L164.542 146C165.495 146.47 166.221 147.301 166.563 148.309C166.905 149.317 166.834 150.419 166.365 151.375C165.896 152.33 165.068 153.059 164.062 153.402C163.057 153.744 161.957 153.673 161.005 153.202L157.631 151.566L150.448 148.046L129.988 138.007C129.774 137.897 129.541 137.83 129.302 137.812C129.062 137.794 128.821 137.824 128.593 137.901C128.366 137.978 128.156 138.1 127.976 138.259C127.797 138.419 127.65 138.613 127.547 138.83C127.443 139.047 127.384 139.283 127.373 139.523C127.361 139.764 127.399 140.004 127.481 140.23C127.564 140.456 127.691 140.663 127.855 140.839C128.02 141.014 128.217 141.155 128.437 141.253L156.08 154.894C156.557 155.132 156.983 155.462 157.333 155.865C157.683 156.268 157.951 156.736 158.121 157.243C158.29 157.75 158.358 158.285 158.321 158.818C158.283 159.351 158.142 159.872 157.903 160.35C157.669 160.831 157.341 161.261 156.94 161.614C156.538 161.967 156.07 162.236 155.564 162.406C155.057 162.576 154.523 162.644 153.99 162.605C153.458 162.565 152.938 162.42 152.462 162.178L142.993 157.54L124.165 148.292C123.951 148.182 123.718 148.116 123.479 148.097C123.239 148.079 122.999 148.11 122.771 148.186C122.544 148.263 122.334 148.385 122.154 148.544C121.974 148.704 121.828 148.898 121.724 149.115C121.621 149.332 121.562 149.568 121.55 149.808C121.539 150.049 121.576 150.289 121.659 150.515C121.742 150.741 121.869 150.948 122.033 151.124C122.197 151.299 122.395 151.44 122.614 151.538L141.85 160.978C142.795 161.469 143.522 162.296 143.891 163.296C144.069 163.792 144.145 164.318 144.112 164.844C144.079 165.37 143.939 165.883 143.701 166.352C143.226 167.311 142.396 168.046 141.388 168.398C140.894 168.577 140.369 168.652 139.845 168.619C139.321 168.587 138.809 168.446 138.341 168.207L103.922 151.32C96.6521 147.763 89.9342 143.168 83.9783 137.679L76.959 131.241L97.882 88.3548C98.0801 87.9232 98.1032 87.4312 97.9457 86.983C97.7883 86.5349 97.4626 86.1657 97.0383 85.954L79.0813 77.1422C78.862 77.0484 78.6256 77 78.3872 77C78.1487 77 77.913 77.0484 77.6937 77.1422C77.4716 77.2117 77.2668 77.3279 77.0932 77.4832C76.9196 77.6385 76.7808 77.8292 76.6867 78.0425L55.0835 122.02C54.9538 122.435 54.9758 122.882 55.1453 123.282C55.3148 123.682 55.6211 124.008 56.0089 124.202ZM59.2737 121.884L79.1903 80.9616L93.9641 88.1911L74.0203 129.113L59.2737 121.884Z" fill="white"/>
</svg>
