<svg width="70" height="63" viewBox="0 0 70 63" fill="none" xmlns="http://www.w3.org/2000/svg">
<path d="M60.7881 55.5781V55.8984L59.8896 56.4844C60.2126 56.7292 60.4704 57.026 60.6631 57.375C60.8506 57.724 60.9443 58.112 60.9443 58.5391V59.125C60.9443 59.5052 60.874 59.8646 60.7334 60.2031C60.5876 60.5365 60.3896 60.8281 60.1396 61.0781C59.8896 61.3281 59.598 61.526 59.2646 61.6719C58.9313 61.8125 58.5745 61.8828 58.1943 61.8828H52.1787C51.7985 61.8828 51.4417 61.8125 51.1084 61.6719C50.7751 61.526 50.4834 61.3281 50.2334 61.0781C49.9834 60.8281 49.7881 60.5365 49.6475 60.2031C49.5016 59.8646 49.4287 59.5052 49.4287 59.125V58.3281C49.4287 57.9479 49.5016 57.5911 49.6475 57.2578C49.7881 56.9245 49.9834 56.6328 50.2334 56.3828C50.4834 56.1328 50.7751 55.9375 51.1084 55.7969C51.4417 55.651 51.7985 55.5781 52.1787 55.5781H52.6318L52.7881 56.5859H52.1787C51.9287 56.5859 51.6969 56.6328 51.4834 56.7266C51.2646 56.8203 51.0745 56.9479 50.9131 57.1094C50.7516 57.2708 50.624 57.4609 50.5303 57.6797C50.4365 57.8932 50.3896 58.125 50.3896 58.375V59.0781C50.3896 59.3281 50.4365 59.5625 50.5303 59.7812C50.624 59.9948 50.7516 60.1849 50.9131 60.3516C51.0745 60.513 51.2646 60.6406 51.4834 60.7344C51.6969 60.8281 51.9287 60.875 52.1787 60.875H58.1943C58.4443 60.875 58.6787 60.8281 58.8975 60.7344C59.111 60.6406 59.3011 60.513 59.4678 60.3516C59.6292 60.1849 59.7568 59.9948 59.8506 59.7812C59.9443 59.5625 59.9912 59.3281 59.9912 59.0781V58.375C59.9912 58.125 59.9443 57.8932 59.8506 57.6797C59.7568 57.4609 59.6292 57.2708 59.4678 57.1094C59.3011 56.9479 59.111 56.8203 58.8975 56.7266C58.6787 56.6328 58.4443 56.5859 58.1943 56.5859H55.8584V58.375H54.8975V55.5781H60.7881ZM58.5928 48.1484C58.9157 48.1484 59.2204 48.2109 59.5068 48.3359C59.7933 48.4557 60.0433 48.6224 60.2568 48.8359C60.4704 49.0495 60.6396 49.2995 60.7646 49.5859C60.8844 49.8724 60.9443 50.1771 60.9443 50.5V51.1406C60.9443 51.4635 60.8844 51.7682 60.7646 52.0547C60.6396 52.3411 60.4704 52.5911 60.2568 52.8047C60.0433 53.0182 59.7933 53.1875 59.5068 53.3125C59.2204 53.4323 58.9157 53.4922 58.5928 53.4922H54.9834C54.6605 53.4922 54.3558 53.4323 54.0693 53.3125C53.7829 53.1875 53.5329 53.0182 53.3193 52.8047C53.1058 52.5911 52.9391 52.3411 52.8193 52.0547C52.6943 51.7682 52.6318 51.4635 52.6318 51.1406V50.5C52.6318 50.1771 52.6943 49.8724 52.8193 49.5859C52.9391 49.2995 53.1058 49.0495 53.3193 48.8359C53.5329 48.6224 53.7829 48.4557 54.0693 48.3359C54.3558 48.2109 54.6605 48.1484 54.9834 48.1484H58.5928ZM54.9287 49.1094C54.736 49.1094 54.5563 49.1458 54.3896 49.2188C54.2178 49.2917 54.0693 49.3906 53.9443 49.5156C53.8193 49.6406 53.7204 49.7891 53.6475 49.9609C53.5745 50.1276 53.5381 50.3073 53.5381 50.5V51.1406C53.5381 51.3333 53.5745 51.5156 53.6475 51.6875C53.7204 51.8542 53.8193 52 53.9443 52.125C54.0693 52.25 54.2178 52.349 54.3896 52.4219C54.5563 52.4948 54.736 52.5312 54.9287 52.5312H58.6475C58.8402 52.5312 59.0225 52.4948 59.1943 52.4219C59.361 52.349 59.5068 52.25 59.6318 52.125C59.7568 52 59.8558 51.8542 59.9287 51.6875C60.0016 51.5156 60.0381 51.3333 60.0381 51.1406V50.5C60.0381 50.3073 60.0016 50.1276 59.9287 49.9609C59.8558 49.7891 59.7568 49.6406 59.6318 49.5156C59.5068 49.3906 59.361 49.2917 59.1943 49.2188C59.0225 49.1458 58.8402 49.1094 58.6475 49.1094H54.9287ZM58.5928 37.1953C58.9157 37.1953 59.2204 37.2578 59.5068 37.3828C59.7933 37.5026 60.0433 37.6693 60.2568 37.8828C60.4704 38.0964 60.6396 38.3464 60.7646 38.6328C60.8844 38.9193 60.9443 39.224 60.9443 39.5469V40.1875C60.9443 40.5104 60.8844 40.8151 60.7646 41.1016C60.6396 41.388 60.4704 41.638 60.2568 41.8516C60.0433 42.0651 59.7933 42.2344 59.5068 42.3594C59.2204 42.4792 58.9157 42.5391 58.5928 42.5391H49.585V41.5781H53.46C53.1995 41.3594 52.9964 41.0964 52.8506 40.7891C52.7048 40.4818 52.6318 40.1484 52.6318 39.7891V39.5469C52.6318 39.224 52.6943 38.9193 52.8193 38.6328C52.9391 38.3464 53.1058 38.0964 53.3193 37.8828C53.5329 37.6693 53.7829 37.5026 54.0693 37.3828C54.3558 37.2578 54.6605 37.1953 54.9834 37.1953H58.5928ZM54.9287 38.1562C54.736 38.1562 54.5563 38.1927 54.3896 38.2656C54.2178 38.3385 54.0693 38.4375 53.9443 38.5625C53.8193 38.6875 53.7204 38.8359 53.6475 39.0078C53.5745 39.1745 53.5381 39.3542 53.5381 39.5469V40.1875C53.5381 40.3802 53.5745 40.5625 53.6475 40.7344C53.7204 40.901 53.8193 41.0469 53.9443 41.1719C54.0693 41.2969 54.2178 41.3958 54.3896 41.4688C54.5563 41.5417 54.736 41.5781 54.9287 41.5781H58.6475C58.8402 41.5781 59.0225 41.5417 59.1943 41.4688C59.361 41.3958 59.5068 41.2969 59.6318 41.1719C59.7568 41.0469 59.8558 40.901 59.9287 40.7344C60.0016 40.5625 60.0381 40.3802 60.0381 40.1875V39.5469C60.0381 39.3542 60.0016 39.1745 59.9287 39.0078C59.8558 38.8359 59.7568 38.6875 59.6318 38.5625C59.5068 38.4375 59.361 38.3385 59.1943 38.2656C59.0225 38.1927 58.8402 38.1562 58.6475 38.1562H54.9287ZM60.7881 30.25L59.9912 30.7812C60.2777 31 60.5094 31.2734 60.6865 31.6016C60.8584 31.9297 60.9443 32.2891 60.9443 32.6797V32.9219C60.9443 33.2448 60.8844 33.5495 60.7646 33.8359C60.6396 34.1224 60.4704 34.3724 60.2568 34.5859C60.0433 34.7995 59.7933 34.9688 59.5068 35.0938C59.2204 35.2135 58.9157 35.2734 58.5928 35.2734H58.5146C58.1917 35.2734 57.887 35.2135 57.6006 35.0938C57.3141 34.9688 57.0641 34.7995 56.8506 34.5859C56.637 34.3724 56.4704 34.1224 56.3506 33.8359C56.2256 33.5495 56.1631 33.2448 56.1631 32.9219V30.8906H54.9287C54.736 30.8906 54.5563 30.9271 54.3896 31C54.2178 31.0729 54.0693 31.1719 53.9443 31.2969C53.8193 31.4219 53.7204 31.5703 53.6475 31.7422C53.5745 31.9089 53.5381 32.0885 53.5381 32.2812V32.8438C53.5381 33.0365 53.5745 33.2188 53.6475 33.3906C53.7204 33.5573 53.8193 33.7031 53.9443 33.8281C54.0693 33.9531 54.2178 34.0521 54.3896 34.125C54.5563 34.1979 54.736 34.2344 54.9287 34.2344H55.2178L55.0615 35.1953H54.9834C54.6605 35.1953 54.3558 35.1354 54.0693 35.0156C53.7829 34.8906 53.5329 34.7214 53.3193 34.5078C53.1058 34.2943 52.9391 34.0443 52.8193 33.7578C52.6943 33.4714 52.6318 33.1667 52.6318 32.8438V32.2812C52.6318 31.9583 52.6943 31.6536 52.8193 31.3672C52.9391 31.0807 53.1058 30.8307 53.3193 30.6172C53.5329 30.4036 53.7829 30.237 54.0693 30.1172C54.3558 29.9922 54.6605 29.9297 54.9834 29.9297H60.7881V30.25ZM56.9131 30.8906V32.9219C56.9131 33.1146 56.9495 33.2969 57.0225 33.4688C57.0954 33.6354 57.1969 33.7812 57.3271 33.9062C57.4521 34.0312 57.6006 34.1302 57.7725 34.2031C57.9391 34.276 58.1188 34.3125 58.3115 34.3125H58.6475C58.8402 34.3125 59.0225 34.276 59.1943 34.2031C59.361 34.1302 59.5068 34.0312 59.6318 33.9062C59.7568 33.7812 59.8558 33.6354 59.9287 33.4688C60.0016 33.2969 60.0381 33.1146 60.0381 32.9219V32.2812C60.0381 32.0885 60.0016 31.9089 59.9287 31.7422C59.8558 31.5703 59.7568 31.4219 59.6318 31.2969C59.5068 31.1719 59.361 31.0729 59.1943 31C59.0225 30.9271 58.8402 30.8906 58.6475 30.8906H56.9131ZM58.5928 22.6641C58.9157 22.6641 59.2204 22.7266 59.5068 22.8516C59.7933 22.9714 60.0433 23.138 60.2568 23.3516C60.4704 23.5651 60.6396 23.8151 60.7646 24.1016C60.8844 24.388 60.9443 24.6927 60.9443 25.0156V25.6562C60.9443 25.9792 60.8844 26.2839 60.7646 26.5703C60.6396 26.8568 60.4704 27.1068 60.2568 27.3203C60.0433 27.5339 59.7933 27.7031 59.5068 27.8281C59.2204 27.9479 58.9157 28.0078 58.5928 28.0078H54.9834C54.6605 28.0078 54.3558 27.9479 54.0693 27.8281C53.7829 27.7031 53.5329 27.5339 53.3193 27.3203C53.1058 27.1068 52.9391 26.8568 52.8193 26.5703C52.6943 26.2839 52.6318 25.9792 52.6318 25.6562V25.0156C52.6318 24.6927 52.6943 24.388 52.8193 24.1016C52.9391 23.8151 53.1058 23.5651 53.3193 23.3516C53.5329 23.138 53.7829 22.9714 54.0693 22.8516C54.3558 22.7266 54.6605 22.6641 54.9834 22.6641H55.3037L55.46 23.625H54.9287C54.736 23.625 54.5563 23.6615 54.3896 23.7344C54.2178 23.8073 54.0693 23.9062 53.9443 24.0312C53.8193 24.1562 53.7204 24.3047 53.6475 24.4766C53.5745 24.6432 53.5381 24.8229 53.5381 25.0156V25.6562C53.5381 25.849 53.5745 26.0312 53.6475 26.2031C53.7204 26.3698 53.8193 26.5156 53.9443 26.6406C54.0693 26.7656 54.2178 26.8646 54.3896 26.9375C54.5563 27.0104 54.736 27.0469 54.9287 27.0469H58.6475C58.8402 27.0469 59.0225 27.0104 59.1943 26.9375C59.361 26.8646 59.5068 26.7656 59.6318 26.6406C59.7568 26.5156 59.8558 26.3698 59.9287 26.2031C60.0016 26.0312 60.0381 25.849 60.0381 25.6562V25.0156C60.0381 24.8229 60.0016 24.6432 59.9287 24.4766C59.8558 24.3047 59.7568 24.1562 59.6318 24.0312C59.5068 23.9062 59.361 23.8073 59.1943 23.7344C59.0225 23.6615 58.8402 23.625 58.6475 23.625H58.1162L58.2725 22.6641H58.5928ZM60.7881 16.1641L56.7881 19.4297L52.7881 16.1641V14.9141L56.7881 18.2578L60.7881 14.9141V16.1641ZM60.7881 20.5781H49.585V19.6172H60.7881V20.5781Z" fill="black"/>
<path d="M3 3H34.9335" stroke="black" stroke-width="5" stroke-linecap="round"/>
<path d="M16.6758 57.5C16.6758 58.8807 17.7951 60 19.1758 60C20.5565 60 21.6758 58.8807 21.6758 57.5H16.6758ZM20.9435 6.39617C19.9672 5.41986 18.3843 5.41986 17.408 6.39617L1.49811 22.3061C0.521801 23.2824 0.521801 24.8653 1.49811 25.8416C2.47442 26.8179 4.05733 26.8179 5.03365 25.8416L19.1758 11.6995L33.3179 25.8416C34.2942 26.8179 35.8771 26.8179 36.8535 25.8416C37.8298 24.8653 37.8298 23.2824 36.8535 22.3061L20.9435 6.39617ZM21.6758 57.5L21.6758 8.16394H16.6758L16.6758 57.5H21.6758Z" fill="black"/>
</svg>

