<svg width="70" height="63" viewBox="0 0 70 63" fill="none" xmlns="http://www.w3.org/2000/svg">
    <path d="M3 3H34.9335" stroke="white" stroke-width="5" stroke-linecap="round" />
    <path
        d="M16.6758 57.5C16.6758 58.8807 17.7951 60 19.1758 60C20.5565 60 21.6758 58.8807 21.6758 57.5H16.6758ZM20.9435 6.39617C19.9672 5.41986 18.3843 5.41986 17.408 6.39617L1.49811 22.3061C0.521801 23.2824 0.521801 24.8653 1.49811 25.8416C2.47442 26.8179 4.05733 26.8179 5.03365 25.8416L19.1758 11.6995L33.3179 25.8416C34.2942 26.8179 35.8771 26.8179 36.8535 25.8416C37.8298 24.8653 37.8298 23.2824 36.8535 22.3061L20.9435 6.39617ZM21.6758 57.5L21.6758 8.16394H16.6758L16.6758 57.5H21.6758Z"
        fill="white" />
</svg>