<svg width="270" height="303" viewBox="0 0 270 303" fill="none" xmlns="http://www.w3.org/2000/svg">
<path d="M71.8402 279.248V296H68.4802V279.248H71.8402ZM82.5279 282.512C84.1119 282.512 85.3919 283.016 86.3679 284.024C87.3439 285.016 87.8319 286.408 87.8319 288.2V296H84.4719V288.656C84.4719 287.6 84.2079 286.792 83.6799 286.232C83.1519 285.656 82.4319 285.368 81.5199 285.368C80.5919 285.368 79.8559 285.656 79.3119 286.232C78.7839 286.792 78.5199 287.6 78.5199 288.656V296H75.1599V282.704H78.5199V284.36C78.9679 283.784 79.5359 283.336 80.2239 283.016C80.9279 282.68 81.6959 282.512 82.5279 282.512ZM96.2351 282.488C97.2271 282.488 98.0991 282.688 98.8511 283.088C99.6031 283.472 100.195 283.976 100.627 284.6V282.704H104.011V296.096C104.011 297.328 103.763 298.424 103.267 299.384C102.771 300.36 102.027 301.128 101.035 301.688C100.043 302.264 98.8431 302.552 97.4351 302.552C95.5471 302.552 93.9951 302.112 92.7791 301.232C91.5791 300.352 90.8991 299.152 90.7391 297.632H94.0751C94.2511 298.24 94.6271 298.72 95.2031 299.072C95.7951 299.44 96.5071 299.624 97.3391 299.624C98.3151 299.624 99.1071 299.328 99.7151 298.736C100.323 298.16 100.627 297.28 100.627 296.096V294.032C100.195 294.656 99.5951 295.176 98.8271 295.592C98.0751 296.008 97.2111 296.216 96.2351 296.216C95.1151 296.216 94.0911 295.928 93.1631 295.352C92.2351 294.776 91.4991 293.968 90.9551 292.928C90.4271 291.872 90.1631 290.664 90.1631 289.304C90.1631 287.96 90.4271 286.768 90.9551 285.728C91.4991 284.688 92.2271 283.888 93.1391 283.328C94.0671 282.768 95.0991 282.488 96.2351 282.488ZM100.627 289.352C100.627 288.536 100.467 287.84 100.147 287.264C99.8271 286.672 99.3951 286.224 98.8511 285.92C98.3071 285.6 97.7231 285.44 97.0991 285.44C96.4751 285.44 95.8991 285.592 95.3711 285.896C94.8431 286.2 94.4111 286.648 94.0751 287.24C93.7551 287.816 93.5951 288.504 93.5951 289.304C93.5951 290.104 93.7551 290.808 94.0751 291.416C94.4111 292.008 94.8431 292.464 95.3711 292.784C95.9151 293.104 96.4911 293.264 97.0991 293.264C97.7231 293.264 98.3071 293.112 98.8511 292.808C99.3951 292.488 99.8271 292.04 100.147 291.464C100.467 290.872 100.627 290.168 100.627 289.352ZM119.653 289.064C119.653 289.544 119.621 289.976 119.557 290.36H109.837C109.917 291.32 110.253 292.072 110.845 292.616C111.437 293.16 112.165 293.432 113.029 293.432C114.277 293.432 115.165 292.896 115.693 291.824H119.317C118.933 293.104 118.197 294.16 117.109 294.992C116.021 295.808 114.685 296.216 113.101 296.216C111.821 296.216 110.669 295.936 109.645 295.376C108.637 294.8 107.845 293.992 107.269 292.952C106.709 291.912 106.429 290.712 106.429 289.352C106.429 287.976 106.709 286.768 107.269 285.728C107.829 284.688 108.613 283.888 109.621 283.328C110.629 282.768 111.789 282.488 113.101 282.488C114.365 282.488 115.493 282.76 116.485 283.304C117.493 283.848 118.269 284.624 118.813 285.632C119.373 286.624 119.653 287.768 119.653 289.064ZM116.173 288.104C116.157 287.24 115.845 286.552 115.237 286.04C114.629 285.512 113.885 285.248 113.005 285.248C112.173 285.248 111.469 285.504 110.893 286.016C110.333 286.512 109.989 287.208 109.861 288.104H116.173ZM115.669 279.2L110.149 281.72V279.32L115.669 276.464V279.2ZM129.473 282.512C131.057 282.512 132.337 283.016 133.313 284.024C134.289 285.016 134.777 286.408 134.777 288.2V296H131.417V288.656C131.417 287.6 131.153 286.792 130.625 286.232C130.097 285.656 129.377 285.368 128.465 285.368C127.537 285.368 126.801 285.656 126.257 286.232C125.729 286.792 125.465 287.6 125.465 288.656V296H122.105V282.704H125.465V284.36C125.913 283.784 126.481 283.336 127.169 283.016C127.873 282.68 128.641 282.512 129.473 282.512ZM139.676 281.12C139.084 281.12 138.588 280.936 138.188 280.568C137.804 280.184 137.612 279.712 137.612 279.152C137.612 278.592 137.804 278.128 138.188 277.76C138.588 277.376 139.084 277.184 139.676 277.184C140.268 277.184 140.756 277.376 141.14 277.76C141.54 278.128 141.74 278.592 141.74 279.152C141.74 279.712 141.54 280.184 141.14 280.568C140.756 280.936 140.268 281.12 139.676 281.12ZM141.332 282.704V296H137.972V282.704H141.332ZM150.556 296.216C149.276 296.216 148.124 295.936 147.1 295.376C146.076 294.8 145.268 293.992 144.676 292.952C144.1 291.912 143.812 290.712 143.812 289.352C143.812 287.992 144.108 286.792 144.7 285.752C145.308 284.712 146.132 283.912 147.172 283.352C148.212 282.776 149.372 282.488 150.652 282.488C151.932 282.488 153.092 282.776 154.132 283.352C155.172 283.912 155.988 284.712 156.58 285.752C157.188 286.792 157.492 287.992 157.492 289.352C157.492 290.712 157.18 291.912 156.556 292.952C155.948 293.992 155.116 294.8 154.06 295.376C153.02 295.936 151.852 296.216 150.556 296.216ZM150.556 293.288C151.164 293.288 151.732 293.144 152.26 292.856C152.804 292.552 153.236 292.104 153.556 291.512C153.876 290.92 154.036 290.2 154.036 289.352C154.036 288.088 153.7 287.12 153.028 286.448C152.372 285.76 151.564 285.416 150.604 285.416C149.644 285.416 148.836 285.76 148.18 286.448C147.54 287.12 147.22 288.088 147.22 289.352C147.22 290.616 147.532 291.592 148.156 292.28C148.796 292.952 149.596 293.288 150.556 293.288ZM165.045 296.216C163.957 296.216 162.981 296.024 162.117 295.64C161.253 295.24 160.565 294.704 160.053 294.032C159.557 293.36 159.285 292.616 159.237 291.8H162.621C162.685 292.312 162.933 292.736 163.365 293.072C163.813 293.408 164.365 293.576 165.021 293.576C165.661 293.576 166.157 293.448 166.509 293.192C166.877 292.936 167.061 292.608 167.061 292.208C167.061 291.776 166.837 291.456 166.389 291.248C165.957 291.024 165.261 290.784 164.301 290.528C163.309 290.288 162.493 290.04 161.853 289.784C161.229 289.528 160.685 289.136 160.221 288.608C159.773 288.08 159.549 287.368 159.549 286.472C159.549 285.736 159.757 285.064 160.173 284.456C160.605 283.848 161.213 283.368 161.997 283.016C162.797 282.664 163.733 282.488 164.805 282.488C166.389 282.488 167.653 282.888 168.597 283.688C169.541 284.472 170.061 285.536 170.157 286.88H166.941C166.893 286.352 166.669 285.936 166.269 285.632C165.885 285.312 165.365 285.152 164.709 285.152C164.101 285.152 163.629 285.264 163.293 285.488C162.973 285.712 162.813 286.024 162.813 286.424C162.813 286.872 163.037 287.216 163.485 287.456C163.933 287.68 164.629 287.912 165.573 288.152C166.533 288.392 167.325 288.64 167.949 288.896C168.573 289.152 169.109 289.552 169.557 290.096C170.021 290.624 170.261 291.328 170.277 292.208C170.277 292.976 170.061 293.664 169.629 294.272C169.213 294.88 168.605 295.36 167.805 295.712C167.021 296.048 166.101 296.216 165.045 296.216ZM174.739 281.12C174.147 281.12 173.651 280.936 173.251 280.568C172.867 280.184 172.675 279.712 172.675 279.152C172.675 278.592 172.867 278.128 173.251 277.76C173.651 277.376 174.147 277.184 174.739 277.184C175.331 277.184 175.819 277.376 176.203 277.76C176.603 278.128 176.803 278.592 176.803 279.152C176.803 279.712 176.603 280.184 176.203 280.568C175.819 280.936 175.331 281.12 174.739 281.12ZM176.395 282.704V296H173.035V282.704H176.395ZM183.627 285.464V291.896C183.627 292.344 183.731 292.672 183.939 292.88C184.163 293.072 184.531 293.168 185.043 293.168H186.603V296H184.491C181.659 296 180.243 294.624 180.243 291.872V285.464H178.659V282.704H180.243V279.416H183.627V282.704H186.603V285.464H183.627ZM201.379 289.064C201.379 289.544 201.347 289.976 201.283 290.36H191.563C191.643 291.32 191.979 292.072 192.571 292.616C193.163 293.16 193.891 293.432 194.755 293.432C196.003 293.432 196.891 292.896 197.419 291.824H201.043C200.659 293.104 199.923 294.16 198.835 294.992C197.747 295.808 196.411 296.216 194.827 296.216C193.547 296.216 192.395 295.936 191.371 295.376C190.363 294.8 189.571 293.992 188.995 292.952C188.435 291.912 188.155 290.712 188.155 289.352C188.155 287.976 188.435 286.768 188.995 285.728C189.555 284.688 190.339 283.888 191.347 283.328C192.355 282.768 193.515 282.488 194.827 282.488C196.091 282.488 197.219 282.76 198.211 283.304C199.219 283.848 199.995 284.624 200.539 285.632C201.099 286.624 201.379 287.768 201.379 289.064ZM197.899 288.104C197.883 287.24 197.571 286.552 196.963 286.04C196.355 285.512 195.611 285.248 194.731 285.248C193.899 285.248 193.195 285.504 192.619 286.016C192.059 286.512 191.715 287.208 191.587 288.104H197.899ZM197.395 279.2L191.875 281.72V279.32L197.395 276.464V279.2Z" fill="#0F253E"/>
<path d="M72.3546 15.5178C93.5213 4.35052 117.248 -0.955521 141.112 0.141245C164.977 1.23801 188.127 8.69834 208.198 21.7608C228.27 34.8233 244.545 53.0205 255.362 74.4954C266.18 95.9703 271.153 119.954 269.775 144L266.907 143.827C267.151 139.068 267.151 134.3 266.907 129.541C266.059 112.072 261.807 94.9429 254.394 79.1308C246.98 63.3188 236.551 49.1338 223.7 37.3857C210.849 25.6377 195.829 16.5566 179.497 10.661C163.165 4.76546 145.841 2.17082 128.514 3.02527C111.188 3.87972 94.1979 8.16661 78.5147 15.641C62.8314 23.1154 48.7618 33.631 37.1094 46.5874C25.457 59.5439 16.4502 74.6874 10.6027 91.1534C4.75509 107.619 2.18123 125.085 3.02872 142.554H0.160478C-1.09345 116.63 5.02147 90.8836 17.7852 68.3433C30.5489 45.8029 49.4309 27.4057 72.211 15.3154L72.3546 15.5178Z" fill="#0F253E"/>
<path d="M129.007 12.1463C104.708 13.3317 81.3056 21.6963 61.7605 36.1823C42.2155 50.6684 27.4047 70.6251 19.2021 93.5287C10.9995 116.432 9.77332 141.254 15.6782 164.855C21.5831 188.455 34.3537 209.775 52.3756 226.117C70.3975 242.459 92.8608 253.09 116.925 256.665C140.989 260.24 165.573 256.598 187.567 246.201C209.561 235.804 227.978 219.118 240.489 198.253C253 177.388 259.043 153.282 257.853 128.983C256.257 96.4047 241.786 65.7939 217.624 43.8834C193.461 21.9728 161.586 10.5569 129.007 12.1463Z" fill="#0F253E"/>
<path d="M129.315 78.0095C121.029 79.4675 113.541 83.7306 108.176 90.0441C102.811 96.3576 99.9153 104.314 100.002 112.505C100.002 112.701 100.041 112.896 100.119 113.077C100.196 113.258 100.309 113.423 100.451 113.562C100.594 113.701 100.764 113.811 100.95 113.886C101.137 113.961 101.336 114 101.538 114C101.946 114 102.336 113.842 102.625 113.562C102.913 113.282 103.075 112.901 103.075 112.505C103.026 105.602 105.263 98.8676 109.453 93.2969C114.417 86.8806 121.647 82.4796 129.749 80.9428C129.949 80.9092 130.14 80.8368 130.311 80.7299C130.481 80.6229 130.627 80.4836 130.74 80.3203C130.854 80.1571 130.933 79.9732 130.972 79.7798C131.011 79.5863 131.009 79.387 130.967 79.1941C130.897 78.8301 130.687 78.5057 130.38 78.286C130.073 78.0662 129.693 77.9674 129.315 78.0095Z" fill="white"/>
<path d="M102.155 116C101.589 116 101.046 115.776 100.643 115.377C100.24 114.978 100.01 114.436 100.002 113.868C99.9082 105.359 102.821 97.0921 108.223 90.5325C113.626 83.9729 121.169 79.5451 129.515 78.0343C129.787 77.9845 130.066 77.989 130.335 78.0475C130.605 78.106 130.861 78.2175 131.088 78.3754C131.314 78.5333 131.508 78.7346 131.657 78.9677C131.806 79.2008 131.908 79.4613 131.956 79.7339C132.013 80.0057 132.015 80.2863 131.96 80.5587C131.906 80.831 131.797 81.0895 131.64 81.3182C131.321 81.7782 130.838 82.0978 130.291 82.2111C122.37 83.7333 115.292 88.1461 110.424 94.5975C106.357 100.18 104.183 106.925 104.222 113.84C104.221 114.407 104.005 114.952 103.62 115.366C103.232 115.76 102.707 115.988 102.155 116ZM129.745 79.2153C121.068 80.879 113.313 85.7134 107.983 92.7827C103.537 98.9039 101.162 106.294 101.208 113.868C101.217 114.048 101.276 114.222 101.379 114.369C101.482 114.516 101.624 114.631 101.789 114.7C101.954 114.77 102.136 114.791 102.312 114.761C102.489 114.731 102.654 114.651 102.787 114.531C102.95 114.349 103.043 114.113 103.046 113.868C103 106.695 105.254 99.696 109.476 93.9062C114.528 87.2081 121.87 82.6216 130.089 81.03C130.21 81.0108 130.325 80.9679 130.429 80.9036C130.532 80.8393 130.622 80.7549 130.693 80.6555C130.825 80.451 130.875 80.2046 130.836 79.9642C130.787 79.7214 130.647 79.5072 130.443 79.3673C130.239 79.2275 129.989 79.1729 129.745 79.2153Z" fill="white"/>
<path d="M181.227 103.592C179.703 95.9486 176.292 88.803 171.301 82.7991C166.311 76.7952 159.898 72.1218 152.64 69.1999L151.626 68.8251H151.308C149.281 68.0645 147.199 67.4574 145.08 67.0089H144.762C143.078 66.6565 141.376 66.3966 139.664 66.2305C138.129 66.2305 136.565 66 135 66H132.104H131.728H129.672C119.744 67.1356 110.434 71.3751 103.08 78.1091C95.7265 84.843 90.7071 93.7245 88.7446 103.476C87.8141 109.075 87.7553 114.782 88.5706 120.399C88.7444 121.379 88.8897 122.388 89.1215 123.281C89.4111 124.492 89.7582 125.674 90.1348 126.856C91.7274 131.571 94.0221 136.022 96.9417 140.059C97.463 140.78 98.0128 141.529 98.5921 142.221L98.7951 142.481C99.635 143.461 100.504 144.441 101.431 145.364C102.64 146.597 103.926 147.753 105.283 148.823C106.647 149.925 108.068 150.955 109.541 151.908C110.737 152.679 111.786 153.655 112.64 154.79C113.031 155.263 113.372 155.775 113.654 156.318V156.491C113.915 157.039 114.176 157.615 114.436 158.279C115.265 161.879 115.461 165.595 115.015 169.262V171.741C114.996 173.49 115.444 175.213 116.314 176.733C117.185 178.253 118.446 179.515 119.968 180.39V194.112C119.968 196.734 121.015 199.249 122.878 201.104C124.741 202.958 127.268 204 129.903 204H139.838C141.144 204.004 142.437 203.751 143.644 203.255C144.851 202.759 145.948 202.031 146.871 201.112C147.794 200.193 148.526 199.102 149.024 197.9C149.522 196.699 149.776 195.411 149.773 194.112V180.39C151.298 179.516 152.563 178.256 153.438 176.736C154.314 175.217 154.768 173.493 154.754 171.741V161.94C154.769 160.528 155.044 159.13 155.565 157.817C155.673 157.531 155.799 157.252 155.942 156.981C156.315 156.171 156.782 155.407 157.332 154.704C159.079 152.959 161.023 151.421 163.125 150.12C163.704 149.717 164.226 149.313 164.747 148.909C166.097 147.831 167.384 146.677 168.599 145.45C169.381 144.643 169.787 144.124 169.787 144.124C169.787 144.124 170.366 143.547 171.206 142.51L171.438 142.25C171.901 141.645 172.481 140.924 173.089 140.088C175.998 136.048 178.282 131.598 179.866 126.885C180.04 126.366 180.214 125.847 180.359 125.328C180.504 124.809 180.735 123.973 180.88 123.31C181.112 122.33 181.286 121.321 181.459 120.427C182.251 114.837 182.173 109.158 181.227 103.592ZM144.878 194.256C144.878 195.571 144.353 196.832 143.418 197.762C142.484 198.692 141.217 199.214 139.895 199.214H130.077C128.76 199.207 127.501 198.681 126.573 197.752C125.645 196.823 125.124 195.566 125.124 194.256V191.806H144.993L144.878 194.256ZM144.878 186.847H125.008V181.946H144.878V186.847ZM157.419 154.935C157.792 154.491 158.189 154.068 158.607 153.666C158.201 154.07 157.795 154.502 157.419 154.935ZM158.867 153.435L159.273 153.061C159.622 152.769 159.99 152.499 160.373 152.254C159.836 152.601 159.332 152.997 158.867 153.435ZM163.096 144.037C161.461 145.501 159.719 146.841 157.883 148.045C157.237 148.447 156.617 148.89 156.029 149.371C155.745 149.605 155.474 149.856 155.218 150.12C154.952 150.356 154.701 150.606 154.464 150.87L154.262 151.043C151.482 154.131 149.909 158.111 149.831 162.257V172.058C149.823 173.363 149.298 174.613 148.371 175.536C147.444 176.459 146.189 176.981 144.878 176.988H125.008C123.692 176.988 122.429 176.47 121.496 175.546C120.562 174.622 120.034 173.368 120.026 172.058V162.055C119.998 159.258 119.261 156.512 117.884 154.074C116.506 151.635 114.534 149.581 112.148 148.102C104.886 143.555 99.1933 136.908 95.8336 129.05C92.4739 121.193 91.6076 112.501 93.3501 104.14C95.0927 95.779 99.3612 88.1476 105.584 82.2686C111.806 76.3895 119.685 72.5437 128.165 71.2466C130.227 70.939 132.308 70.7753 134.392 70.7565H134.827C136.911 70.7742 138.993 70.9379 141.054 71.2466C143.384 71.5996 145.687 72.1101 147.947 72.7745C155.071 74.9788 161.475 79.0343 166.499 84.5229C171.523 90.0114 174.986 96.7344 176.529 103.999C178.073 111.263 177.642 118.805 175.28 125.848C172.919 132.891 168.713 139.18 163.096 144.066V144.037Z" fill="white"/>
</svg>
