<svg width="276" height="320" viewBox="0 0 276 320" fill="none" xmlns="http://www.w3.org/2000/svg">
<path d="M90.8012 285.248V302H87.4412V285.248H90.8012ZM101.489 288.512C103.073 288.512 104.353 289.016 105.329 290.024C106.305 291.016 106.793 292.408 106.793 294.2V302H103.433V294.656C103.433 293.6 103.169 292.792 102.641 292.232C102.113 291.656 101.393 291.368 100.481 291.368C99.5528 291.368 98.8168 291.656 98.2728 292.232C97.7448 292.792 97.4808 293.6 97.4808 294.656V302H94.1208V288.704H97.4808V290.36C97.9288 289.784 98.4968 289.336 99.1848 289.016C99.8888 288.68 100.657 288.512 101.489 288.512ZM113.9 291.464V297.896C113.9 298.344 114.004 298.672 114.212 298.88C114.436 299.072 114.804 299.168 115.316 299.168H116.876V302H114.764C111.932 302 110.516 300.624 110.516 297.872V291.464H108.932V288.704H110.516V285.416H113.9V288.704H116.876V291.464H113.9ZM131.653 295.064C131.653 295.544 131.621 295.976 131.557 296.36H121.837C121.917 297.32 122.253 298.072 122.845 298.616C123.437 299.16 124.165 299.432 125.029 299.432C126.277 299.432 127.165 298.896 127.693 297.824H131.317C130.933 299.104 130.197 300.16 129.109 300.992C128.021 301.808 126.685 302.216 125.101 302.216C123.821 302.216 122.669 301.936 121.645 301.376C120.637 300.8 119.845 299.992 119.269 298.952C118.709 297.912 118.429 296.712 118.429 295.352C118.429 293.976 118.709 292.768 119.269 291.728C119.829 290.688 120.613 289.888 121.621 289.328C122.629 288.768 123.789 288.488 125.101 288.488C126.365 288.488 127.493 288.76 128.485 289.304C129.493 289.848 130.269 290.624 130.813 291.632C131.373 292.624 131.653 293.768 131.653 295.064ZM128.173 294.104C128.157 293.24 127.845 292.552 127.237 292.04C126.629 291.512 125.885 291.248 125.005 291.248C124.173 291.248 123.469 291.504 122.893 292.016C122.333 292.512 121.989 293.208 121.861 294.104H128.173ZM127.669 285.2L122.149 287.72V285.32L127.669 282.464V285.2ZM139.313 288.488C140.305 288.488 141.177 288.688 141.929 289.088C142.681 289.472 143.273 289.976 143.705 290.6V288.704H147.089V302.096C147.089 303.328 146.841 304.424 146.345 305.384C145.849 306.36 145.105 307.128 144.113 307.688C143.121 308.264 141.921 308.552 140.513 308.552C138.625 308.552 137.073 308.112 135.857 307.232C134.657 306.352 133.977 305.152 133.817 303.632H137.153C137.329 304.24 137.705 304.72 138.281 305.072C138.873 305.44 139.585 305.624 140.417 305.624C141.393 305.624 142.185 305.328 142.793 304.736C143.401 304.16 143.705 303.28 143.705 302.096V300.032C143.273 300.656 142.673 301.176 141.905 301.592C141.153 302.008 140.289 302.216 139.313 302.216C138.193 302.216 137.169 301.928 136.241 301.352C135.313 300.776 134.577 299.968 134.033 298.928C133.505 297.872 133.241 296.664 133.241 295.304C133.241 293.96 133.505 292.768 134.033 291.728C134.577 290.688 135.305 289.888 136.217 289.328C137.145 288.768 138.177 288.488 139.313 288.488ZM143.705 295.352C143.705 294.536 143.545 293.84 143.225 293.264C142.905 292.672 142.473 292.224 141.929 291.92C141.385 291.6 140.801 291.44 140.177 291.44C139.553 291.44 138.977 291.592 138.449 291.896C137.921 292.2 137.489 292.648 137.153 293.24C136.833 293.816 136.673 294.504 136.673 295.304C136.673 296.104 136.833 296.808 137.153 297.416C137.489 298.008 137.921 298.464 138.449 298.784C138.993 299.104 139.569 299.264 140.177 299.264C140.801 299.264 141.385 299.112 141.929 298.808C142.473 298.488 142.905 298.04 143.225 297.464C143.545 296.872 143.705 296.168 143.705 295.352ZM153.731 290.768C154.163 290.064 154.723 289.512 155.411 289.112C156.115 288.712 156.915 288.512 157.811 288.512V292.04H156.923C155.867 292.04 155.067 292.288 154.523 292.784C153.995 293.28 153.731 294.144 153.731 295.376V302H150.371V288.704H153.731V290.768ZM161.778 287.12C161.186 287.12 160.69 286.936 160.29 286.568C159.906 286.184 159.714 285.712 159.714 285.152C159.714 284.592 159.906 284.128 160.29 283.76C160.69 283.376 161.186 283.184 161.778 283.184C162.37 283.184 162.858 283.376 163.242 283.76C163.642 284.128 163.842 284.592 163.842 285.152C163.842 285.712 163.642 286.184 163.242 286.568C162.858 286.936 162.37 287.12 161.778 287.12ZM163.434 288.704V302H160.074V288.704H163.434ZM170.666 291.464V297.896C170.666 298.344 170.77 298.672 170.978 298.88C171.202 299.072 171.57 299.168 172.082 299.168H173.642V302H171.53C168.698 302 167.282 300.624 167.282 297.872V291.464H165.698V288.704H167.282V285.416H170.666V288.704H173.642V291.464H170.666ZM188.418 295.064C188.418 295.544 188.386 295.976 188.322 296.36H178.602C178.682 297.32 179.018 298.072 179.61 298.616C180.202 299.16 180.93 299.432 181.794 299.432C183.042 299.432 183.93 298.896 184.458 297.824H188.082C187.698 299.104 186.962 300.16 185.874 300.992C184.786 301.808 183.45 302.216 181.866 302.216C180.586 302.216 179.434 301.936 178.41 301.376C177.402 300.8 176.61 299.992 176.034 298.952C175.474 297.912 175.194 296.712 175.194 295.352C175.194 293.976 175.474 292.768 176.034 291.728C176.594 290.688 177.378 289.888 178.386 289.328C179.394 288.768 180.554 288.488 181.866 288.488C183.13 288.488 184.258 288.76 185.25 289.304C186.258 289.848 187.034 290.624 187.578 291.632C188.138 292.624 188.418 293.768 188.418 295.064ZM184.938 294.104C184.922 293.24 184.61 292.552 184.002 292.04C183.394 291.512 182.65 291.248 181.77 291.248C180.938 291.248 180.234 291.504 179.658 292.016C179.098 292.512 178.754 293.208 178.626 294.104H184.938ZM184.434 285.2L178.914 287.72V285.32L184.434 282.464V285.2Z" fill="#0F253E"/>
<path d="M203.087 245.806C181.514 257.287 157.286 262.839 132.869 261.897C108.453 260.956 84.7226 253.554 64.0972 240.446C43.4719 227.339 26.6889 208.994 15.4591 187.282C4.22936 165.57 -1.04571 141.268 0.171637 116.851H3.10564C2.84161 121.681 2.84161 126.522 3.10564 131.352C4.10164 149.072 8.57595 166.421 16.2736 182.41C23.9712 198.399 34.7415 212.714 47.9688 224.539C61.1961 236.364 76.6216 245.466 93.3649 251.326C110.108 257.186 127.841 259.689 145.552 258.693C163.262 257.696 180.603 253.22 196.584 245.518C212.565 237.817 226.873 227.042 238.692 213.808C250.511 200.574 259.608 185.14 265.465 168.389C271.323 151.637 273.824 133.895 272.828 116.176L275.762 116C276.829 134.117 274.296 152.266 268.308 169.398C262.32 186.529 252.997 202.302 240.877 215.806C230.129 227.938 217.339 238.092 203.087 245.806Z" fill="#0F253E"/>
<path d="M145.373 248.81C169.965 247.45 193.601 238.827 213.292 224.031C232.982 209.235 247.841 188.932 255.989 165.689C264.138 142.446 265.209 117.309 259.068 93.4574C252.927 69.6057 239.849 48.1115 221.489 31.6938C203.13 15.2762 180.313 4.67293 155.926 1.22563C131.539 -2.22168 106.677 1.64183 84.4859 12.3273C62.295 23.0128 43.7716 40.0402 31.2599 61.2552C18.7483 82.4702 12.8108 106.92 14.1976 131.51C16.0555 164.453 30.9142 195.312 55.5102 217.306C80.1062 239.3 112.428 250.631 145.373 248.81Z" fill="#0F253E"/>
<path d="M203.755 118.215L185.695 71.3354C186.61 70.4441 187.291 69.3385 187.678 68.1175C188.065 66.8964 188.146 65.598 187.913 64.3381C187.679 63.0782 187.14 61.896 186.342 60.8972C185.543 59.8985 184.512 59.1142 183.339 58.6144C182.167 58.1146 180.889 57.9149 179.621 58.0331C178.353 58.1513 177.133 58.5837 176.072 59.2917C175.01 59.9998 174.139 60.9616 173.537 62.0909C172.935 63.2202 172.62 64.482 172.621 65.7636C172.606 65.9676 172.606 66.1723 172.621 66.3763L145.922 74.0484C145.053 72.2209 143.592 70.7454 141.779 69.8644C139.965 68.9834 137.908 68.7494 135.945 69.2008C133.983 69.6522 132.231 70.7621 130.978 72.3482C129.725 73.9343 129.046 75.9022 129.051 77.9284C129.021 78.2388 129.021 78.5515 129.051 78.8619L101.918 86.6801C101.169 85.2244 99.9544 84.065 98.4705 83.3891C96.9865 82.7132 95.3196 82.5601 93.7386 82.9545C92.1575 83.3489 90.7546 84.2678 89.7562 85.563C88.7577 86.8581 88.2219 88.454 88.2353 90.0932C88.2305 91.8753 88.8926 93.5939 90.0902 94.9067L72.1464 142.078C72.1464 142.078 72.1464 142.282 72.1464 142.37C72.0407 142.608 71.9909 142.868 72.0014 143.128C72.5821 149.013 75.3162 154.47 79.6717 158.439C84.0272 162.408 89.6934 164.606 95.5695 164.606C101.446 164.606 107.112 162.408 111.467 158.439C115.823 154.47 118.556 149.013 119.137 143.128C119.137 143.128 119.137 142.953 119.137 142.837C119.193 142.587 119.193 142.328 119.137 142.078L100.99 95.0233C102.232 93.685 102.926 91.9241 102.933 90.0932C102.947 89.9282 102.947 89.7623 102.933 89.5973L130.066 81.8083C130.066 82.0709 130.327 82.3335 130.472 82.5961V165.795C128.769 166.145 127.237 167.077 126.138 168.432C125.04 169.788 124.44 171.485 124.442 173.234V175.772H115.745C113.739 175.772 111.815 176.574 110.396 178.002C108.977 179.43 108.179 181.367 108.179 183.386V187.441C108.179 188.385 108.552 189.29 109.215 189.958C109.878 190.625 110.778 191 111.716 191H164.127C165.065 191 165.965 190.625 166.628 189.958C167.292 189.29 167.664 188.385 167.664 187.441V183.386C167.656 181.369 166.857 179.437 165.439 178.011C164.022 176.584 162.102 175.78 160.098 175.772H151.402V173.234C151.403 171.485 150.804 169.788 149.705 168.432C148.606 167.077 147.075 166.145 145.372 165.795V82.5961C146.255 81.201 146.727 79.5826 146.734 77.9284C146.75 77.6174 146.75 77.3058 146.734 76.9949L173.433 69.3225C173.78 69.9932 174.219 70.6118 174.737 71.1604L156.851 118.215C156.749 118.498 156.749 118.808 156.851 119.09C156.807 119.253 156.807 119.424 156.851 119.586C157.396 125.493 160.114 130.982 164.471 134.978C168.827 138.974 174.51 141.189 180.404 141.189C186.299 141.189 191.981 138.974 196.338 134.978C200.695 130.982 203.412 125.493 203.958 119.586C204.014 119.357 204.014 119.116 203.958 118.886C203.937 118.651 203.868 118.422 203.755 118.215ZM95.6855 161.565C90.8484 161.578 86.1613 159.874 82.4496 156.753C78.7379 153.631 76.2395 149.292 75.3935 144.499H104.063C104.287 144.564 104.524 144.575 104.753 144.532C104.982 144.489 105.199 144.393 105.385 144.252C105.571 144.111 105.722 143.928 105.826 143.717C105.93 143.507 105.984 143.276 105.984 143.041C105.984 142.806 105.93 142.574 105.826 142.364C105.722 142.154 105.571 141.971 105.385 141.83C105.199 141.689 104.982 141.592 104.753 141.549C104.524 141.507 104.287 141.518 104.063 141.582H75.799L92.7867 96.9195C93.6978 97.3317 94.6867 97.5407 95.6855 97.5322C96.6085 97.5241 97.522 97.3462 98.3813 97.0071L115.542 141.553H111.803C111.578 141.489 111.343 141.477 111.113 141.52C110.884 141.563 110.668 141.659 110.481 141.801C110.295 141.942 110.144 142.125 110.04 142.335C109.936 142.545 109.881 142.777 109.881 143.012C109.881 143.246 109.936 143.478 110.04 143.688C110.144 143.898 110.295 144.081 110.481 144.223C110.668 144.364 110.884 144.46 111.113 144.503C111.343 144.546 111.578 144.535 111.803 144.47H115.891C115.059 149.256 112.577 153.594 108.881 156.72C105.186 159.847 100.514 161.562 95.6855 161.565ZM95.6855 94.469C94.9695 94.4642 94.2658 94.2778 93.6402 93.9272C93.0146 93.5765 92.4869 93.073 92.1059 92.4629C91.7248 91.8528 91.5024 91.1558 91.4597 90.4364C91.417 89.7171 91.5555 88.9986 91.8617 88.3472C92.1679 87.6958 92.6324 87.1325 93.212 86.7094C93.7917 86.2864 94.4677 86.0171 95.1781 85.9265C95.8885 85.836 96.6103 85.927 97.2765 86.1913C97.9427 86.4556 98.532 86.8845 98.9899 87.4386L95.1923 88.5471C94.9989 88.6008 94.8184 88.6929 94.6608 88.8178C94.5032 88.9427 94.3715 89.0979 94.2743 89.2745C94.1771 89.4511 94.1162 89.6455 94.0946 89.8462C94.073 90.0469 94.0917 90.2499 94.1491 90.4434C94.234 90.7616 94.423 91.0413 94.6862 91.2373C94.9494 91.4333 95.2713 91.534 95.5985 91.5228C95.7321 91.5529 95.8704 91.5529 96.004 91.5228L99.8017 90.4434C99.7229 91.4966 99.258 92.4828 98.4974 93.2105C97.7367 93.9383 96.7348 94.3556 95.6855 94.3816V94.469ZM132.153 78.016C132.144 76.7241 132.561 75.4658 133.34 74.4384C134.118 73.4109 135.213 72.6725 136.453 72.3388C137.693 72.0051 139.008 72.0949 140.192 72.5944C141.376 73.0939 142.362 73.9748 142.994 75.0988L140.328 75.8863C139.93 75.4457 139.419 75.1251 138.851 74.9602C138.282 74.7954 137.679 74.7928 137.11 74.9528C136.52 75.0822 135.986 75.3935 135.58 75.8432C135.175 76.2929 134.92 76.8587 134.849 77.4617L132.153 78.2202V78.016ZM148.59 173.321V178.923H160.185C161.385 178.923 162.535 179.402 163.383 180.256C164.231 181.109 164.707 182.267 164.707 183.474V187.529C164.7 187.658 164.646 187.78 164.555 187.871C164.464 187.963 164.343 188.017 164.214 188.024H111.803C111.674 188.017 111.553 187.963 111.462 187.871C111.371 187.78 111.317 187.658 111.31 187.529V183.474C111.31 182.267 111.787 181.109 112.635 180.256C113.483 179.402 114.633 178.923 115.833 178.923H127.428V173.321C127.428 172.114 127.904 170.957 128.752 170.104C129.6 169.25 130.751 168.771 131.95 168.771H133.486V85.5715C134.841 86.4288 136.408 86.8838 138.009 86.8838C139.609 86.8838 141.176 86.4288 142.531 85.5715V168.683H144.067C145.267 168.683 146.417 169.163 147.265 170.016C148.113 170.87 148.59 172.027 148.59 173.234V173.321ZM143.864 78.016C143.873 79.3078 143.456 80.5662 142.678 81.5936C141.9 82.6211 140.804 83.3595 139.564 83.6932C138.324 84.0269 137.009 83.9369 135.825 83.4374C134.641 82.9379 133.655 82.0572 133.023 80.9332L135.689 80.1455C136.033 80.5235 136.462 80.8134 136.939 80.9907C137.417 81.1681 137.929 81.2279 138.434 81.165C138.939 81.1022 139.422 80.9186 139.842 80.6296C140.262 80.3406 140.608 79.9546 140.849 79.5038C140.999 79.2092 141.106 78.8949 141.169 78.5703L143.864 77.8118V78.016ZM181.782 65.4136C181.661 65.0302 181.397 64.7091 181.045 64.5185C180.693 64.3279 180.281 64.2827 179.897 64.3924L175.665 65.5886C175.716 64.6726 176.032 63.7916 176.575 63.0545C177.118 62.3175 177.863 61.7566 178.719 61.441C179.575 61.1254 180.504 61.069 181.392 61.2788C182.279 61.4886 183.087 61.9554 183.714 62.6215C184.341 63.2876 184.76 64.124 184.92 65.0272C185.08 65.9304 184.973 66.8608 184.613 67.7039C184.254 68.5469 183.656 69.2655 182.896 69.7709C182.135 70.2763 181.244 70.5465 180.332 70.5479C179.58 70.5523 178.837 70.371 178.17 70.0202C177.503 69.6693 176.932 69.1594 176.505 68.535L180.738 67.3097C180.941 67.2571 181.131 67.1625 181.296 67.0317C181.461 66.9009 181.597 66.7368 181.695 66.5501C181.794 66.3633 181.852 66.158 181.867 65.9472C181.882 65.7364 181.853 65.5248 181.782 65.326V65.4136ZM180.39 138.111C175.552 138.13 170.861 136.428 167.149 133.305C163.436 130.183 160.939 125.84 160.098 121.045H188.855C189.17 120.954 189.447 120.763 189.644 120.5C189.841 120.237 189.948 119.916 189.948 119.586C189.948 119.257 189.841 118.936 189.644 118.673C189.447 118.41 189.17 118.218 188.855 118.128H160.388L177.259 72.8524C178.179 73.234 179.163 73.4321 180.158 73.4359C181.059 73.4235 181.951 73.2558 182.796 72.94L200.189 117.807H196.392C196.077 117.897 195.799 118.089 195.602 118.352C195.405 118.615 195.299 118.936 195.299 119.265C195.299 119.595 195.405 119.916 195.602 120.179C195.799 120.442 196.077 120.633 196.392 120.724H200.479C199.694 125.528 197.247 129.898 193.572 133.063C189.896 136.228 185.228 137.985 180.39 138.023V138.111Z" fill="white"/>
<path d="M164.668 193H111.732C110.632 192.992 109.579 192.55 108.801 191.767C108.023 190.985 107.583 189.926 107.575 188.82V184.728C107.575 182.534 108.442 180.43 109.985 178.879C111.527 177.328 113.62 176.456 115.802 176.456H123.854V174.484C123.858 172.662 124.46 170.893 125.566 169.45C126.672 168.008 128.222 166.973 129.973 166.506V83.1682L129.827 82.9326L103.476 90.5276C103.466 92.3937 102.802 94.1965 101.602 95.6203L119.784 142.721C119.872 143.078 119.872 143.452 119.784 143.81C119.784 143.81 119.784 143.81 119.784 144.075C119.19 150.164 116.364 155.813 111.856 159.922C107.348 164.032 101.48 166.308 95.3952 166.308C89.31 166.308 83.4425 164.032 78.9345 159.922C74.4264 155.813 71.5999 150.164 71.0057 144.075C70.9801 143.713 71.0405 143.349 71.1816 143.015C71.1816 143.015 71.1816 143.015 71.1816 142.75L89.1584 95.4731C88.4878 94.6252 87.9968 93.6483 87.7152 92.6026C87.4337 91.5569 87.3678 90.4645 87.5215 89.3922C87.6752 88.32 88.045 87.2905 88.6087 86.3673C89.1725 85.444 89.9181 84.6464 90.7996 84.0234C91.6811 83.4004 92.6798 82.9653 93.7347 82.7445C94.7895 82.5237 95.8786 82.522 96.9342 82.7397C97.9897 82.9573 98.9894 83.3897 99.8728 84.0101C100.756 84.6305 101.504 85.4258 102.071 86.3473L128.422 78.7525C128.407 78.5762 128.407 78.399 128.422 78.2227C128.429 75.672 129.44 73.2281 131.234 71.4245C133.028 69.621 135.458 68.6042 137.995 68.5965C139.706 68.5936 141.386 69.0575 142.856 69.9388C144.325 70.8201 145.529 72.0858 146.34 73.6009L172.34 66.1236V65.947C172.272 64.7976 172.438 63.6464 172.829 62.5641C173.22 61.4818 173.827 60.4913 174.613 59.6534C175.398 58.8155 176.346 58.148 177.398 57.6917C178.449 57.2354 179.583 57 180.728 57C181.873 57 183.006 57.2354 184.058 57.6917C185.109 58.148 186.057 58.8155 186.843 59.6534C187.628 60.4913 188.235 61.4818 188.626 62.5641C189.017 63.6464 189.184 64.7976 189.116 65.947C189.154 68.1349 188.333 70.2498 186.833 71.8346L204.956 118.758C205.015 119.03 205.015 119.311 204.956 119.583C205.011 119.864 205.011 120.154 204.956 120.436C204.398 126.556 201.585 132.244 197.07 136.386C192.555 140.528 186.664 142.825 180.552 142.825C174.44 142.825 168.549 140.528 164.034 136.386C159.52 132.244 156.707 126.556 156.149 120.436C156.118 120.241 156.118 120.042 156.149 119.847C156.059 119.5 156.059 119.135 156.149 118.788L174.067 71.6874C173.734 71.2881 173.431 70.8651 173.159 70.4216L147.16 77.8987C147.175 78.0652 147.175 78.2328 147.16 78.3993C147.15 80.1101 146.685 81.787 145.813 83.2564V166.594C147.564 167.061 149.113 168.096 150.22 169.539C151.326 170.981 151.928 172.75 151.932 174.572V176.544H159.984C162.166 176.544 164.258 177.416 165.801 178.967C167.344 180.518 168.211 182.623 168.211 184.817V188.908C168.195 189.901 167.831 190.856 167.183 191.605C166.535 192.353 165.644 192.847 164.668 193ZM115.802 177.634C113.936 177.641 112.149 178.393 110.832 179.722C109.515 181.052 108.775 182.852 108.775 184.728V188.82C108.775 189.601 109.084 190.349 109.633 190.901C110.182 191.453 110.926 191.764 111.703 191.764H164.639C165.416 191.764 166.16 191.453 166.709 190.901C167.258 190.349 167.567 189.601 167.567 188.82V184.728C167.567 182.852 166.827 181.052 165.51 179.722C164.194 178.393 162.407 177.641 160.54 177.634H151.493V174.484C151.487 172.858 150.924 171.283 149.901 170.024C148.878 168.764 147.455 167.897 145.872 167.566H145.373V83.6096H144.905L145.461 82.6971C146.275 81.3795 146.711 79.8616 146.721 78.3109C146.735 78.1149 146.735 77.9181 146.721 77.7221V76.9274L174.652 68.8908L174.887 69.3324C175.187 69.9752 175.592 70.5625 176.087 71.0693L176.351 71.3342V71.6874L158.286 119.17C158.228 119.342 158.228 119.528 158.286 119.7V119.847C158.274 119.955 158.274 120.064 158.286 120.171C159.059 125.807 161.834 130.97 166.099 134.708C170.365 138.445 175.832 140.504 181.489 140.504C187.147 140.504 192.613 138.445 196.879 134.708C201.144 130.97 203.919 125.807 204.692 120.171C204.732 120.027 204.732 119.874 204.692 119.73C204.723 119.594 204.723 119.453 204.692 119.318L186.305 71.6579L186.569 71.3636C187.273 70.699 187.833 69.8962 188.216 69.0051C188.599 68.1139 188.795 67.1533 188.794 66.1826C188.794 64.262 188.035 62.42 186.685 61.0619C185.334 59.7038 183.502 58.9408 181.592 58.9408C179.681 58.9408 177.849 59.7038 176.499 61.0619C175.148 62.42 174.389 64.262 174.389 66.1826C174.389 66.1826 174.389 66.3886 174.389 66.4769C174.389 66.5652 174.389 66.6536 174.389 66.7419V67.2423L146.486 75.2494L146.281 74.8078C145.452 73.1007 144.074 71.7257 142.369 70.9062C140.665 70.0867 138.734 69.8708 136.892 70.2937C135.05 70.7166 133.405 71.7534 132.223 73.2356C131.041 74.7179 130.393 76.5584 130.383 78.458C130.369 78.654 130.369 78.8508 130.383 79.0468V79.8417L101.719 87.9076L101.514 87.466C101.073 86.6131 100.456 85.8646 99.7048 85.27C98.9535 84.6754 98.0846 84.2485 97.1565 84.0177C96.2283 83.7868 95.2619 83.7574 94.3215 83.9312C93.3811 84.1051 92.4889 84.4784 91.7032 85.0262C90.9174 85.5739 90.2563 86.2836 89.7646 87.108C89.2728 87.9325 88.9616 88.8527 88.8511 89.8076C88.7405 90.7625 88.8331 91.7302 89.1234 92.6461C89.4137 93.5621 89.8948 94.4053 90.5344 95.1199L90.7689 95.3847V95.7379L72.6162 143.486C72.5628 143.689 72.5628 143.902 72.6162 144.104C73.3891 149.739 76.1646 154.903 80.4298 158.641C84.6951 162.378 90.1619 164.437 95.8198 164.437C101.478 164.437 106.944 162.378 111.209 158.641C115.474 154.903 118.25 149.739 119.023 144.104V143.839C119.059 143.635 119.059 143.425 119.023 143.221L100.578 95.4142L100.811 95.1493C101.965 93.9001 102.613 92.262 102.627 90.5571C102.627 90.5571 102.627 90.557 102.627 90.351C102.627 90.1449 102.627 90.1743 102.627 90.086V89.615L130.969 81.4902L131.174 81.9317C131.293 82.1865 131.429 82.4325 131.583 82.6676L132.139 83.5803H131.671V167.389H131.174C129.593 167.725 128.173 168.594 127.15 169.852C126.128 171.111 125.564 172.682 125.552 174.307V177.457L115.802 177.634ZM164.668 189.939H111.732C111.442 189.931 111.167 189.81 110.965 189.601C110.762 189.392 110.649 189.112 110.649 188.82V184.728C110.645 184.045 110.776 183.368 111.033 182.736C111.29 182.104 111.669 181.53 112.148 181.046C112.627 180.561 113.197 180.177 113.824 179.915C114.451 179.653 115.123 179.518 115.802 179.518H126.928V174.484C126.928 173.11 127.471 171.792 128.437 170.82C129.404 169.849 130.715 169.303 132.082 169.303H133.018V84.9638L133.926 85.5231C135.212 86.3171 136.691 86.7374 138.2 86.7374C139.709 86.7374 141.189 86.3171 142.475 85.5231L143.383 84.9638V169.303H144.32C145.687 169.303 146.997 169.849 147.963 170.82C148.93 171.792 149.473 173.11 149.473 174.484V179.518H160.599C161.278 179.518 161.95 179.653 162.578 179.915C163.205 180.177 163.774 180.561 164.253 181.046C164.732 181.53 165.111 182.104 165.368 182.736C165.625 183.368 165.756 184.045 165.752 184.728V188.82C165.752 189.112 165.639 189.392 165.436 189.601C165.234 189.81 164.958 189.931 164.668 189.939ZM115.802 180.725C115.279 180.725 114.762 180.828 114.278 181.029C113.795 181.231 113.356 181.525 112.987 181.897C112.617 182.269 112.323 182.71 112.123 183.196C111.923 183.682 111.82 184.202 111.82 184.728V188.82H164.668V184.817C164.668 183.76 164.253 182.746 163.513 181.996C162.772 181.246 161.767 180.821 160.716 180.813H148.389V174.572C148.389 173.518 147.973 172.507 147.232 171.762C146.491 171.017 145.485 170.598 144.437 170.598H142.3V87.0245C141.056 87.6207 139.695 87.9301 138.318 87.9301C136.94 87.9301 135.579 87.6207 134.335 87.0245V170.51H132.198C131.15 170.51 130.144 170.929 129.403 171.674C128.662 172.419 128.246 173.43 128.246 174.484V180.725H115.802ZM95.4538 163.327C90.435 163.334 85.5728 161.57 81.7151 158.342C77.8574 155.114 75.2482 150.628 74.3432 145.664V144.958H104.003C104.251 144.958 104.49 144.859 104.666 144.682C104.841 144.505 104.94 144.266 104.94 144.016C104.94 143.766 104.841 143.526 104.666 143.35C104.49 143.173 104.251 143.074 104.003 143.074H74.7242L92.2915 96.6212L92.8769 96.8566C93.6967 97.2055 94.5779 97.3854 95.4681 97.3854C96.3583 97.3854 97.2395 97.2055 98.0593 96.8566H98.2351H98.9671V97.1805L116.534 142.927H111.879C111.63 142.927 111.392 143.026 111.216 143.203C111.04 143.379 110.942 143.619 110.942 143.869C110.942 144.118 111.04 144.358 111.216 144.535C111.392 144.711 111.63 144.811 111.879 144.811H116.71V145.517C115.837 150.535 113.221 155.079 109.329 158.34C105.437 161.601 100.52 163.368 95.4538 163.327ZM75.6613 146.106C76.6493 150.645 79.1502 154.707 82.7501 157.62C86.3501 160.533 90.8328 162.122 95.4538 162.122C100.075 162.122 104.557 160.533 108.157 157.62C111.757 154.707 114.258 150.645 115.246 146.106H111.849C111.283 146.106 110.739 145.88 110.338 145.477C109.938 145.074 109.712 144.527 109.712 143.957C109.712 143.387 109.938 142.84 110.338 142.437C110.739 142.034 111.283 141.808 111.849 141.808H114.777L97.9714 98.1813C96.3287 98.7399 94.5489 98.7399 92.9062 98.1813L76.2761 141.837H103.915C104.482 141.837 105.025 142.064 105.426 142.467C105.827 142.87 106.052 143.416 106.052 143.986C106.052 144.556 105.827 145.103 105.426 145.506C105.025 145.909 104.482 146.135 103.915 146.135L75.6613 146.106ZM181.065 139.571C176.043 139.589 171.175 137.829 167.315 134.599C163.455 131.37 160.849 126.877 159.954 121.908V121.202H189.555C189.804 121.202 190.042 121.102 190.218 120.926C190.394 120.749 190.492 120.509 190.492 120.26C190.492 120.01 190.394 119.77 190.218 119.594C190.042 119.417 189.804 119.318 189.555 119.318H159.925L177.727 72.5412L178.312 72.7766C179.984 73.4543 181.852 73.4543 183.524 72.7766H184.256V73.1888L202.028 119.259H197.343C197.095 119.259 196.857 119.358 196.681 119.535C196.506 119.711 196.407 119.951 196.407 120.201C196.407 120.45 196.506 120.69 196.681 120.867C196.857 121.044 197.095 121.143 197.343 121.143H202.204V121.849C201.319 126.844 198.706 131.362 194.826 134.605C190.947 137.849 186.052 139.608 181.006 139.571H181.065ZM161.272 122.35C162.26 126.888 164.761 130.951 168.361 133.864C171.961 136.777 176.444 138.365 181.065 138.365C185.686 138.365 190.168 136.777 193.768 133.864C197.368 130.951 199.869 126.888 200.857 122.35H197.431C196.864 122.35 196.321 122.123 195.92 121.72C195.519 121.317 195.294 120.771 195.294 120.201C195.294 119.631 195.519 119.084 195.92 118.681C196.321 118.278 196.864 118.052 197.431 118.052H200.359L183.377 74.0718C181.742 74.6174 179.976 74.6174 178.341 74.0718L161.565 118.228H189.555C190.122 118.228 190.666 118.455 191.066 118.858C191.467 119.261 191.693 119.808 191.693 120.377C191.693 120.947 191.467 121.494 191.066 121.897C190.666 122.3 190.122 122.526 189.555 122.526L161.272 122.35ZM95.5117 95.5026C94.677 95.5063 93.8555 95.2951 93.1249 94.8892C92.3944 94.4832 91.7796 93.8961 91.3386 93.1835C90.8977 92.471 90.6453 91.6568 90.6059 90.8185C90.5665 89.9802 90.7413 89.1457 91.1134 88.3945C91.4856 87.6433 92.0425 87.0005 92.7318 86.5272C93.421 86.0538 94.2193 85.7656 95.0506 85.6902C95.882 85.6149 96.7187 85.7547 97.481 86.0965C98.2433 86.4382 98.9062 86.9705 99.406 87.6426L99.9328 88.3492L95.2486 89.6738C95.0151 89.7547 94.8194 89.9201 94.7004 90.1377C94.5813 90.3553 94.5475 90.6097 94.6046 90.8514C94.6904 91.0824 94.8558 91.2748 95.0706 91.3936C95.2855 91.5125 95.5355 91.5497 95.7755 91.4989L100.431 90.1449V91.028C100.327 92.2719 99.7525 93.4286 98.827 94.2607C97.9014 95.0927 96.6949 95.5371 95.4538 95.5026H95.5117ZM95.5117 86.8773C94.5333 86.8773 93.5952 87.2681 92.9033 87.9637C92.2115 88.6593 91.8232 89.6026 91.8232 90.5863C91.8232 91.5701 92.2115 92.5136 92.9033 93.2092C93.5952 93.9048 94.5333 94.2955 95.5117 94.2955C96.2737 94.3039 97.0189 94.0691 97.6397 93.6248C98.2605 93.1805 98.7255 92.5495 98.9671 91.8229L96.0392 92.647C95.4964 92.7789 94.924 92.7007 94.4359 92.428C93.9478 92.1553 93.5791 91.7082 93.4037 91.1751C93.2654 90.6291 93.3403 90.0506 93.6124 89.5581C93.8846 89.0655 94.3335 88.6962 94.8676 88.5259L97.7955 87.7015C97.1317 87.1652 96.3054 86.8743 95.4538 86.8773H95.5117ZM138.259 84.8461C137.137 84.8494 136.033 84.5577 135.057 84.0001C134.082 83.4424 133.268 82.6381 132.696 81.6668L132.286 80.9898L136.092 79.9006L136.356 80.1655C136.683 80.524 137.101 80.7851 137.566 80.9201C138.031 81.0551 138.524 81.0588 138.991 80.9309C139.336 80.8354 139.659 80.6716 139.94 80.4492C140.222 80.2268 140.457 79.9502 140.631 79.6356C140.743 79.3924 140.822 79.1349 140.865 78.8702V78.517L144.7 77.4278V78.3109C144.72 79.18 144.566 80.0444 144.248 80.8527C143.929 81.6611 143.453 82.3971 142.847 83.0172C142.241 83.6374 141.518 84.1291 140.72 84.4634C139.922 84.7978 139.065 84.968 138.2 84.9638L138.259 84.8461ZM134.19 81.6963C134.679 82.3072 135.298 82.7992 136.003 83.1357C136.708 83.4721 137.479 83.6441 138.259 83.6391C139.546 83.6434 140.79 83.1768 141.76 82.3264C142.73 81.476 143.359 80.2997 143.529 79.0174L141.948 79.4885C141.884 79.7459 141.785 79.9935 141.655 80.2244C141.409 80.6761 141.075 81.0731 140.672 81.3917C140.27 81.7104 139.808 81.9443 139.313 82.079C138.696 82.2469 138.048 82.2594 137.425 82.1156C136.802 81.9719 136.224 81.6762 135.741 81.2547L134.19 81.6963ZM131.818 79.194V78.3109C131.823 76.8855 132.292 75.5011 133.152 74.3683C134.013 73.2356 135.218 72.4166 136.584 72.0365C137.95 71.6564 139.403 71.7358 140.72 72.2627C142.037 72.7896 143.147 73.735 143.88 74.9549L144.291 75.6321L140.484 76.7213L140.22 76.4563C139.895 76.095 139.477 75.832 139.012 75.6968C138.546 75.5616 138.052 75.5595 137.586 75.6909C137.24 75.7864 136.918 75.9502 136.636 76.1726C136.355 76.395 136.12 76.6715 135.946 76.9861C135.829 77.2275 135.75 77.4858 135.712 77.7516V78.1048L131.818 79.194ZM138.259 72.9532C136.969 72.9561 135.725 73.4291 134.756 74.2844C133.787 75.1397 133.159 76.3192 132.989 77.6044L134.57 77.1335C134.636 76.8809 134.725 76.6346 134.834 76.3975C135.119 75.9064 135.508 75.4838 135.972 75.159C136.437 74.8343 136.966 74.6153 137.523 74.5173C138.081 74.4192 138.653 74.4443 139.2 74.5911C139.746 74.7379 140.255 75.0027 140.689 75.3671L142.241 74.9257C141.755 74.3164 141.14 73.8233 140.441 73.4822C139.742 73.141 138.977 72.9603 138.2 72.9532H138.259ZM181.006 71.3931C180.149 71.3914 179.305 71.1818 178.545 70.782C177.786 70.3823 177.134 69.8042 176.644 69.0969L176.145 68.3904L181.269 66.948C181.51 66.8777 181.713 66.7142 181.834 66.4934C181.955 66.2726 181.983 66.0124 181.913 65.7704C181.843 65.5284 181.681 65.3243 181.462 65.2028C181.242 65.0814 180.983 65.0526 180.742 65.1229L175.648 66.5947V65.7409C175.705 64.6945 176.067 63.6881 176.687 62.846C177.308 62.004 178.16 61.3633 179.139 61.0035C180.118 60.6437 181.181 60.5805 182.195 60.8217C183.209 61.0628 184.131 61.5978 184.846 62.3604C185.561 63.123 186.038 64.0796 186.218 65.1119C186.398 66.1442 186.272 67.2069 185.857 68.1683C185.442 69.1297 184.756 69.9476 183.883 70.5208C183.011 71.094 181.99 71.3973 180.948 71.3931H181.006ZM178.078 69.0674C178.738 69.6856 179.582 70.0695 180.479 70.1602C181.377 70.2509 182.279 70.0435 183.048 69.5698C183.818 69.096 184.412 68.3821 184.739 67.5369C185.066 66.6918 185.109 65.7621 184.861 64.89C184.613 64.0179 184.089 63.2515 183.367 62.7079C182.644 62.1642 181.765 61.8734 180.863 61.8797C179.961 61.8861 179.086 62.1893 178.371 62.7431C177.657 63.2969 177.142 64.0707 176.907 64.9462L180.304 63.9747C180.843 63.8251 181.419 63.8883 181.913 64.1514C182.405 64.4378 182.771 64.9004 182.938 65.4466C183.077 65.9927 183.002 66.5713 182.73 67.0639C182.457 67.5564 182.009 67.9257 181.474 68.0961L178.078 69.0674Z" fill="white"/>
</svg>
