<svg width="84" height="73" viewBox="0 0 84 73" fill="none" xmlns="http://www.w3.org/2000/svg">
<g clip-path="url(#clip0_259:1104)">
<path d="M35.25 6.5C34.56 6.5 34 7.06004 34 7.75004V27.7501C34 28.4401 34.56 29.0001 35.25 29.0001C35.94 29.0001 36.5001 28.4401 36.5001 27.7501V7.75004C36.5 7.06004 35.94 6.5 35.25 6.5Z" fill="white"/>
<path d="M41.1323 21.8676C40.6448 21.3801 39.8522 21.3801 39.3647 21.8676L35.2497 25.9826L31.1322 21.8676C30.6447 21.3801 29.8521 21.3801 29.3646 21.8676C28.8771 22.3551 28.8771 23.1476 29.3646 23.6351L34.3647 28.6352C34.6097 28.8776 34.9296 29.0002 35.2497 29.0002C35.5697 29.0002 35.8896 28.8777 36.1322 28.6352L41.1323 23.6351C41.6198 23.1476 41.6198 22.3551 41.1323 21.8676Z" fill="white"/>
<path d="M74.0005 34C72.973 34 72.0154 34.3126 71.2204 34.8451C70.5355 32.9001 68.6779 31.5001 66.5005 31.5001C65.5905 31.5001 64.7355 31.7451 64.0005 32.1726V19C64.0005 16.2425 61.758 14 59.0005 14C56.823 14 54.9655 15.4 54.2805 17.345C53.4855 16.8125 52.528 16.5 51.5005 16.5C48.7429 16.5 46.5004 18.7425 46.5004 21.5V42.75L42.1555 39.4925C39.5805 37.56 35.9155 37.8175 33.633 40.0975C32.1705 41.56 32.1705 43.9375 33.633 45.4L51.4355 63.205C53.5605 65.33 56.388 66.5 59.393 66.5H65.2505C72.8306 66.5 79.0005 60.3325 79.0005 52.75V39C79.0005 36.2425 76.758 34 74.0005 34ZM76.5005 52.75C76.5005 58.9525 71.453 64 65.2505 64H59.393C57.0555 64 54.858 63.0901 53.2031 61.4375L35.4005 43.6325C34.913 43.145 34.913 42.3525 35.4005 41.865C36.1755 41.0925 37.2105 40.695 38.2505 40.695C39.0956 40.695 39.9455 40.9575 40.658 41.4924L47.0006 46.2499C47.3806 46.5349 47.8906 46.5799 48.3106 46.3674C48.7331 46.155 49.0006 45.7224 49.0006 45.2499V21.5C49.0006 20.1225 50.1206 19 51.5006 19C52.8806 19 54.0005 20.1226 54.0005 21.5V40.25C54.0005 40.94 54.5606 41.5 55.2506 41.5C55.9406 41.5 56.5006 40.94 56.5006 40.25V19C56.5006 17.6225 57.6206 16.5001 59.0006 16.5001C60.3806 16.5001 61.5005 17.6226 61.5005 19V40.25C61.5005 40.94 62.0606 41.5 62.7506 41.5C63.4406 41.5 64.0006 40.94 64.0006 40.25V36.5C64.0006 35.1225 65.1206 34 66.5006 34C67.8806 34 69.0005 35.1226 69.0005 36.5V40.25C69.0005 40.94 69.5606 41.5 70.2506 41.5C70.9406 41.5 71.5006 40.94 71.5006 40.25V39C71.5006 37.6224 72.6206 36.5 74.0006 36.5C75.3806 36.5 76.5005 37.6225 76.5005 39V52.75Z" fill="white"/>
</g>
<defs>
<clipPath id="clip0_259:1104">
<rect width="60" height="60" transform="translate(24 6.5)"/>
</clipPath>
</defs>
</svg>
