<svg width="200" height="251" viewBox="0 0 200 251" fill="none" xmlns="http://www.w3.org/2000/svg">
<path d="M101.548 58.5014C101.224 58.2613 100.861 58.1029 100.483 58.0361C100.104 57.9693 99.7181 57.9954 99.3486 58.113C98.5713 58.339 97.8955 58.9033 97.4574 59.6923C97.2439 60.0754 97.1009 60.5069 97.0374 60.959C96.9739 61.4111 96.9914 61.8738 97.0887 62.3174C97.186 62.7611 97.361 63.1759 97.6025 63.5352C97.844 63.8946 98.1466 64.1906 98.491 64.4042C98.9397 64.7847 99.4774 64.9927 100.03 64.9996C100.534 65.0083 101.031 64.8683 101.477 64.5924C101.922 64.3165 102.302 63.9136 102.581 63.4204C102.967 62.5818 103.091 61.6112 102.933 60.6761C102.733 59.7646 102.235 58.983 101.548 58.5014Z" fill="#4EC3C4"/>
<path d="M154.022 87.8386L134.361 74.203C127.217 69.2916 119.325 65.6049 111 63.2905C111.008 61.2635 110.498 59.269 109.519 57.5016C108.54 55.7342 107.125 54.2545 105.413 53.2069C104.793 52.8277 104.142 52.5041 103.466 52.24L110.144 41.6827V41.071C108.781 18.8909 103.953 6.75501 101.987 2.55184C101.641 1.79814 101.092 1.15905 100.403 0.708548C99.7142 0.258047 98.9134 0.0145583 98.0935 0.00626434C96.9082 -0.0558295 95.7446 0.345552 94.8427 1.12762C93.9408 1.90969 93.3693 3.0128 93.2462 4.20943L91.2995 27.8892C90.556 36.3076 91.214 44.7927 93.2462 52.9898C91.5056 53.9073 90.0299 55.2672 88.9635 56.9365C87.431 59.3647 86.835 62.2802 87.2893 65.1257L74.7331 64.7311L74.2853 65.0468C55.8306 77.1827 47.5571 87.365 44.8317 91.2722C44.3454 91.9637 44.0601 92.7797 44.0085 93.6274C43.9569 94.4751 44.1409 95.3204 44.5397 96.0673C44.9429 96.7999 45.5338 97.4084 46.2499 97.8287C46.9661 98.249 47.7809 98.4654 48.6084 98.455C49.2799 98.448 49.9427 98.3002 50.5551 98.0209L72.3192 87.9767C79.9929 84.314 87.0435 79.4383 93.2073 73.5321H93.4214L90.8712 161.759H84.4277C82.5662 161.737 80.7426 162.292 79.2012 163.35C77.6599 164.408 76.4744 165.919 75.8038 167.679C74.8888 170.106 73.9933 172.553 73.0784 175H125.133C124.238 172.553 123.323 170.106 122.408 167.679C121.714 165.939 120.525 164.448 118.993 163.394C117.461 162.34 115.655 161.771 113.803 161.759H107.36L104.81 73.6899C105.497 73.3101 106.148 72.8675 106.756 72.3678L112.752 83.4776L113.219 83.7736C133.173 93.6401 146.177 95.6135 150.869 96.0673H151.219C151.996 96.0308 152.757 95.8375 153.459 95.4986C154.161 95.1598 154.79 94.6822 155.307 94.094C155.93 93.0845 156.144 91.8703 155.904 90.7047C155.665 89.5391 154.991 88.5123 154.022 87.8386ZM94.5894 28.0471L96.5361 4.36729C96.5703 4.07086 96.7135 3.79842 96.9373 3.6045C97.1611 3.41058 97.4489 3.30948 97.7431 3.32144C97.9627 3.29352 98.1853 3.33791 98.3781 3.44806C98.5709 3.55821 98.7236 3.72828 98.8138 3.93316C100.76 7.97846 105.316 19.5224 106.601 40.6566L99.8066 51.4506C98.6712 51.3795 97.5317 51.4658 96.4193 51.7072C94.4606 43.981 93.8415 35.9685 94.5894 28.0274V28.0471ZM70.8397 84.8392L49.0756 94.8833C48.9482 94.9617 48.806 95.0122 48.6583 95.0317C48.5105 95.0511 48.3604 95.0391 48.2174 94.9964C48.0745 94.9537 47.942 94.8812 47.8283 94.7836C47.7146 94.6859 47.6222 94.5653 47.5571 94.4295C47.4159 94.2616 47.3383 94.0482 47.3383 93.8276C47.3383 93.607 47.4159 93.3936 47.5571 93.2258C50.1268 89.6146 57.7773 79.9453 75.687 68.1054L88.5352 68.5198C89.0405 69.5543 89.6968 70.5056 90.4819 71.3417C84.7127 76.9017 78.0756 81.4558 70.8397 84.8194V84.8392ZM113.94 165.074C115.093 165.081 116.218 165.443 117.164 166.112C118.109 166.782 118.832 167.728 119.235 168.824L120.286 171.685H78.1203L79.191 168.745C79.5745 167.636 80.2921 166.677 81.2423 166.005C82.1924 165.332 83.3271 164.979 84.4861 164.995L113.94 165.074ZM103.875 161.779H94.3753L96.906 74.9528C97.6373 75.0989 98.38 75.1782 99.1253 75.1896C99.8765 75.1877 100.626 75.1151 101.364 74.9726L103.875 161.779ZM94.7646 70.2761C93.8059 69.725 92.9735 68.9739 92.3225 68.0724C91.6714 67.171 91.2166 66.1397 90.988 65.0468C90.7112 63.9821 90.6618 62.8699 90.8431 61.7843C91.0244 60.6987 91.4322 59.6649 92.0393 58.7519C92.6117 57.7842 93.3792 56.9501 94.2917 56.3039C95.2042 55.6578 96.241 55.2144 97.3343 55.0026C97.9757 54.879 98.6284 54.826 99.281 54.8447C100.843 54.9089 102.381 55.2634 103.817 55.8906C104.776 56.4567 105.611 57.2148 106.272 58.1187C106.932 59.0225 107.404 60.0532 107.659 61.148C107.914 62.2428 107.947 63.3788 107.755 64.4867C107.563 65.5946 107.15 66.6513 106.542 67.5924C105.323 69.521 103.402 70.8844 101.197 71.3868C98.9924 71.8893 96.6811 71.4901 94.7646 70.2761ZM152.387 92.1602C152.294 92.3631 152.141 92.5314 151.949 92.6412C151.757 92.751 151.536 92.7967 151.316 92.7719C146.781 92.318 134.38 90.5223 115.322 81.0701L109.151 69.7038L109.287 69.5262C109.833 68.6383 110.265 67.6834 110.572 66.6846C118.361 68.8314 125.743 72.2793 132.414 76.8867L152.076 90.5223C152.296 90.7241 152.444 90.9944 152.497 91.2907C152.55 91.5871 152.504 91.8929 152.368 92.1602H152.387Z" fill="#4EC3C4"/>
<path d="M47.7232 212.94V219.24H56.1832V223.236H47.7232V229.896H57.2632V234H42.6832V208.836H57.2632V212.94H47.7232ZM53.7352 203.652L45.4552 207.432V203.832L53.7352 199.548V203.652ZM73.5074 234.252C71.1554 234.252 68.9954 233.7 67.0274 232.596C65.0594 231.492 63.4994 229.968 62.3474 228.024C61.1954 226.056 60.6194 223.836 60.6194 221.364C60.6194 218.916 61.1954 216.72 62.3474 214.776C63.4994 212.808 65.0594 211.272 67.0274 210.168C68.9954 209.064 71.1554 208.512 73.5074 208.512C75.8834 208.512 78.0434 209.064 79.9874 210.168C81.9554 211.272 83.5034 212.808 84.6314 214.776C85.7834 216.72 86.3594 218.916 86.3594 221.364C86.3594 223.836 85.7834 226.056 84.6314 228.024C83.5034 229.968 81.9554 231.492 79.9874 232.596C78.0194 233.7 75.8594 234.252 73.5074 234.252ZM73.5074 229.752C75.0194 229.752 76.3514 229.416 77.5034 228.744C78.6554 228.048 79.5554 227.064 80.2034 225.792C80.8514 224.52 81.1754 223.044 81.1754 221.364C81.1754 219.684 80.8514 218.22 80.2034 216.972C79.5554 215.7 78.6554 214.728 77.5034 214.056C76.3514 213.384 75.0194 213.048 73.5074 213.048C71.9954 213.048 70.6514 213.384 69.4754 214.056C68.3234 214.728 67.4234 215.7 66.7754 216.972C66.1274 218.22 65.8034 219.684 65.8034 221.364C65.8034 223.044 66.1274 224.52 66.7754 225.792C67.4234 227.064 68.3234 228.048 69.4754 228.744C70.6514 229.416 71.9954 229.752 73.5074 229.752ZM95.149 230.004H103.429V234H90.109V208.872H95.149V230.004ZM111.672 208.872V234H106.632V208.872H111.672ZM121.692 212.94V219.24H130.152V223.236H121.692V229.896H131.232V234H116.652V208.836H131.232V212.94H121.692ZM157.304 234H152.264L140.852 216.756V234H135.812V208.836H140.852L152.264 226.116V208.836H157.304V234Z" fill="#4EC3C4"/>
</svg>
