<svg width="126" height="188" viewBox="0 0 126 188" fill="none" xmlns="http://www.w3.org/2000/svg">
<path d="M82.6374 32.328C75.1011 21.7094 67.968 11.7032 64.638 1.55692C64.4931 1.10464 64.2078 0.71006 63.8235 0.430198C63.4391 0.150336 62.9756 -0.000318864 62.4998 5.06724e-07C62.0224 0.00134031 61.5574 0.152357 61.1706 0.431723C60.7838 0.711088 60.4947 1.10468 60.3441 1.55692C57.0142 11.7381 49.8285 21.7444 42.3448 32.3455C30.8652 48.4745 19 65.1458 19 84.5811C19 90.283 20.1251 95.929 22.3112 101.197C24.4973 106.465 27.7015 111.251 31.7408 115.283C35.7801 119.315 40.5755 122.513 45.8532 124.695C51.1308 126.877 56.7874 128 62.4998 128C68.2123 128 73.8689 126.877 79.1465 124.695C84.4242 122.513 89.2196 119.315 93.2589 115.283C97.2982 111.251 100.502 106.465 102.688 101.197C104.875 95.929 106 90.283 106 84.5811C106.07 65.1633 94.117 48.4745 82.6374 32.328ZM62.4998 123.574C43.7469 123.574 23.5217 108.687 23.5217 84.6511C23.5217 66.6678 34.9488 50.5912 46.0253 35.0395C51.8002 27.3955 56.9575 19.3055 61.4483 10.846L62.4998 8.65929L63.5514 10.846C68.0406 19.2915 73.1918 27.3696 78.9569 35.0045C90.0334 50.5737 101.478 66.6853 101.478 84.6511C101.469 94.9683 97.3596 104.86 90.0523 112.157C82.745 119.454 72.8362 123.56 62.4998 123.574Z" fill="#297180"/>
<path d="M85.8342 65.8426L65.4212 69.2573L70.6553 39.1724C70.7104 38.7431 70.6198 38.3077 70.3982 37.9363C70.1765 37.565 69.8367 37.2794 69.4336 37.1256C69.0304 36.9719 68.5874 36.9589 68.176 37.0888C67.7646 37.2187 67.4087 37.4838 67.1659 37.8416L38.2735 86.0334C38.0845 86.3496 37.9898 86.7137 38.0009 87.0823C38.0119 87.4509 38.1281 87.8086 38.3357 88.1129C38.5434 88.4172 38.8337 88.6553 39.1721 88.7988C39.5106 88.9424 39.883 88.9854 40.2451 88.9228L60.5709 85.5256L55.3368 111.705C55.2437 112.143 55.3084 112.6 55.5192 112.994C55.7301 113.388 56.0734 113.695 56.4883 113.859C56.7196 113.958 56.9696 114.006 57.221 113.999C57.54 113.999 57.8538 113.918 58.1341 113.766C58.4143 113.613 58.6522 113.392 58.8262 113.124L87.6836 68.802C87.889 68.489 87.999 68.1225 88 67.7477C88.001 67.3728 87.893 67.0058 87.6893 66.6917C87.4856 66.3775 87.1949 66.1298 86.853 65.979C86.5111 65.8282 86.1328 65.7808 85.7644 65.8426H85.8342ZM43.7693 84.4398L65.1246 48.7688L61.1641 71.2711C61.109 71.5761 61.1281 71.8899 61.2197 72.1859C61.3113 72.4819 61.4726 72.7513 61.6901 72.9713C61.9076 73.1913 62.1748 73.3554 62.4689 73.4496C62.7631 73.5439 63.0756 73.5655 63.3798 73.5126L82.1355 70.3781L61.199 102.634L65.0199 83.5467C65.0846 83.2356 65.0724 82.9132 64.9841 82.6079C64.8959 82.3026 64.7345 82.0237 64.5139 81.7956C64.3358 81.6085 64.1219 81.4594 63.8851 81.3571C63.6483 81.2548 63.3934 81.2014 63.1356 81.2002H62.8216L43.7693 84.4398Z" fill="#297180"/>
<path d="M23.328 161.872V187H18.288V176.308H7.524V187H2.484V161.872H7.524V172.204H18.288V161.872H23.328ZM48.2687 161.872L39.7727 178.252V187H34.7327V178.252L26.2007 161.872H31.8887L37.2887 173.356L42.6527 161.872H48.2687ZM59.9594 161.872C62.5994 161.872 64.9154 162.388 66.9074 163.42C68.9234 164.452 70.4714 165.928 71.5514 167.848C72.6554 169.744 73.2074 171.952 73.2074 174.472C73.2074 176.992 72.6554 179.2 71.5514 181.096C70.4714 182.968 68.9234 184.42 66.9074 185.452C64.9154 186.484 62.5994 187 59.9594 187H51.1754V161.872H59.9594ZM59.7794 182.716C62.4194 182.716 64.4594 181.996 65.8994 180.556C67.3394 179.116 68.0594 177.088 68.0594 174.472C68.0594 171.856 67.3394 169.816 65.8994 168.352C64.4594 166.864 62.4194 166.12 59.7794 166.12H56.2154V182.716H59.7794ZM89.9401 187L84.3961 177.208H82.0201V187H76.9801V161.872H86.4121C88.3561 161.872 90.0121 162.22 91.3801 162.916C92.7481 163.588 93.7681 164.512 94.4401 165.688C95.1361 166.84 95.4841 168.136 95.4841 169.576C95.4841 171.232 95.0041 172.732 94.0441 174.076C93.0841 175.396 91.6561 176.308 89.7601 176.812L95.7721 187H89.9401ZM82.0201 173.428H86.2321C87.6001 173.428 88.6201 173.104 89.2921 172.456C89.9641 171.784 90.3001 170.86 90.3001 169.684C90.3001 168.532 89.9641 167.644 89.2921 167.02C88.6201 166.372 87.6001 166.048 86.2321 166.048H82.0201V173.428ZM111.707 187.252C109.355 187.252 107.195 186.7 105.227 185.596C103.259 184.492 101.699 182.968 100.547 181.024C99.3946 179.056 98.8186 176.836 98.8186 174.364C98.8186 171.916 99.3946 169.72 100.547 167.776C101.699 165.808 103.259 164.272 105.227 163.168C107.195 162.064 109.355 161.512 111.707 161.512C114.083 161.512 116.243 162.064 118.187 163.168C120.155 164.272 121.703 165.808 122.831 167.776C123.983 169.72 124.559 171.916 124.559 174.364C124.559 176.836 123.983 179.056 122.831 181.024C121.703 182.968 120.155 184.492 118.187 185.596C116.219 186.7 114.059 187.252 111.707 187.252ZM111.707 182.752C113.219 182.752 114.551 182.416 115.703 181.744C116.855 181.048 117.755 180.064 118.403 178.792C119.051 177.52 119.375 176.044 119.375 174.364C119.375 172.684 119.051 171.22 118.403 169.972C117.755 168.7 116.855 167.728 115.703 167.056C114.551 166.384 113.219 166.048 111.707 166.048C110.195 166.048 108.851 166.384 107.675 167.056C106.523 167.728 105.623 168.7 104.975 169.972C104.327 171.22 104.003 172.684 104.003 174.364C104.003 176.044 104.327 177.52 104.975 178.792C105.623 180.064 106.523 181.048 107.675 181.744C108.851 182.416 110.195 182.752 111.707 182.752Z" fill="#297180"/>
</svg>
