<svg width="184" height="193" viewBox="0 0 184 193" fill="none" xmlns="http://www.w3.org/2000/svg">
<path d="M81.1699 44.9773L81.9337 45.5675C85.0012 47.9761 88.7328 49.3875 92.6264 49.612C98.4589 49.8203 104.274 47.1645 109.811 41.7139C125.955 25.8484 123.976 2.93533 123.872 1.96327C123.822 1.48941 123.609 1.04737 123.271 0.712041C122.932 0.376709 122.488 0.168709 122.014 0.123279C121.042 0.0364874 97.7125 -1.95973 81.5171 14.01C80.9269 14.5828 80.3367 15.2077 79.7813 15.9194L78.705 17.1345C76.9692 19.1828 73.2371 24.5812 73.9488 30.3268V31.9238L73.5149 31.1427C72.4504 29.218 71.1048 27.4628 69.5225 25.9352C57.875 14.4787 40.9679 16.1103 40.7943 16.1277C40.3541 16.1852 39.9452 16.3866 39.6313 16.7005C39.3173 17.0144 39.116 17.4233 39.0585 17.8635C39.0585 18.5579 37.6177 34.84 49.0395 46.0535C53.032 49.9939 57.2327 51.9033 61.4508 51.7297C64.2094 51.5274 66.8448 50.5059 69.019 48.7962L69.1753 48.6746L71.9179 51.3478V80.8571L67.8908 76.9167C67.4926 76.5317 66.9604 76.3165 66.4066 76.3165C65.8528 76.3165 65.3206 76.5317 64.9225 76.9167C64.7324 77.1022 64.5808 77.3234 64.4765 77.5677C64.3722 77.812 64.3173 78.0745 64.3149 78.3401C64.3134 78.6063 64.3664 78.87 64.4709 79.1149C64.5755 79.3597 64.7292 79.5805 64.9225 79.7635L71.8658 86.7068V88.894H41.6275C41.3415 88.8677 41.0532 88.9013 40.7809 88.9928C40.5086 89.0842 40.2584 89.2314 40.0462 89.4249C39.834 89.6185 39.6645 89.8542 39.5486 90.117C39.4326 90.3797 39.3727 90.6638 39.3727 90.951C39.3727 91.2382 39.4326 91.5222 39.5486 91.785C39.6645 92.0478 39.834 92.2835 40.0462 92.477C40.2584 92.6706 40.5086 92.8178 40.7809 92.9092C41.0532 93.0006 41.3415 93.0342 41.6275 93.0079H106.895C107.181 93.0342 107.469 93.0006 107.742 92.9092C108.014 92.8178 108.264 92.6706 108.476 92.477C108.689 92.2835 108.858 92.0478 108.974 91.785C109.09 91.5222 109.15 91.2382 109.15 90.951C109.15 90.6638 109.09 90.3797 108.974 90.117C108.858 89.8542 108.689 89.6185 108.476 89.4249C108.264 89.2314 108.014 89.0842 107.742 88.9928C107.469 88.9013 107.181 88.8677 106.895 88.894H76.136V82.2805L76.4484 81.9507C82.8068 75.3855 87.6789 67.5297 90.7344 58.9161C90.8371 58.6776 90.89 58.4207 90.89 58.161C90.89 57.9013 90.8371 57.6444 90.7344 57.4059C90.5504 57.0387 90.2636 56.7329 89.9089 56.5258C89.5542 56.3186 89.1469 56.2191 88.7367 56.2394C88.3264 56.2596 87.9309 56.3987 87.5983 56.6397C87.2657 56.8808 87.0104 57.2133 86.8635 57.5969C84.8081 63.3505 81.8809 68.7541 78.1843 73.6186L76.1707 76.2918V49.8897L81.1699 44.9773ZM115.244 28.4001C113.192 32.34 110.546 35.9406 107.398 39.0755C102.503 43.8837 97.591 46.3313 92.8 46.3313H92.2966C89.3118 46.1722 86.4338 45.1668 83.9993 43.4324L82.9057 42.5471L98.9969 26.7337H116.112L115.244 28.4001ZM119.844 5.27872L119.567 8.33379C119.045 13.7813 117.88 19.1477 116.095 24.3209L115.852 25.0673H99.6566L119.844 5.27872ZM88.5993 12.0138L89.1027 11.684C96.8914 6.76884 105.766 3.83661 114.949 3.14364L118.056 2.84854L88.5472 31.837L88.5993 12.0138ZM84.034 16.5096L85.9608 14.496V35.4649L81.1699 40.2385L80.4061 39.1796C78.6626 36.8138 77.6217 34.0041 77.4031 31.0733V30.9517C77.1254 26.2129 79.4341 21.3699 84.034 16.5096ZM45.4637 19.1307C51.8929 19.6368 58.0987 21.7173 63.5338 25.1888H63.6379V37.6L44.8215 19.0786L45.4637 19.1307ZM44.4917 32.8438C43.3759 29.5855 42.6534 26.2056 42.3392 22.776V22.1511L53.3965 33.0174H44.5437L44.4917 32.8438ZM67.5436 46.5569C65.8622 47.7573 63.8773 48.4611 61.8153 48.5879H61.3987C58.0485 48.5879 54.5769 46.852 51.0705 43.3803C48.8009 41.1356 46.8921 38.5534 45.4116 35.7253L45.238 35.3955H56.6078L67.6998 46.3139L67.5436 46.5569ZM69.4183 43.9705L69.2621 44.1788L66.3458 41.3321V27.6189L66.7451 28.0355C70.0258 31.5072 71.6402 34.8747 71.5187 38.1555C71.4037 40.2631 70.6735 42.2909 69.4183 43.9879V43.9705Z" fill="#38BBA0"/>
<path d="M106.392 97.7127H42.1662C41.924 97.7104 41.6836 97.7564 41.4594 97.8481C41.2351 97.9397 41.0313 98.0752 40.86 98.2465C40.6887 98.4178 40.5532 98.6216 40.4616 98.8459C40.37 99.0701 40.3239 99.3104 40.3263 99.5527C40.5269 108.427 44.1931 116.87 50.5403 123.075C56.8875 129.281 65.4114 132.755 74.2879 132.755C83.1644 132.755 91.6884 129.281 98.0355 123.075C104.383 116.87 108.049 108.427 108.25 99.5527C108.252 99.309 108.205 99.0672 108.113 98.8418C108.02 98.6163 107.883 98.4118 107.71 98.2402C107.537 98.0686 107.331 97.9336 107.104 97.843C106.878 97.7524 106.636 97.7081 106.392 97.7127ZM74.2272 129.843C66.5093 129.836 59.0844 126.888 53.4635 121.599C47.8426 116.31 44.4484 109.078 43.9715 101.375H104.465C103.993 109.077 100.602 116.309 94.9842 121.598C89.3662 126.887 81.9432 129.835 74.2272 129.843Z" fill="#38BBA0"/>
<path d="M16.74 179.112C18.156 179.376 19.32 180.084 20.232 181.236C21.144 182.388 21.6 183.708 21.6 185.196C21.6 186.54 21.264 187.728 20.592 188.76C19.944 189.768 18.996 190.56 17.748 191.136C16.5 191.712 15.024 192 13.32 192H2.484V166.872H12.852C14.556 166.872 16.02 167.148 17.244 167.7C18.492 168.252 19.428 169.02 20.052 170.004C20.7 170.988 21.024 172.104 21.024 173.352C21.024 174.816 20.628 176.04 19.836 177.024C19.068 178.008 18.036 178.704 16.74 179.112ZM7.524 177.24H12.132C13.332 177.24 14.256 176.976 14.904 176.448C15.552 175.896 15.876 175.116 15.876 174.108C15.876 173.1 15.552 172.32 14.904 171.768C14.256 171.216 13.332 170.94 12.132 170.94H7.524V177.24ZM12.6 187.896C13.824 187.896 14.772 187.608 15.444 187.032C16.14 186.456 16.488 185.64 16.488 184.584C16.488 183.504 16.128 182.664 15.408 182.064C14.688 181.44 13.716 181.128 12.492 181.128H7.524V187.896H12.6ZM30.6568 166.872V192H25.6168V166.872H30.6568ZM47.3003 192.252C44.9483 192.252 42.7883 191.7 40.8203 190.596C38.8523 189.492 37.2923 187.968 36.1403 186.024C34.9883 184.056 34.4123 181.836 34.4123 179.364C34.4123 176.916 34.9883 174.72 36.1403 172.776C37.2923 170.808 38.8523 169.272 40.8203 168.168C42.7883 167.064 44.9483 166.512 47.3003 166.512C49.6763 166.512 51.8363 167.064 53.7803 168.168C55.7483 169.272 57.2963 170.808 58.4243 172.776C59.5763 174.72 60.1523 176.916 60.1523 179.364C60.1523 181.836 59.5763 184.056 58.4243 186.024C57.2963 187.968 55.7483 189.492 53.7803 190.596C51.8123 191.7 49.6523 192.252 47.3003 192.252ZM47.3003 187.752C48.8123 187.752 50.1443 187.416 51.2963 186.744C52.4483 186.048 53.3483 185.064 53.9963 183.792C54.6443 182.52 54.9683 181.044 54.9683 179.364C54.9683 177.684 54.6443 176.22 53.9963 174.972C53.3483 173.7 52.4483 172.728 51.2963 172.056C50.1443 171.384 48.8123 171.048 47.3003 171.048C45.7883 171.048 44.4443 171.384 43.2683 172.056C42.1163 172.728 41.2163 173.7 40.5683 174.972C39.9203 176.22 39.5963 177.684 39.5963 179.364C39.5963 181.044 39.9203 182.52 40.5683 183.792C41.2163 185.064 42.1163 186.048 43.2683 186.744C44.4443 187.416 45.7883 187.752 47.3003 187.752ZM91.298 166.872V192H86.258V175.656L79.526 192H75.71L68.942 175.656V192H63.902V166.872H69.626L77.618 185.556L85.61 166.872H91.298ZM111.689 187.212H101.681L100.025 192H94.7329L103.769 166.836H109.637L118.673 192H113.345L111.689 187.212ZM110.321 183.18L106.685 172.668L103.049 183.18H110.321ZM130.726 192.252C128.974 192.252 127.39 191.952 125.974 191.352C124.582 190.752 123.478 189.888 122.662 188.76C121.846 187.632 121.426 186.3 121.402 184.764H126.802C126.874 185.796 127.234 186.612 127.882 187.212C128.554 187.812 129.466 188.112 130.618 188.112C131.794 188.112 132.718 187.836 133.39 187.284C134.062 186.708 134.398 185.964 134.398 185.052C134.398 184.308 134.17 183.696 133.714 183.216C133.258 182.736 132.682 182.364 131.986 182.1C131.314 181.812 130.378 181.5 129.178 181.164C127.546 180.684 126.214 180.216 125.182 179.76C124.174 179.28 123.298 178.572 122.554 177.636C121.834 176.676 121.474 175.404 121.474 173.82C121.474 172.332 121.846 171.036 122.59 169.932C123.334 168.828 124.378 167.988 125.722 167.412C127.066 166.812 128.602 166.512 130.33 166.512C132.922 166.512 135.022 167.148 136.63 168.42C138.262 169.668 139.162 171.42 139.33 173.676H133.786C133.738 172.812 133.366 172.104 132.67 171.552C131.998 170.976 131.098 170.688 129.97 170.688C128.986 170.688 128.194 170.94 127.594 171.444C127.018 171.948 126.73 172.68 126.73 173.64C126.73 174.312 126.946 174.876 127.378 175.332C127.834 175.764 128.386 176.124 129.034 176.412C129.706 176.676 130.642 176.988 131.842 177.348C133.474 177.828 134.806 178.308 135.838 178.788C136.87 179.268 137.758 179.988 138.502 180.948C139.246 181.908 139.618 183.168 139.618 184.728C139.618 186.072 139.27 187.32 138.574 188.472C137.878 189.624 136.858 190.548 135.514 191.244C134.17 191.916 132.574 192.252 130.726 192.252ZM152.664 192.252C150.912 192.252 149.328 191.952 147.912 191.352C146.52 190.752 145.416 189.888 144.6 188.76C143.784 187.632 143.364 186.3 143.34 184.764H148.74C148.812 185.796 149.172 186.612 149.82 187.212C150.492 187.812 151.404 188.112 152.556 188.112C153.732 188.112 154.656 187.836 155.328 187.284C156 186.708 156.336 185.964 156.336 185.052C156.336 184.308 156.108 183.696 155.652 183.216C155.196 182.736 154.62 182.364 153.924 182.1C153.252 181.812 152.316 181.5 151.116 181.164C149.484 180.684 148.152 180.216 147.12 179.76C146.112 179.28 145.236 178.572 144.492 177.636C143.772 176.676 143.412 175.404 143.412 173.82C143.412 172.332 143.784 171.036 144.528 169.932C145.272 168.828 146.316 167.988 147.66 167.412C149.004 166.812 150.54 166.512 152.268 166.512C154.86 166.512 156.96 167.148 158.568 168.42C160.2 169.668 161.1 171.42 161.268 173.676H155.724C155.676 172.812 155.304 172.104 154.608 171.552C153.936 170.976 153.036 170.688 151.908 170.688C150.924 170.688 150.132 170.94 149.532 171.444C148.956 171.948 148.668 172.68 148.668 173.64C148.668 174.312 148.884 174.876 149.316 175.332C149.772 175.764 150.324 176.124 150.972 176.412C151.644 176.676 152.58 176.988 153.78 177.348C155.412 177.828 156.744 178.308 157.776 178.788C158.808 179.268 159.696 179.988 160.44 180.948C161.184 181.908 161.556 183.168 161.556 184.728C161.556 186.072 161.208 187.32 160.512 188.472C159.816 189.624 158.796 190.548 157.452 191.244C156.108 191.916 154.512 192.252 152.664 192.252ZM170.965 170.94V177.24H179.425V181.236H170.965V187.896H180.505V192H165.925V166.836H180.505V170.94H170.965Z" fill="#38BBA0"/>
</svg>
