<svg width="145" height="198" viewBox="0 0 145 198" fill="none" xmlns="http://www.w3.org/2000/svg">
<path d="M44.3407 0V30.5032H15V138H100.659V107.497H130V0H44.3407ZM66.861 3.39124H86.4454V19.54L83.8496 22.1238H69.5283L66.9326 19.54L66.861 3.39124ZM66.861 25.8559L69.4746 23.2362H83.7959L86.4096 25.8559V30.5032H66.861V25.8559ZM47.7242 3.39124H65.8585V19.54L63.2628 22.1238H47.7242V3.39124ZM47.7242 23.2362H63.2449L65.8585 25.8559V30.5032H47.7242V23.2362ZM36.5177 134.609H18.3834V115.751H33.9041L36.5177 118.263V134.609ZM36.5177 112.036L33.922 114.638H18.3834V95.0264H33.9041L36.5177 97.6281V112.036ZM36.5177 91.4019L33.922 94.0036H18.3834V74.3739H33.9041L36.5177 76.9936V91.4019ZM36.5177 70.7674L33.922 73.3691H18.3834V53.7394H33.9041L36.5177 56.3591V70.7674ZM36.5177 50.1329L33.922 52.7346H18.3834V33.8944H36.5177V50.1329ZM57.1046 134.609H37.5202V118.263L40.1339 115.751H54.4552L57.1046 118.263V134.609ZM57.1046 112.036L54.5984 114.638H40.2771L37.6813 112.036V97.682L40.295 95.0802H54.6163L57.1046 97.6281V112.036ZM57.1046 91.4019L54.5984 94.0036H40.2771L37.6813 91.4019V77.0475L40.295 74.4278H54.6163L57.1046 76.9936V91.4019ZM57.1046 70.7674L54.5984 73.3691H40.2771L37.6813 70.7674V56.4129L40.295 53.7933H54.6163L57.1046 56.3591V70.7674ZM57.1046 50.1329L54.5984 52.7346H40.2771L37.6813 50.1329V33.9841H57.1046V50.1329ZM77.6915 134.609H58.1787V118.263L60.7207 115.751H75.042L77.6915 118.263V134.609ZM77.6915 112.036L75.0957 114.638H60.7744L58.1787 112.036V97.682L60.7923 95.0802H75.1136L77.6915 97.6281V112.036ZM77.6915 91.4019L75.0957 94.0036H60.7744L58.1787 91.4019V77.0475L60.7923 74.4278H75.1136L77.6915 76.9936V91.4019ZM77.6915 70.7674L75.0957 73.3691H60.7744L58.1787 70.7674V56.4129L60.7923 53.7933H75.1136L77.6915 56.3591V70.7674ZM77.6915 50.1329L75.0957 52.7346H60.7744L58.1787 50.1329V33.9841H77.6915V50.1329ZM97.2758 134.609H78.694V118.263L81.3076 115.751H97.2758V134.609ZM97.2758 114.638H81.2897L78.694 112.036V97.682L81.3076 95.0802H97.2758V114.638ZM97.2758 94.0036H81.2897L78.694 91.4019V77.0475L81.3076 74.4278H97.2758V94.0036ZM97.2758 73.3691H81.2897L78.694 70.7674V56.4129L81.3076 53.7933H97.2758V73.3691ZM97.2758 52.7346H81.2897L78.694 50.1329V33.9841H97.2758V52.7346ZM107.032 81.4435L104.436 84.0452H100.856C100.856 84.3682 100.856 84.7091 100.856 85.0501H104.436L107.05 87.6697V104.016H100.659V64.5053H104.419L107.032 67.125V81.4435ZM107.032 60.809L104.436 63.4107H100.659V43.8708H104.419L107.032 46.4904V60.809ZM107.032 40.1745L104.436 42.7762H100.677V30.5032H87.4478V25.8559L90.0615 23.2362H104.383L106.996 25.8559L107.032 40.1745ZM107.032 19.54L104.436 22.1238H90.1152L87.5194 19.54V3.39124H107.032V19.54ZM126.617 104.106H108.035V87.7595L110.648 85.1398H126.617V104.106ZM126.617 84.135H110.63L108.035 81.5332V67.1788L110.648 64.5591H126.617V84.135ZM126.617 63.5005H110.63L108.035 60.8987V46.5443L110.648 43.9246H126.617V63.5005ZM126.617 42.8659H110.63L108.035 40.2642V25.9098L110.648 23.2901H126.617V42.8659ZM126.617 22.2135H110.63L108.035 19.6297V3.48095H126.617V22.2135Z" fill="#F1A321"/>
<path d="M11.16 197.252C9.408 197.252 7.824 196.952 6.408 196.352C5.016 195.752 3.912 194.888 3.096 193.76C2.28 192.632 1.86 191.3 1.836 189.764H7.236C7.308 190.796 7.668 191.612 8.316 192.212C8.988 192.812 9.9 193.112 11.052 193.112C12.228 193.112 13.152 192.836 13.824 192.284C14.496 191.708 14.832 190.964 14.832 190.052C14.832 189.308 14.604 188.696 14.148 188.216C13.692 187.736 13.116 187.364 12.42 187.1C11.748 186.812 10.812 186.5 9.612 186.164C7.98 185.684 6.648 185.216 5.616 184.76C4.608 184.28 3.732 183.572 2.988 182.636C2.268 181.676 1.908 180.404 1.908 178.82C1.908 177.332 2.28 176.036 3.024 174.932C3.768 173.828 4.812 172.988 6.156 172.412C7.5 171.812 9.036 171.512 10.764 171.512C13.356 171.512 15.456 172.148 17.064 173.42C18.696 174.668 19.596 176.42 19.764 178.676H14.22C14.172 177.812 13.8 177.104 13.104 176.552C12.432 175.976 11.532 175.688 10.404 175.688C9.42 175.688 8.628 175.94 8.028 176.444C7.452 176.948 7.164 177.68 7.164 178.64C7.164 179.312 7.38 179.876 7.812 180.332C8.268 180.764 8.82 181.124 9.468 181.412C10.14 181.676 11.076 181.988 12.276 182.348C13.908 182.828 15.24 183.308 16.272 183.788C17.304 184.268 18.192 184.988 18.936 185.948C19.68 186.908 20.052 188.168 20.052 189.728C20.052 191.072 19.704 192.32 19.008 193.472C18.312 194.624 17.292 195.548 15.948 196.244C14.604 196.916 13.008 197.252 11.16 197.252ZM36.0855 197.252C33.7335 197.252 31.5735 196.7 29.6055 195.596C27.6375 194.492 26.0775 192.968 24.9255 191.024C23.7735 189.056 23.1975 186.836 23.1975 184.364C23.1975 181.916 23.7735 179.72 24.9255 177.776C26.0775 175.808 27.6375 174.272 29.6055 173.168C31.5735 172.064 33.7335 171.512 36.0855 171.512C38.4615 171.512 40.6215 172.064 42.5655 173.168C44.5335 174.272 46.0815 175.808 47.2095 177.776C48.3615 179.72 48.9375 181.916 48.9375 184.364C48.9375 186.836 48.3615 189.056 47.2095 191.024C46.0815 192.968 44.5335 194.492 42.5655 195.596C40.5975 196.7 38.4375 197.252 36.0855 197.252ZM36.0855 192.752C37.5975 192.752 38.9295 192.416 40.0815 191.744C41.2335 191.048 42.1335 190.064 42.7815 188.792C43.4295 187.52 43.7535 186.044 43.7535 184.364C43.7535 182.684 43.4295 181.22 42.7815 179.972C42.1335 178.7 41.2335 177.728 40.0815 177.056C38.9295 176.384 37.5975 176.048 36.0855 176.048C34.5735 176.048 33.2295 176.384 32.0535 177.056C30.9015 177.728 30.0015 178.7 29.3535 179.972C28.7055 181.22 28.3815 182.684 28.3815 184.364C28.3815 186.044 28.7055 187.52 29.3535 188.792C30.0015 190.064 30.9015 191.048 32.0535 191.744C33.2295 192.416 34.5735 192.752 36.0855 192.752ZM57.7271 193.004H66.0071V197H52.6871V171.872H57.7271V193.004ZM84.6186 192.212H74.6106L72.9546 197H67.6626L76.6986 171.836H82.5666L91.6026 197H86.2746L84.6186 192.212ZM83.2506 188.18L79.6146 177.668L75.9786 188.18H83.2506ZM100.02 171.872V197H94.9801V171.872H100.02ZM117.96 197L112.416 187.208H110.04V197H105V171.872H114.432C116.376 171.872 118.032 172.22 119.4 172.916C120.768 173.588 121.788 174.512 122.46 175.688C123.156 176.84 123.504 178.136 123.504 179.576C123.504 181.232 123.024 182.732 122.064 184.076C121.104 185.396 119.676 186.308 117.78 186.812L123.792 197H117.96ZM110.04 183.428H114.252C115.62 183.428 116.64 183.104 117.312 182.456C117.984 181.784 118.32 180.86 118.32 179.684C118.32 178.532 117.984 177.644 117.312 177.02C116.64 176.372 115.62 176.048 114.252 176.048H110.04V183.428ZM133.102 175.94V182.24H141.562V186.236H133.102V192.896H142.642V197H128.062V171.836H142.642V175.94H133.102Z" fill="#F1A321"/>
</svg>
