<svg width="196" height="194" viewBox="0 0 196 194" fill="none" xmlns="http://www.w3.org/2000/svg">
<path d="M116.314 25.0012H50.6675C49.666 24.9857 48.6715 25.1759 47.7418 25.5607C46.8122 25.9455 45.966 26.5173 45.2525 27.2428C44.5389 27.9682 43.9723 28.8329 43.5856 29.7864C43.1989 30.7399 42.9999 31.7633 43 32.797V40.203C42.9999 41.2367 43.1989 42.2601 43.5856 43.2136C43.9723 44.1671 44.5389 45.0318 45.2525 45.7572C45.966 46.4827 46.8122 47.0545 47.7418 47.4393C48.6715 47.8241 49.666 48.0143 50.6675 47.9988H116.314C117.317 48.0169 118.313 47.8287 119.245 47.445C120.177 47.0613 121.025 46.49 121.741 45.7643C122.456 45.0385 123.025 44.173 123.413 43.2182C123.8 42.2633 124 41.2383 124 40.203V32.797C124 31.7617 123.8 30.7367 123.413 29.7818C123.025 28.827 122.456 27.9615 121.741 27.2357C121.025 26.51 120.177 25.9386 119.245 25.555C118.313 25.1713 117.317 24.9831 116.314 25.0012ZM119.959 40.1445C119.929 41.1147 119.529 42.0336 118.847 42.7014C118.164 43.3693 117.254 43.7321 116.314 43.7111H50.6675C49.7272 43.7321 48.8168 43.3693 48.1343 42.7014C47.4517 42.0336 47.0522 41.1147 47.0226 40.1445V32.7385C47.0522 31.7684 47.4517 30.8495 48.1343 30.1816C48.8168 29.5138 49.7272 29.1509 50.6675 29.1719H116.314C117.254 29.1509 118.164 29.5138 118.847 30.1816C119.529 30.8495 119.929 31.7684 119.959 32.7385V40.1445Z" fill="#9BCB4D"/>
<path d="M66.6833 18.9994H100.221C101.23 19.0115 102.231 18.8341 103.168 18.4773C104.105 18.1205 104.96 17.5913 105.682 16.9199C106.404 16.2486 106.981 15.4482 107.379 14.5645C107.776 13.6808 107.987 12.7311 108 11.7696V7.23039C107.987 6.26892 107.776 5.31921 107.379 4.43551C106.981 3.55182 106.404 2.75143 105.682 2.08007C104.96 1.4087 104.105 0.879507 103.168 0.522707C102.231 0.165906 101.23 -0.0115144 100.221 0.000579124H66.6833C64.6621 0.000428651 62.7222 0.759206 61.284 2.11249C59.8459 3.46577 59.0253 5.30456 59 7.23039V11.7696C59.0253 13.6954 59.8459 15.5342 61.284 16.8875C62.7222 18.2408 64.6621 18.9996 66.6833 18.9994ZM63.0145 7.23039C63.0397 6.32577 63.4398 5.46746 64.1273 4.84319C64.8148 4.21893 65.7338 3.87951 66.6833 3.89918H100.221C101.17 3.87951 102.089 4.21893 102.777 4.84319C103.464 5.46746 103.864 6.32577 103.889 7.23039V11.7696C103.877 12.2167 103.772 12.6571 103.581 13.0657C103.39 13.4742 103.116 13.8428 102.775 14.1505C102.435 14.4581 102.034 14.6988 101.595 14.8587C101.157 15.0186 100.69 15.0947 100.221 15.0825H66.6833C66.214 15.0947 65.7469 15.0186 65.3085 14.8587C64.8702 14.6988 64.4692 14.4581 64.1285 14.1505C63.7878 13.8428 63.514 13.4742 63.3229 13.0657C63.1318 12.6571 63.0269 12.2167 63.0145 11.7696V7.23039Z" fill="#9BCB4D"/>
<path d="M116.314 53H50.6675C48.6322 53.005 46.682 53.8232 45.2446 55.2751C43.8072 56.727 43 58.6941 43 60.7448V103.465C43.01 110.768 45.8949 117.769 51.0217 122.931C56.1485 128.093 63.0983 130.995 70.3462 131H96.6349C103.885 130.995 110.836 128.094 115.966 122.932C121.096 117.77 123.985 110.77 124 103.465V60.7448C123.995 58.6923 123.184 56.7253 121.743 55.274C120.303 53.8226 118.351 53.005 116.314 53ZM119.959 103.465C119.949 109.693 117.487 115.663 113.115 120.065C108.743 124.467 102.816 126.942 96.6349 126.947H70.3462C64.1652 126.942 58.2385 124.467 53.8661 120.065C49.4937 115.663 47.0326 109.693 47.0226 103.465V60.7448C47.0226 59.7708 47.4066 58.8366 48.0902 58.1479C48.7737 57.4591 49.7008 57.0722 50.6675 57.0722H94.8218L64.8128 95.8914H79.8079L71.9515 123.826L102.168 84.7404H87.0599L94.8407 57.0722H116.2C117.167 57.0722 118.094 57.4591 118.778 58.1479C119.461 58.8366 119.845 59.7708 119.845 60.7448L119.959 103.465ZM93.9342 88.7936L81.4509 105.006L85.1336 91.8953H73.0468L85.5302 75.7778L81.7531 88.8697L93.9342 88.7936Z" fill="#9BCB4D"/>
<path d="M11.16 191.252C9.408 191.252 7.824 190.952 6.408 190.352C5.016 189.752 3.912 188.888 3.096 187.76C2.28 186.632 1.86 185.3 1.836 183.764H7.236C7.308 184.796 7.668 185.612 8.316 186.212C8.988 186.812 9.9 187.112 11.052 187.112C12.228 187.112 13.152 186.836 13.824 186.284C14.496 185.708 14.832 184.964 14.832 184.052C14.832 183.308 14.604 182.696 14.148 182.216C13.692 181.736 13.116 181.364 12.42 181.1C11.748 180.812 10.812 180.5 9.612 180.164C7.98 179.684 6.648 179.216 5.616 178.76C4.608 178.28 3.732 177.572 2.988 176.636C2.268 175.676 1.908 174.404 1.908 172.82C1.908 171.332 2.28 170.036 3.024 168.932C3.768 167.828 4.812 166.988 6.156 166.412C7.5 165.812 9.036 165.512 10.764 165.512C13.356 165.512 15.456 166.148 17.064 167.42C18.696 168.668 19.596 170.42 19.764 172.676H14.22C14.172 171.812 13.8 171.104 13.104 170.552C12.432 169.976 11.532 169.688 10.404 169.688C9.42 169.688 8.628 169.94 8.028 170.444C7.452 170.948 7.164 171.68 7.164 172.64C7.164 173.312 7.38 173.876 7.812 174.332C8.268 174.764 8.82 175.124 9.468 175.412C10.14 175.676 11.076 175.988 12.276 176.348C13.908 176.828 15.24 177.308 16.272 177.788C17.304 178.268 18.192 178.988 18.936 179.948C19.68 180.908 20.052 182.168 20.052 183.728C20.052 185.072 19.704 186.32 19.008 187.472C18.312 188.624 17.292 189.548 15.948 190.244C14.604 190.916 13.008 191.252 11.16 191.252ZM41.5215 165.872V169.94H34.8255V191H29.7855V169.94H23.0895V165.872H41.5215ZM56.8628 191.252C54.5108 191.252 52.3508 190.7 50.3828 189.596C48.4148 188.492 46.8548 186.968 45.7028 185.024C44.5508 183.056 43.9748 180.836 43.9748 178.364C43.9748 175.916 44.5508 173.72 45.7028 171.776C46.8548 169.808 48.4148 168.272 50.3828 167.168C52.3508 166.064 54.5108 165.512 56.8628 165.512C59.2388 165.512 61.3988 166.064 63.3428 167.168C65.3108 168.272 66.8588 169.808 67.9868 171.776C69.1388 173.72 69.7148 175.916 69.7148 178.364C69.7148 180.836 69.1388 183.056 67.9868 185.024C66.8588 186.968 65.3108 188.492 63.3428 189.596C61.3748 190.7 59.2148 191.252 56.8628 191.252ZM56.8628 186.752C58.3748 186.752 59.7068 186.416 60.8588 185.744C62.0108 185.048 62.9108 184.064 63.5588 182.792C64.2068 181.52 64.5308 180.044 64.5308 178.364C64.5308 176.684 64.2068 175.22 63.5588 173.972C62.9108 172.7 62.0108 171.728 60.8588 171.056C59.7068 170.384 58.3748 170.048 56.8628 170.048C55.3508 170.048 54.0068 170.384 52.8308 171.056C51.6788 171.728 50.7788 172.7 50.1308 173.972C49.4828 175.22 49.1588 176.684 49.1588 178.364C49.1588 180.044 49.4828 181.52 50.1308 182.792C50.7788 184.064 51.6788 185.048 52.8308 185.744C54.0068 186.416 55.3508 186.752 56.8628 186.752ZM72.2405 178.4C72.2405 175.928 72.7925 173.72 73.8965 171.776C75.0245 169.808 76.5485 168.284 78.4685 167.204C80.4125 166.1 82.5845 165.548 84.9845 165.548C87.7925 165.548 90.2525 166.268 92.3645 167.708C94.4765 169.148 95.9525 171.14 96.7925 173.684H90.9965C90.4205 172.484 89.6045 171.584 88.5485 170.984C87.5165 170.384 86.3165 170.084 84.9485 170.084C83.4845 170.084 82.1765 170.432 81.0245 171.128C79.8965 171.8 79.0085 172.76 78.3605 174.008C77.7365 175.256 77.4245 176.72 77.4245 178.4C77.4245 180.056 77.7365 181.52 78.3605 182.792C79.0085 184.04 79.8965 185.012 81.0245 185.708C82.1765 186.38 83.4845 186.716 84.9485 186.716C86.3165 186.716 87.5165 186.416 88.5485 185.816C89.6045 185.192 90.4205 184.28 90.9965 183.08H96.7925C95.9525 185.648 94.4765 187.652 92.3645 189.092C90.2765 190.508 87.8165 191.216 84.9845 191.216C82.5845 191.216 80.4125 190.676 78.4685 189.596C76.5485 188.492 75.0245 186.968 73.8965 185.024C72.7925 183.08 72.2405 180.872 72.2405 178.4ZM115.281 191L106.137 179.804V191H101.097V165.872H106.137V177.14L115.281 165.872H121.365L110.997 178.328L121.653 191H115.281ZM140.376 186.212H130.368L128.712 191H123.42L132.456 165.836H138.324L147.36 191H142.032L140.376 186.212ZM139.008 182.18L135.372 171.668L131.736 182.18H139.008ZM168.234 173.432C167.658 172.376 166.866 171.572 165.858 171.02C164.85 170.468 163.674 170.192 162.33 170.192C160.842 170.192 159.522 170.528 158.37 171.2C157.218 171.872 156.318 172.832 155.67 174.08C155.022 175.328 154.698 176.768 154.698 178.4C154.698 180.08 155.022 181.544 155.67 182.792C156.342 184.04 157.266 185 158.442 185.672C159.618 186.344 160.986 186.68 162.546 186.68C164.466 186.68 166.038 186.176 167.262 185.168C168.486 184.136 169.29 182.708 169.674 180.884H161.034V177.032H174.642V181.424C174.306 183.176 173.586 184.796 172.482 186.284C171.378 187.772 169.95 188.972 168.198 189.884C166.47 190.772 164.526 191.216 162.366 191.216C159.942 191.216 157.746 190.676 155.778 189.596C153.834 188.492 152.298 186.968 151.17 185.024C150.066 183.08 149.514 180.872 149.514 178.4C149.514 175.928 150.066 173.72 151.17 171.776C152.298 169.808 153.834 168.284 155.778 167.204C157.746 166.1 159.93 165.548 162.33 165.548C165.162 165.548 167.622 166.244 169.71 167.636C171.798 169.004 173.238 170.936 174.03 173.432H168.234ZM183.411 169.94V176.24H191.871V180.236H183.411V186.896H192.951V191H178.371V165.836H192.951V169.94H183.411Z" fill="#9CCC4E"/>
</svg>
