<svg width="150" height="150" viewBox="0 0 150 150" fill="none" xmlns="http://www.w3.org/2000/svg">
<path d="M113.575 135.716C113.356 135.457 113.064 135.23 112.716 135.049C112.368 134.867 111.971 134.734 111.548 134.657C111.124 134.58 110.683 134.561 110.249 134.602C109.815 134.642 109.397 134.74 109.019 134.891H108.882C108.24 135.14 107.737 135.528 107.453 135.994C107.169 136.46 107.119 136.977 107.312 137.464C107.505 137.951 107.93 138.38 108.519 138.684C109.109 138.988 109.83 139.149 110.568 139.142C111.15 139.144 111.724 139.042 112.231 138.847H112.368C112.75 138.697 113.085 138.496 113.353 138.257C113.621 138.018 113.816 137.745 113.929 137.454C114.041 137.163 114.068 136.859 114.007 136.561C113.946 136.263 113.799 135.976 113.575 135.716Z" fill="#10243E"/>
<path d="M139.374 37.3303C133.345 26.9027 124.886 18.0875 114.715 11.6358C104.545 5.18423 92.9651 1.28758 80.9637 0.278031C68.9623 -0.73152 56.8948 1.17596 45.7896 5.83788C34.6845 10.4998 24.8709 17.7779 17.1856 27.052C9.50033 36.326 4.17125 47.3209 1.65223 59.0995C-0.866785 70.8782 -0.500857 83.0913 2.71883 94.698C5.93852 106.305 11.9164 116.961 20.1432 125.758C28.3699 134.555 38.6014 141.232 49.9658 145.221C57.903 147.988 66.2485 149.403 74.6541 149.406C83.7757 149.41 92.8202 147.735 101.335 144.464C101.727 144.36 102.092 144.176 102.408 143.924C102.725 143.671 102.985 143.355 103.172 142.996C103.359 142.637 103.469 142.243 103.496 141.839C103.522 141.435 103.463 141.03 103.324 140.65C103.185 140.27 102.968 139.923 102.687 139.631C102.406 139.34 102.067 139.11 101.692 138.957C101.318 138.804 100.915 138.731 100.511 138.742C100.106 138.754 99.708 138.849 99.3425 139.023C88.5153 143.221 76.7978 144.593 65.2939 143.01C53.7899 141.427 42.8782 136.942 33.5866 129.976L36.0176 116.325L37.2729 115.907C39.5629 115.163 41.464 113.54 42.5587 111.396C43.6534 109.251 43.8522 106.759 43.1113 104.468L42.1746 101.618C41.9698 100.97 41.9698 100.274 42.1746 99.6255C42.574 98.4034 42.7096 97.1105 42.5723 95.8321C42.435 94.5538 42.028 93.3191 41.3783 92.2097C40.7285 91.1003 39.8509 90.1414 38.8031 89.3964C37.7554 88.6514 36.5614 88.1372 35.3003 87.8879L28.7046 86.5926L16.0915 76.9075C15.7153 76.6236 15.2758 76.4353 14.8107 76.359C14.3455 76.2826 13.8688 76.3204 13.4215 76.4691L5.98916 78.8804C5.83974 76.2254 5.83974 73.5641 5.98916 70.9092L6.60674 71.4871C6.75145 71.7325 6.93292 71.9542 7.14478 72.1447C7.44914 72.4374 7.81344 72.6602 8.21259 72.7979C8.61174 72.9355 9.03623 72.9847 9.45627 72.9418C11.2068 72.8579 12.9504 72.6649 14.6769 72.3639L19.6185 71.5867C20.0981 71.4998 20.5487 71.2962 20.931 70.9939C21.3133 70.6915 21.6153 70.2997 21.8103 69.853C22.0054 69.4037 22.084 68.9125 22.0387 68.4248C21.9934 67.9371 21.8258 67.4687 21.5513 67.063L17.9645 61.802L23.0856 58.1353C23.429 57.8954 23.7149 57.5823 23.9226 57.2186L31.893 43.2689L35.101 39.8213C36.7046 38.0971 37.7801 35.9491 38.2004 33.6321C38.6206 31.3152 38.3679 28.9263 37.4721 26.7485C36.399 24.1562 34.5379 21.967 32.152 20.4911C34.7353 18.4519 37.4659 16.6068 40.3216 14.971C50.5366 9.10476 62.0979 5.98755 73.877 5.92367L68.6564 12.4601L49.3282 19.2356C48.9427 19.3746 48.5898 19.5914 48.2916 19.8725C47.9933 20.1536 47.7562 20.4931 47.5947 20.8697L42.2145 33.9625C42.0186 34.4181 41.945 34.917 42.001 35.4098C42.0569 35.9026 42.2404 36.3722 42.5334 36.7724L50.5038 47.8125C49.1904 49.1575 48.0093 50.6256 46.9769 52.1967C46.399 53.0137 45.861 53.7909 45.4824 54.1895L44.5061 55.3055C42.6232 57.2317 41.0383 59.428 39.8036 61.822C38.4536 64.6144 37.8765 67.7176 38.1323 70.8088C38.3881 73.8999 39.4675 76.866 41.2581 79.3985C42.9943 81.8 45.3492 83.6855 48.0722 84.8541C50.7952 86.0227 53.7842 86.4307 56.7207 86.0346C57.681 85.8977 58.6323 85.7048 59.57 85.4567C62.0608 84.8389 62.8578 84.7791 63.5552 85.4567C63.9537 85.8154 63.9937 85.8951 63.9738 87.1306C63.9433 88.1018 64.0371 89.0728 64.2528 90.0202C64.7088 91.5395 65.5536 92.9134 66.7037 94.0058C67.1158 94.4073 67.4711 94.8632 67.7598 95.3609C68.6764 97.5331 68.2778 98.7487 67.421 101.339L67.1819 102.037C65.8668 106.022 67.6999 110.167 69.3338 113.735C69.8519 114.91 70.3501 116.006 70.6889 116.963C73.2992 124.755 75.2718 126.548 76.8459 127.266C77.6476 127.626 78.5176 127.81 79.3965 127.804C83.6009 127.804 88.0045 123.818 90.017 121.407C90.9713 120.169 91.5953 118.708 91.8304 117.162C91.8845 116.715 92.0052 116.278 92.1889 115.867C92.4646 115.423 92.7853 115.009 93.1455 114.631C94.2456 113.51 95.0648 112.144 95.5366 110.646C95.8829 109.437 96.5756 108.356 97.5292 107.537L98.1667 106.839C102.152 102.615 101.056 99.3864 100 95.9588C99.1033 93.0891 100.657 91.2358 104.423 87.7285C106.147 86.2335 107.704 84.5564 109.066 82.7265C109.741 81.9323 110.207 80.9826 110.422 79.9633C110.638 78.9439 110.597 77.8869 110.302 76.8876C109.246 74.4364 106.556 74.0179 104.324 73.6991C103.452 73.6073 102.595 73.4064 101.773 73.1012C99.938 71.4975 98.5625 69.4341 97.7882 67.1228C97.569 66.6645 97.35 66.1862 97.1507 65.7279C96.7721 64.9307 96.3933 63.9343 95.9948 62.8981C95.0584 59.9966 93.5925 57.2939 91.671 54.9268C89.8378 52.934 86.3506 52.0373 83.302 51.2003C82.2658 50.9213 81.3094 50.6622 80.6519 50.4231C80.1168 50.2215 79.5333 50.1868 78.9782 50.3234C77.8574 50.5144 76.7944 50.9573 75.8696 51.6188C75.4081 51.9851 75.0508 52.4661 74.8334 53.0137C73.646 52.4181 72.4949 51.7527 71.3862 51.0209C71.6245 50.0823 71.533 49.0903 71.1272 48.2111C69.4933 44.7635 64.0735 45.0226 63.0174 45.1222L60.8254 45.2219C59.5501 45.2219 58.1553 45.2219 56.8402 45.4809V45.2816C57.3625 43.8387 58.3154 42.5909 59.5698 41.707C60.8242 40.8231 62.3197 40.3458 63.8541 40.3395H65.5082C65.9118 40.3729 66.318 40.3222 66.701 40.1906C67.084 40.059 67.4356 39.8494 67.7335 39.5751C68.0315 39.3007 68.2692 38.9676 68.4319 38.5966C68.5946 38.2257 68.6785 37.8251 68.6785 37.42C68.6785 37.015 68.5946 36.6143 68.4319 36.2434C68.2692 35.8725 68.0315 35.5393 67.7335 35.2649C67.4356 34.9906 67.084 34.781 66.701 34.6494C66.318 34.5179 65.9118 34.4672 65.5082 34.5005H63.914C61.6486 34.5032 59.4215 35.085 57.4441 36.1907C55.4667 37.2963 53.8046 38.8891 52.6158 40.8177L48.2522 34.7198L52.5363 24.3372L71.4261 17.7012C71.9467 17.5244 72.404 17.1987 72.7413 16.7646L81.1301 6.24252C92.0822 7.2606 102.631 10.8899 111.891 16.826C121.152 22.7621 128.854 30.8321 134.352 40.3594C137.377 45.5952 139.689 51.2114 141.227 57.0591L139.992 58.1552C139.194 58.8737 138.552 59.7486 138.106 60.7257C137.66 61.7027 137.421 62.761 137.401 63.8347L135.409 58.2748C135.1 57.4554 134.655 56.6941 134.093 56.0229L130.427 51.7583C129.741 50.9533 128.889 50.3066 127.929 49.8628C126.97 49.419 125.925 49.1886 124.868 49.1875H120.464C119.7 49.1911 118.951 49.4009 118.296 49.7949C117.641 50.1889 117.105 50.7523 116.743 51.4259C116.382 52.0994 116.21 52.858 116.244 53.6215C116.278 54.385 116.517 55.1252 116.937 55.7638L117.395 56.4414C114.53 58.8834 111.268 60.8178 107.751 62.1607L101.773 50.6024V48.0118C101.774 47.6175 101.694 47.2271 101.54 46.8641C101.386 46.5012 101.161 46.173 100.877 45.8994L95.4368 40.7181C95.1368 40.4394 94.7849 40.2226 94.4009 40.0804L89.4989 38.3666C89.1378 38.2357 88.7545 38.1773 88.3708 38.1946C87.9871 38.2119 87.6107 38.3047 87.2628 38.4675C86.915 38.6304 86.6025 38.8601 86.3434 39.1437C86.0843 39.4273 85.8837 39.7591 85.7528 40.1203C85.622 40.4814 85.5635 40.8648 85.5809 41.2485C85.5982 41.6323 85.6909 42.0088 85.8538 42.3567C86.0166 42.7046 86.2464 43.017 86.53 43.2761C86.8135 43.5352 87.1452 43.7359 87.5063 43.8668L91.8104 45.3813L95.7956 49.3669V51.3597C95.7968 51.8259 95.9133 52.2845 96.1344 52.6949L103.686 67.1826C104.015 67.8131 104.564 68.3011 105.229 68.5545C105.893 68.8078 106.628 68.8089 107.293 68.5576L109.485 67.7605C114.622 65.8489 119.289 62.859 123.174 58.9922C123.652 58.5155 123.951 57.8881 124.02 57.2163C124.089 56.5445 123.924 55.8694 123.553 55.3055L123.393 55.0663H124.788C125 55.0673 125.21 55.114 125.402 55.2034C125.595 55.2929 125.766 55.4228 125.904 55.5845L129.67 59.7295C129.786 59.8557 129.874 60.0051 129.929 60.1679L133.914 71.0885C134.087 71.5469 134.371 71.9557 134.739 72.2789C135.107 72.6021 135.549 72.8297 136.026 72.9418H136.664C137.41 72.9231 138.121 72.6243 138.657 72.1048L140.529 70.112C141.73 68.9043 142.572 67.3864 142.961 65.7279C144.444 77.5271 142.862 89.5095 138.366 100.519C133.871 111.529 126.614 121.193 117.296 128.581C116.687 129.06 116.292 129.761 116.199 130.531C116.105 131.3 116.321 132.075 116.798 132.686C117.28 133.291 117.98 133.682 118.748 133.775C119.516 133.868 120.29 133.656 120.902 133.184C135.013 122.061 144.648 106.228 148.043 88.5821C151.439 70.9366 148.368 52.6583 139.394 37.0912L139.374 37.3303ZM13.8399 82.4874L25.7955 91.6344C26.144 91.9089 26.5545 92.0936 26.991 92.1724L34.2641 93.5873C34.716 93.6764 35.1438 93.8612 35.5184 94.1293C35.8931 94.3974 36.2058 94.7426 36.4359 95.1417C36.6721 95.5367 36.8195 95.9784 36.8677 96.4362C36.9159 96.8939 36.8637 97.3566 36.7149 97.7921C36.1071 99.6229 36.1071 101.601 36.7149 103.432L37.6317 106.262C37.9059 107.07 37.8504 107.955 37.4775 108.723C37.1045 109.491 36.4442 110.082 35.6391 110.367L32.7497 111.303C32.2455 111.458 31.7933 111.748 31.442 112.141C31.0908 112.535 30.8539 113.017 30.7571 113.535L28.4256 125.711C23.1746 120.896 18.6926 115.304 15.1351 109.131C10.7989 101.635 7.91881 93.3856 6.64663 84.819L13.8399 82.4874ZM30.8568 35.9354L27.4096 39.6021C27.2657 39.773 27.1325 39.9527 27.011 40.1402L19.1203 53.7511L12.1063 58.7132C11.4966 59.1573 11.0817 59.8196 10.948 60.5621C10.8144 61.3045 10.9725 62.0699 11.389 62.6988L13.9793 66.5051C12.4848 66.7243 11.1498 66.9036 10.2531 67.0033L9.73526 66.5051C9.03785 65.8474 8.06136 64.9905 6.62668 63.735C9.02184 48.8211 16.2461 35.1059 27.1902 24.6959C28.2467 25.0255 29.2177 25.5839 30.0339 26.3313C30.8501 27.0787 31.4915 27.9968 31.9127 29.0203C32.4065 30.1618 32.5602 31.4217 32.3551 32.6484C32.1501 33.8751 31.5952 35.0165 30.7571 35.9354H30.8568ZM54.6483 51.8778C56.755 51.1857 58.9684 50.8753 61.1841 50.9611C62.0609 50.9611 62.8977 50.9612 63.635 50.8416C64.0525 50.8017 64.4728 50.8017 64.8903 50.8416C64.6921 51.3202 64.6301 51.8444 64.7111 52.3561C64.7868 52.8 64.9624 53.2209 65.2248 53.5868C65.4872 53.9528 65.8294 54.2543 66.2255 54.4685C66.7834 54.7674 67.5405 55.2656 68.3375 55.8037C70.4581 57.5112 72.9603 58.6804 75.6305 59.2114C76.3774 59.2626 77.126 59.1398 77.8174 58.8528C78.5089 58.5659 79.1245 58.1224 79.6157 57.5573L79.7551 57.4378C80.0746 57.1732 80.3387 56.8482 80.5322 56.4812L81.9868 56.8798C83.964 57.2504 85.8727 57.9225 87.6459 58.8726C89.0197 60.7293 90.0704 62.8043 90.7543 65.0104C91.1926 66.1463 91.6112 67.2225 92.0695 68.2189L92.6673 69.5142C93.8317 72.8928 95.9578 75.8573 98.7845 78.0434C100.282 78.8748 101.939 79.3775 103.646 79.5181L104.284 79.6177C103.171 81.0547 101.93 82.3887 100.578 83.6033C96.9514 86.9513 92.468 91.1561 94.6001 97.832C95.5765 100.981 95.6163 101.319 94.0421 103.033L93.4442 103.671C91.8927 105.127 90.7579 106.971 90.1566 109.012C89.9156 109.718 89.5049 110.354 88.9609 110.865C88.3512 111.538 87.8044 112.265 87.3271 113.037C86.801 114.006 86.4438 115.057 86.2709 116.146C86.2307 116.755 86.024 117.341 85.6733 117.84C84.6103 119.103 83.3682 120.204 81.9868 121.108C81.2786 121.659 80.4288 121.997 79.5359 122.084C78.0783 120.01 77.0115 117.687 76.3877 115.229C75.9692 113.974 75.3913 112.698 74.8334 111.443C73.5781 108.713 72.3028 105.883 72.8408 103.95C72.8408 103.711 72.9803 103.492 73.06 103.272C73.7808 101.691 74.1704 99.9788 74.2046 98.2412C74.2389 96.5036 73.9171 94.7774 73.2592 93.1688C72.7358 92.0395 72.0137 91.0135 71.1272 90.1398C70.6831 89.7072 70.3071 89.21 70.0115 88.6651C69.957 88.175 69.957 87.6805 70.0115 87.1904C70.1219 86.0878 69.9761 84.9745 69.5856 83.9375C69.195 82.9005 68.5702 81.9677 67.7598 81.212C64.5318 78.1829 60.7658 79.2192 58.275 79.7373C57.4979 79.9167 56.7804 80.096 56.1428 80.1757C54.2532 80.4402 52.3273 80.1847 50.5719 79.4369C48.8166 78.689 47.2982 77.477 46.1798 75.931C45.0018 74.2417 44.2974 72.2678 44.1397 70.2143C43.9821 68.1609 44.377 66.1026 45.2832 64.2532C46.2918 62.3665 47.5669 60.6349 49.0692 59.1117L50.0854 57.9559C50.6633 57.2983 51.2809 56.4015 51.9384 55.4649C52.684 54.1833 53.5587 52.9814 54.5489 51.8778H54.6483Z" fill="#10243E"/>
<path d="M119.609 100.821L118.228 95.6637C118.086 95.1096 117.78 94.6113 117.351 94.2338C116.921 93.8563 116.388 93.6172 115.82 93.5478C115.252 93.4785 114.677 93.582 114.169 93.8449C113.661 94.1078 113.244 94.5179 112.973 95.0215C112.662 95.6053 112.37 96.2086 112.098 96.8119C111.732 97.7237 111.255 98.5866 110.677 99.3807C110.177 99.8008 109.612 100.136 109.004 100.373C107.926 100.753 106.943 101.362 106.123 102.158C105.303 102.954 104.666 103.919 104.255 104.985C103.873 106.294 103.806 107.675 104.06 109.014C104.244 109.557 104.244 110.145 104.06 110.687C103.165 112.809 101.472 116.779 103.846 120.145C104.327 121.018 105.022 121.754 105.867 122.282C106.712 122.81 107.678 123.113 108.673 123.162C108.932 123.182 109.192 123.182 109.451 123.162C112.351 122.695 114.53 119.659 116.321 113.646L119.668 102.339C119.782 101.836 119.762 101.313 119.609 100.821ZM110.755 112.05C110.309 113.868 109.573 115.603 108.575 117.187L108.4 116.954C107.855 116.175 108.673 114.268 109.218 113.062C109.858 111.565 110.021 109.906 109.685 108.313C109.565 107.827 109.565 107.32 109.685 106.834C109.782 106.484 110.463 106.134 111.456 105.647C111.903 105.433 112.409 105.2 112.896 104.908L110.755 112.05Z" fill="#10243E"/>
<path d="M78.053 34.3975H77.8631C77.5188 34.2697 77.1534 34.2125 76.7876 34.2295C76.4218 34.2464 76.063 34.337 75.7313 34.4962C75.3997 34.6553 75.1018 34.8798 74.8548 35.157C74.6078 35.4341 74.4165 35.7584 74.2918 36.1114C74.167 36.4643 74.1113 36.839 74.1278 37.214C74.1443 37.589 74.2328 37.957 74.388 38.297C74.5432 38.637 74.7623 38.9423 75.0327 39.1955C75.303 39.4487 75.6192 39.6448 75.9634 39.7727H76.1534C76.4478 39.8717 76.7555 39.9242 77.0654 39.9285C77.7186 39.9211 78.3486 39.6792 78.8458 39.2448C79.343 38.8103 79.6759 38.211 79.7866 37.5509C79.8973 36.8909 79.7786 36.2119 79.4515 35.6322C79.1244 35.0525 78.6095 34.6087 77.9962 34.3781L78.053 34.3975Z" fill="#10243E"/>
</svg>
